M48
;Layer_Color=9474304
;FILE_FORMAT=2:3
INCH,LZ
;TYPE=PLATED
T1F00S00C0.012
T2F00S00C0.035
T3F00S00C0.039
T4F00S00C0.041
T5F00S00C0.116
;TYPE=NON_PLATED
T6F00S00C0.125
T7F00S00C0.136
%
T01
X01573Y0165
X01575Y017
X01746Y01767
X0179Y0196
Y0206
X01725Y02065
X01675
X0162
X01573
X01621Y0215
X017
X0175Y0221
X0179Y02355
Y024
Y0244
X0174
X01675Y02525
X01615Y025
X0162Y026
X01571
X017
X01765Y02825
X01737Y02897
X0167Y02985
X0162Y02985
X0157
X0194Y01645
X0132Y0178
X0138Y0203
X015Y0215
X0132Y0223
X0138Y0249
X0132Y0268
X0145Y02935
X0115Y0291
Y0246
Y0201
T02
X0152Y014
X0156Y0148
X0164
X0172
X0168Y014
X016
T03
X0194Y0191
Y0201
Y0211
X0204
Y0221
Y0231
Y0241
Y0251
Y0261
Y0271
Y0281
X0194
Y0271
Y0261
Y0251
Y0241
Y0231
Y0221
X0204Y0201
Y0191
T04
X0133Y03516
Y03624
Y03732
Y0384
Y03948
Y04056
Y04164
X01442Y04218
Y0411
Y04002
Y03894
Y03786
Y03678
Y0357
Y03462
T05
X0112Y0118
X0212
Y0488
X0112
T06
X01386Y03184
Y04496
T07
X01433Y0128
X01807
M30
