G04*
G04 #@! TF.GenerationSoftware,Altium Limited,Altium Designer,22.6.1 (34)*
G04*
G04 Layer_Color=8388736*
%FSLAX23Y23*%
%MOIN*%
G70*
G04*
G04 #@! TF.SameCoordinates,B6A25038-3202-4191-8880-7B975E66899D*
G04*
G04*
G04 #@! TF.FilePolarity,Negative*
G04*
G01*
G75*
%ADD19O,0.026X0.063*%
%ADD20R,0.047X0.051*%
%ADD21R,0.051X0.047*%
%ADD22O,0.032X0.059*%
%ADD23C,0.079*%
%ADD24C,0.071*%
%ADD25C,0.008*%
%ADD26C,0.188*%
%ADD27C,0.032*%
D19*
X1520Y1764D02*
D03*
X1546D02*
D03*
X1572D02*
D03*
X1597D02*
D03*
X1623D02*
D03*
X1648D02*
D03*
X1674D02*
D03*
X1700D02*
D03*
X1520Y1996D02*
D03*
X1546D02*
D03*
X1572D02*
D03*
X1597D02*
D03*
X1623D02*
D03*
X1648D02*
D03*
X1674D02*
D03*
X1700D02*
D03*
X1521Y2210D02*
D03*
X1546D02*
D03*
X1572D02*
D03*
X1598D02*
D03*
X1623D02*
D03*
X1649D02*
D03*
X1674D02*
D03*
X1700D02*
D03*
X1521Y2442D02*
D03*
X1546D02*
D03*
X1572D02*
D03*
X1598D02*
D03*
X1623D02*
D03*
X1649D02*
D03*
X1674D02*
D03*
X1700D02*
D03*
X1700Y2896D02*
D03*
X1674D02*
D03*
X1648D02*
D03*
X1623D02*
D03*
X1597D02*
D03*
X1572D02*
D03*
X1546D02*
D03*
X1520D02*
D03*
X1700Y2664D02*
D03*
X1674D02*
D03*
X1648D02*
D03*
X1623D02*
D03*
X1597D02*
D03*
X1572D02*
D03*
X1546D02*
D03*
X1520D02*
D03*
D20*
X1310Y1843D02*
D03*
Y1910D02*
D03*
X1380Y1843D02*
D03*
Y1910D02*
D03*
X1450Y1843D02*
D03*
Y1910D02*
D03*
X1380Y2360D02*
D03*
Y2293D02*
D03*
X1450Y2360D02*
D03*
Y2293D02*
D03*
Y2810D02*
D03*
Y2743D02*
D03*
X1380Y2810D02*
D03*
Y2743D02*
D03*
X1310Y2810D02*
D03*
Y2743D02*
D03*
X1312Y2360D02*
D03*
Y2293D02*
D03*
D21*
X1187Y2060D02*
D03*
X1120D02*
D03*
X1187Y2960D02*
D03*
X1120D02*
D03*
X1123Y2510D02*
D03*
X1190D02*
D03*
D22*
X1100Y1740D02*
D03*
X1200D02*
D03*
X1100Y1960D02*
D03*
X1200D02*
D03*
X1100Y2640D02*
D03*
X1200D02*
D03*
X1100Y2860D02*
D03*
X1200D02*
D03*
Y2410D02*
D03*
X1100D02*
D03*
X1200Y2190D02*
D03*
X1100D02*
D03*
D23*
X2040Y2810D02*
D03*
Y2710D02*
D03*
Y2610D02*
D03*
Y2510D02*
D03*
Y2110D02*
D03*
Y2210D02*
D03*
Y2310D02*
D03*
Y2410D02*
D03*
X1940D02*
D03*
Y2310D02*
D03*
Y2210D02*
D03*
Y2110D02*
D03*
Y2510D02*
D03*
Y2610D02*
D03*
Y2710D02*
D03*
Y2810D02*
D03*
Y1910D02*
D03*
Y2010D02*
D03*
X2040D02*
D03*
Y1910D02*
D03*
X1330Y3516D02*
D03*
Y3624D02*
D03*
Y3732D02*
D03*
Y3840D02*
D03*
Y3948D02*
D03*
Y4056D02*
D03*
Y4164D02*
D03*
X1442Y4218D02*
D03*
Y4110D02*
D03*
Y4002D02*
D03*
Y3894D02*
D03*
Y3786D02*
D03*
Y3678D02*
D03*
Y3570D02*
D03*
Y3462D02*
D03*
D24*
X1520Y1400D02*
D03*
X1600D02*
D03*
X1680D02*
D03*
X1560Y1480D02*
D03*
X1640D02*
D03*
X1720D02*
D03*
D25*
X1433Y1280D02*
D03*
X1807D02*
D03*
X1386Y4496D02*
D03*
Y3184D02*
D03*
D26*
X1120Y1180D02*
D03*
X2120D02*
D03*
Y4880D02*
D03*
X1120D02*
D03*
D27*
X1573Y2065D02*
D03*
X1620D02*
D03*
X1746Y1767D02*
D03*
X1790Y2440D02*
D03*
X1573Y1650D02*
D03*
X1320Y1780D02*
D03*
Y2230D02*
D03*
Y2680D02*
D03*
X1670Y2985D02*
D03*
X1620Y2985D02*
D03*
X1380Y2030D02*
D03*
X1500Y2150D02*
D03*
X1380Y2490D02*
D03*
X1725Y2065D02*
D03*
X1790Y1960D02*
D03*
Y2060D02*
D03*
X1750Y2210D02*
D03*
X1765Y2825D02*
D03*
X1570Y2985D02*
D03*
X1940Y1645D02*
D03*
X1675Y2065D02*
D03*
X1571Y2600D02*
D03*
X1575Y1700D02*
D03*
X1700Y2600D02*
D03*
Y2150D02*
D03*
X1450Y2935D02*
D03*
X1790Y2355D02*
D03*
Y2400D02*
D03*
X1615Y2500D02*
D03*
X1621Y2150D02*
D03*
X1675Y2525D02*
D03*
X1620Y2600D02*
D03*
X1737Y2897D02*
D03*
X1740Y2440D02*
D03*
X1150Y2010D02*
D03*
Y2910D02*
D03*
Y2460D02*
D03*
M02*
