G04*
G04 #@! TF.GenerationSoftware,Altium Limited,Altium Designer,22.6.1 (34)*
G04*
G04 Layer_Color=65535*
%FSLAX23Y23*%
%MOIN*%
G70*
G04*
G04 #@! TF.SameCoordinates,B6A25038-3202-4191-8880-7B975E66899D*
G04*
G04*
G04 #@! TF.FilePolarity,Positive*
G04*
G01*
G75*
%ADD10C,0.010*%
%ADD11C,0.024*%
%ADD12C,0.010*%
%ADD13C,0.008*%
%ADD14C,0.005*%
G36*
X2101Y4616D02*
X2098D01*
Y4615D01*
X2096D01*
Y4614D01*
X2094D01*
Y4613D01*
X2091D01*
Y4612D01*
X2089D01*
Y4611D01*
X2087D01*
Y4610D01*
X2084D01*
Y4609D01*
X2082D01*
Y4608D01*
X2079D01*
Y4607D01*
X2077D01*
Y4606D01*
X2075D01*
Y4605D01*
X2072D01*
Y4603D01*
X2070D01*
Y4602D01*
X2068D01*
Y4601D01*
X2065D01*
Y4600D01*
X2063D01*
Y4599D01*
X2060D01*
Y4598D01*
X2058D01*
Y4597D01*
X2056D01*
Y4596D01*
X2053D01*
Y4595D01*
X2051D01*
Y4594D01*
X2049D01*
Y4593D01*
X2046D01*
Y4592D01*
X2043D01*
Y4591D01*
X2040D01*
Y4590D01*
X2038D01*
Y4589D01*
X2036D01*
Y4588D01*
X2033D01*
Y4587D01*
X2031D01*
Y4586D01*
X2028D01*
Y4585D01*
X2026D01*
Y4584D01*
X2024D01*
Y4583D01*
X2022D01*
Y4582D01*
X2019D01*
Y4581D01*
X2017D01*
Y4580D01*
X2014D01*
Y4579D01*
X2012D01*
Y4578D01*
X2010D01*
Y4577D01*
X2007D01*
Y4576D01*
X2005D01*
Y4575D01*
X2002D01*
Y4574D01*
X2000D01*
Y4573D01*
X1998D01*
Y4572D01*
X1995D01*
Y4571D01*
X1993D01*
Y4570D01*
X1991D01*
Y4569D01*
X1988D01*
Y4568D01*
X1986D01*
Y4567D01*
X1984D01*
Y4566D01*
X1981D01*
Y4565D01*
X1979D01*
Y4564D01*
X1977D01*
Y4563D01*
X1979D01*
Y4562D01*
X1982D01*
Y4561D01*
X1984D01*
Y4560D01*
X1986D01*
Y4559D01*
X1989D01*
Y4558D01*
X1991D01*
Y4557D01*
X1993D01*
Y4556D01*
X1996D01*
Y4555D01*
X1998D01*
Y4554D01*
X2001D01*
Y4553D01*
X2003D01*
Y4552D01*
X2005D01*
Y4551D01*
X2008D01*
Y4550D01*
X2010D01*
Y4549D01*
X2012D01*
Y4548D01*
X2015D01*
Y4547D01*
X2017D01*
Y4546D01*
X2020D01*
Y4545D01*
X2022D01*
Y4544D01*
X2024D01*
Y4543D01*
X2027D01*
Y4542D01*
X2029D01*
Y4541D01*
X2031D01*
Y4540D01*
X2034D01*
Y4539D01*
X2036D01*
Y4538D01*
X2038D01*
Y4537D01*
X2041D01*
Y4536D01*
X2043D01*
Y4535D01*
X2047D01*
Y4534D01*
X2049D01*
Y4533D01*
X2052D01*
Y4532D01*
X2054D01*
Y4531D01*
X2056D01*
Y4530D01*
X2059D01*
Y4529D01*
X2061D01*
Y4528D01*
X2063D01*
Y4527D01*
X2066D01*
Y4526D01*
X2068D01*
Y4525D01*
X2071D01*
Y4524D01*
X2073D01*
Y4523D01*
X2075D01*
Y4522D01*
X2077D01*
Y4521D01*
X2080D01*
Y4520D01*
X2082D01*
Y4519D01*
X2085D01*
Y4518D01*
X2087D01*
Y4517D01*
X2089D01*
Y4516D01*
X2092D01*
Y4515D01*
X2094D01*
Y4514D01*
X2097D01*
Y4513D01*
X2099D01*
Y4512D01*
X2101D01*
Y4489D01*
X2098D01*
Y4490D01*
X2096D01*
Y4491D01*
X2093D01*
Y4492D01*
X2091D01*
Y4494D01*
X2089D01*
Y4495D01*
X2087D01*
Y4496D01*
X2084D01*
Y4497D01*
X2082D01*
Y4498D01*
X2080D01*
Y4499D01*
X2077D01*
Y4500D01*
X2075D01*
Y4501D01*
X2073D01*
Y4502D01*
X2070D01*
Y4503D01*
X2068D01*
Y4504D01*
X2066D01*
Y4505D01*
X2063D01*
Y4506D01*
X2061D01*
Y4507D01*
X2059D01*
Y4508D01*
X2056D01*
Y4509D01*
X2054D01*
Y4510D01*
X2052D01*
Y4511D01*
X2049D01*
Y4512D01*
X2047D01*
Y4513D01*
X2044D01*
Y4514D01*
X2041D01*
Y4515D01*
X2039D01*
Y4516D01*
X2037D01*
Y4517D01*
X2034D01*
Y4518D01*
X2032D01*
Y4519D01*
X2030D01*
Y4520D01*
X2028D01*
Y4521D01*
X2025D01*
Y4522D01*
X2023D01*
Y4523D01*
X2021D01*
Y4524D01*
X2018D01*
Y4525D01*
X2016D01*
Y4526D01*
X2014D01*
Y4527D01*
X2011D01*
Y4528D01*
X2009D01*
Y4529D01*
X2007D01*
Y4530D01*
X2004D01*
Y4531D01*
X2002D01*
Y4532D01*
X2000D01*
Y4533D01*
X1997D01*
Y4534D01*
X1995D01*
Y4535D01*
X1993D01*
Y4536D01*
X1991D01*
Y4537D01*
X1988D01*
Y4538D01*
X1986D01*
Y4539D01*
X1983D01*
Y4540D01*
X1981D01*
Y4541D01*
X1979D01*
Y4542D01*
X1977D01*
Y4543D01*
X1974D01*
Y4544D01*
X1972D01*
Y4545D01*
X1970D01*
Y4546D01*
X1967D01*
Y4547D01*
X1965D01*
Y4548D01*
X1963D01*
Y4549D01*
X1961D01*
Y4550D01*
X1958D01*
Y4551D01*
X1956D01*
Y4552D01*
X1954D01*
Y4553D01*
X1951D01*
Y4554D01*
X1949D01*
Y4555D01*
X1946D01*
Y4556D01*
X1944D01*
Y4557D01*
X1942D01*
Y4558D01*
X1940D01*
Y4559D01*
X1938D01*
Y4560D01*
X1937D01*
Y4567D01*
X1938D01*
Y4568D01*
X1939D01*
Y4569D01*
X1941D01*
Y4570D01*
X1944D01*
Y4571D01*
X1946D01*
Y4572D01*
X1949D01*
Y4573D01*
X1951D01*
Y4574D01*
X1953D01*
Y4575D01*
X1955D01*
Y4576D01*
X1958D01*
Y4577D01*
X1960D01*
Y4578D01*
X1962D01*
Y4579D01*
X1965D01*
Y4580D01*
X1967D01*
Y4581D01*
X1969D01*
Y4582D01*
X1972D01*
Y4583D01*
X1974D01*
Y4584D01*
X1976D01*
Y4585D01*
X1979D01*
Y4586D01*
X1981D01*
Y4587D01*
X1983D01*
Y4588D01*
X1986D01*
Y4589D01*
X1988D01*
Y4590D01*
X1990D01*
Y4591D01*
X1992D01*
Y4592D01*
X1995D01*
Y4593D01*
X1997D01*
Y4594D01*
X2000D01*
Y4595D01*
X2002D01*
Y4596D01*
X2004D01*
Y4597D01*
X2006D01*
Y4598D01*
X2009D01*
Y4599D01*
X2011D01*
Y4600D01*
X2014D01*
Y4601D01*
X2016D01*
Y4602D01*
X2018D01*
Y4603D01*
X2020D01*
Y4605D01*
X2023D01*
Y4606D01*
X2025D01*
Y4607D01*
X2027D01*
Y4608D01*
X2030D01*
Y4609D01*
X2032D01*
Y4610D01*
X2034D01*
Y4611D01*
X2037D01*
Y4612D01*
X2039D01*
Y4613D01*
X2041D01*
Y4614D01*
X2044D01*
Y4615D01*
X2047D01*
Y4616D01*
X2049D01*
Y4617D01*
X2052D01*
Y4618D01*
X2054D01*
Y4619D01*
X2056D01*
Y4620D01*
X2059D01*
Y4621D01*
X2061D01*
Y4622D01*
X2063D01*
Y4623D01*
X2065D01*
Y4624D01*
X2068D01*
Y4625D01*
X2070D01*
Y4626D01*
X2072D01*
Y4627D01*
X2075D01*
Y4628D01*
X2077D01*
Y4629D01*
X2079D01*
Y4630D01*
X2082D01*
Y4631D01*
X2084D01*
Y4632D01*
X2086D01*
Y4633D01*
X2089D01*
Y4634D01*
X2091D01*
Y4635D01*
X2093D01*
Y4636D01*
X2096D01*
Y4637D01*
X2098D01*
Y4638D01*
X2101D01*
Y4616D01*
D02*
G37*
G36*
X2032Y4485D02*
X2039D01*
Y4484D01*
X2046D01*
Y4483D01*
X2050D01*
Y4482D01*
X2054D01*
Y4481D01*
X2058D01*
Y4480D01*
X2061D01*
Y4479D01*
X2064D01*
Y4478D01*
X2066D01*
Y4477D01*
X2069D01*
Y4476D01*
X2071D01*
Y4475D01*
X2074D01*
Y4474D01*
X2076D01*
Y4473D01*
X2078D01*
Y4472D01*
X2080D01*
Y4471D01*
X2082D01*
Y4470D01*
X2084D01*
Y4469D01*
X2086D01*
Y4468D01*
X2087D01*
Y4467D01*
X2089D01*
Y4466D01*
X2091D01*
Y4465D01*
X2092D01*
Y4464D01*
X2094D01*
Y4463D01*
X2095D01*
Y4462D01*
X2097D01*
Y4461D01*
X2098D01*
Y4460D01*
X2100D01*
Y4459D01*
X2101D01*
Y4458D01*
X2102D01*
Y4457D01*
X2103D01*
Y4456D01*
X2104D01*
Y4455D01*
X2106D01*
Y4454D01*
X2107D01*
Y4453D01*
X2108D01*
Y4452D01*
X2109D01*
Y4451D01*
X2110D01*
Y4450D01*
X2111D01*
Y4449D01*
X2113D01*
Y4447D01*
X2115D01*
Y4446D01*
X2116D01*
Y4444D01*
X2117D01*
Y4443D01*
X2118D01*
Y4442D01*
X2119D01*
Y4441D01*
X2120D01*
Y4440D01*
X2121D01*
Y4439D01*
X2122D01*
Y4438D01*
X2123D01*
Y4436D01*
X2124D01*
Y4435D01*
X2125D01*
Y4434D01*
X2126D01*
Y4433D01*
X2127D01*
Y4431D01*
X2128D01*
Y4430D01*
X2129D01*
Y4429D01*
X2130D01*
Y4427D01*
X2131D01*
Y4426D01*
X2132D01*
Y4424D01*
X2133D01*
Y4423D01*
X2134D01*
Y4421D01*
X2135D01*
Y4420D01*
X2136D01*
Y4418D01*
X2137D01*
Y4416D01*
X2138D01*
Y4414D01*
X2139D01*
Y4412D01*
X2140D01*
Y4410D01*
X2141D01*
Y4408D01*
X2142D01*
Y4406D01*
X2143D01*
Y4404D01*
X2144D01*
Y4401D01*
X2145D01*
Y4399D01*
X2146D01*
Y4396D01*
X2147D01*
Y4393D01*
X2148D01*
Y4390D01*
X2149D01*
Y4387D01*
X2150D01*
Y4383D01*
X2151D01*
Y4378D01*
X2152D01*
Y4372D01*
X2153D01*
Y4365D01*
X2154D01*
Y4333D01*
X2153D01*
Y4327D01*
X2152D01*
Y4321D01*
X2151D01*
Y4317D01*
X2150D01*
Y4313D01*
X2149D01*
Y4310D01*
X2148D01*
Y4307D01*
X2147D01*
Y4304D01*
X2146D01*
Y4301D01*
X2145D01*
Y4298D01*
X2144D01*
Y4296D01*
X2143D01*
Y4294D01*
X2142D01*
Y4292D01*
X2141D01*
Y4289D01*
X2140D01*
Y4288D01*
X2139D01*
Y4286D01*
X2138D01*
Y4284D01*
X2137D01*
Y4282D01*
X2136D01*
Y4280D01*
X2135D01*
Y4279D01*
X2134D01*
Y4277D01*
X2133D01*
Y4275D01*
X2132D01*
Y4274D01*
X2131D01*
Y4272D01*
X2130D01*
Y4270D01*
X2129D01*
Y4268D01*
X2128D01*
Y4267D01*
X2127D01*
Y4266D01*
X2126D01*
Y4265D01*
X2125D01*
Y4263D01*
X2124D01*
Y4262D01*
X2123D01*
Y4261D01*
X2122D01*
Y4260D01*
X2121D01*
Y4259D01*
X2120D01*
Y4257D01*
X2119D01*
Y4256D01*
X2118D01*
Y4255D01*
X2117D01*
Y4254D01*
X2116D01*
Y4253D01*
X2115D01*
Y4252D01*
X2114D01*
Y4251D01*
X2113D01*
Y4250D01*
X2112D01*
Y4249D01*
X2111D01*
Y4248D01*
X2109D01*
Y4247D01*
X2108D01*
Y4246D01*
X2107D01*
Y4245D01*
X2106D01*
Y4244D01*
X2105D01*
Y4243D01*
X2104D01*
Y4242D01*
X2102D01*
Y4241D01*
X2101D01*
Y4240D01*
X2100D01*
Y4239D01*
X2098D01*
Y4238D01*
X2097D01*
Y4237D01*
X2096D01*
Y4236D01*
X2094D01*
Y4235D01*
X2093D01*
Y4234D01*
X2091D01*
Y4233D01*
X2089D01*
Y4232D01*
X2088D01*
Y4231D01*
X2086D01*
Y4230D01*
X2084D01*
Y4229D01*
X2083D01*
Y4228D01*
X2081D01*
Y4227D01*
X2078D01*
Y4226D01*
X2077D01*
Y4225D01*
X2074D01*
Y4224D01*
X2072D01*
Y4223D01*
X2069D01*
Y4222D01*
X2067D01*
Y4221D01*
X2065D01*
Y4220D01*
X2062D01*
Y4219D01*
X2059D01*
Y4218D01*
X2055D01*
Y4217D01*
X2051D01*
Y4216D01*
X2047D01*
Y4215D01*
X2041D01*
Y4214D01*
X2034D01*
Y4213D01*
X2002D01*
Y4214D01*
X1995D01*
Y4215D01*
X1990D01*
Y4216D01*
X1985D01*
Y4217D01*
X1982D01*
Y4218D01*
X1978D01*
Y4219D01*
X1975D01*
Y4220D01*
X1972D01*
Y4221D01*
X1969D01*
Y4222D01*
X1967D01*
Y4223D01*
X1964D01*
Y4224D01*
X1962D01*
Y4225D01*
X1960D01*
Y4226D01*
X1958D01*
Y4227D01*
X1956D01*
Y4228D01*
X1954D01*
Y4229D01*
X1952D01*
Y4230D01*
X1950D01*
Y4231D01*
X1949D01*
Y4232D01*
X1947D01*
Y4233D01*
X1945D01*
Y4234D01*
X1944D01*
Y4235D01*
X1942D01*
Y4236D01*
X1941D01*
Y4237D01*
X1940D01*
Y4238D01*
X1938D01*
Y4239D01*
X1937D01*
Y4240D01*
X1934D01*
Y4241D01*
X1933D01*
Y4242D01*
X1932D01*
Y4243D01*
X1931D01*
Y4244D01*
X1930D01*
Y4245D01*
X1928D01*
Y4246D01*
X1927D01*
Y4247D01*
X1926D01*
Y4248D01*
X1925D01*
Y4249D01*
X1924D01*
Y4250D01*
X1923D01*
Y4251D01*
X1922D01*
Y4252D01*
X1921D01*
Y4253D01*
X1920D01*
Y4254D01*
X1919D01*
Y4255D01*
X1918D01*
Y4256D01*
X1917D01*
Y4257D01*
X1916D01*
Y4258D01*
X1915D01*
Y4259D01*
X1914D01*
Y4260D01*
X1913D01*
Y4262D01*
X1912D01*
Y4263D01*
X1911D01*
Y4264D01*
X1910D01*
Y4265D01*
X1909D01*
Y4267D01*
X1908D01*
Y4268D01*
X1907D01*
Y4270D01*
X1906D01*
Y4272D01*
X1905D01*
Y4273D01*
X1904D01*
Y4275D01*
X1903D01*
Y4276D01*
X1902D01*
Y4278D01*
X1901D01*
Y4279D01*
X1900D01*
Y4281D01*
X1899D01*
Y4283D01*
X1898D01*
Y4285D01*
X1897D01*
Y4287D01*
X1896D01*
Y4288D01*
X1895D01*
Y4291D01*
X1894D01*
Y4293D01*
X1893D01*
Y4295D01*
X1892D01*
Y4297D01*
X1891D01*
Y4300D01*
X1890D01*
Y4302D01*
X1889D01*
Y4305D01*
X1888D01*
Y4308D01*
X1887D01*
Y4311D01*
X1886D01*
Y4315D01*
X1885D01*
Y4319D01*
X1884D01*
Y4324D01*
X1883D01*
Y4330D01*
X1882D01*
Y4340D01*
X1881D01*
Y4359D01*
X1882D01*
Y4368D01*
X1883D01*
Y4375D01*
X1884D01*
Y4380D01*
X1885D01*
Y4385D01*
X1886D01*
Y4389D01*
X1887D01*
Y4391D01*
X1888D01*
Y4394D01*
X1889D01*
Y4398D01*
X1890D01*
Y4400D01*
X1891D01*
Y4402D01*
X1892D01*
Y4405D01*
X1893D01*
Y4407D01*
X1894D01*
Y4409D01*
X1895D01*
Y4411D01*
X1896D01*
Y4413D01*
X1897D01*
Y4415D01*
X1898D01*
Y4417D01*
X1899D01*
Y4419D01*
X1900D01*
Y4420D01*
X1901D01*
Y4422D01*
X1902D01*
Y4423D01*
X1903D01*
Y4425D01*
X1904D01*
Y4426D01*
X1905D01*
Y4428D01*
X1906D01*
Y4429D01*
X1907D01*
Y4431D01*
X1908D01*
Y4432D01*
X1909D01*
Y4433D01*
X1910D01*
Y4435D01*
X1911D01*
Y4436D01*
X1912D01*
Y4437D01*
X1913D01*
Y4438D01*
X1914D01*
Y4439D01*
X1915D01*
Y4441D01*
X1916D01*
Y4442D01*
X1917D01*
Y4443D01*
X1918D01*
Y4444D01*
X1919D01*
Y4445D01*
X1920D01*
Y4446D01*
X1921D01*
Y4447D01*
X1922D01*
Y4448D01*
X1923D01*
Y4449D01*
X1924D01*
Y4450D01*
X1925D01*
Y4451D01*
X1926D01*
Y4452D01*
X1928D01*
Y4453D01*
X1929D01*
Y4454D01*
X1930D01*
Y4455D01*
X1931D01*
Y4456D01*
X1932D01*
Y4457D01*
X1934D01*
Y4458D01*
X1936D01*
Y4459D01*
X1937D01*
Y4460D01*
X1938D01*
Y4461D01*
X1940D01*
Y4462D01*
X1941D01*
Y4463D01*
X1943D01*
Y4464D01*
X1944D01*
Y4465D01*
X1946D01*
Y4466D01*
X1948D01*
Y4467D01*
X1949D01*
Y4468D01*
X1951D01*
Y4469D01*
X1953D01*
Y4470D01*
X1954D01*
Y4471D01*
X1957D01*
Y4472D01*
X1959D01*
Y4473D01*
X1960D01*
Y4474D01*
X1963D01*
Y4475D01*
X1965D01*
Y4476D01*
X1968D01*
Y4477D01*
X1970D01*
Y4478D01*
X1973D01*
Y4479D01*
X1976D01*
Y4480D01*
X1979D01*
Y4481D01*
X1982D01*
Y4482D01*
X1986D01*
Y4483D01*
X1991D01*
Y4484D01*
X1996D01*
Y4485D01*
X2004D01*
Y4486D01*
X2032D01*
Y4485D01*
D02*
G37*
G36*
X2100Y4189D02*
X2101D01*
Y4168D01*
X1959D01*
Y4099D01*
X1958D01*
Y4098D01*
X1942D01*
Y4099D01*
X1941D01*
Y4100D01*
Y4101D01*
Y4189D01*
X1942D01*
Y4190D01*
X1943D01*
Y4189D01*
X1944D01*
Y4190D01*
X2100D01*
Y4189D01*
D02*
G37*
G36*
X2101Y4001D02*
X2083D01*
Y4049D01*
X1941D01*
Y4071D01*
X2083D01*
Y4119D01*
X2101D01*
Y4001D01*
D02*
G37*
G36*
X1903Y3974D02*
X1902D01*
Y3970D01*
X1901D01*
Y3968D01*
X1900D01*
Y3966D01*
X1899D01*
Y3964D01*
X1898D01*
Y3963D01*
X1897D01*
Y3961D01*
X1896D01*
Y3960D01*
X1895D01*
Y3959D01*
X1894D01*
Y3958D01*
X1892D01*
Y3957D01*
X1891D01*
Y3956D01*
X1889D01*
Y3955D01*
X1886D01*
Y3954D01*
X1882D01*
Y3953D01*
X1872D01*
Y3954D01*
X1868D01*
Y3955D01*
X1865D01*
Y3956D01*
X1863D01*
Y3957D01*
X1862D01*
Y3958D01*
X1860D01*
Y3959D01*
X1859D01*
Y3960D01*
X1858D01*
Y3961D01*
X1857D01*
Y3962D01*
X1856D01*
Y3964D01*
X1855D01*
Y3965D01*
X1854D01*
Y3967D01*
X1853D01*
Y3970D01*
X1852D01*
Y3973D01*
X1851D01*
Y3979D01*
X1850D01*
Y3994D01*
X1903D01*
Y3974D01*
D02*
G37*
G36*
Y3941D02*
X1904D01*
Y3940D01*
X1903D01*
Y3934D01*
X1850D01*
Y3942D01*
X1903D01*
Y3941D01*
D02*
G37*
G36*
X1963Y3997D02*
X1964D01*
Y3996D01*
X1965D01*
Y3995D01*
X1966D01*
Y3994D01*
X1968D01*
Y3993D01*
X1969D01*
Y3992D01*
X1970D01*
Y3991D01*
X1971D01*
Y3990D01*
X1972D01*
Y3989D01*
X1973D01*
Y3988D01*
X1974D01*
Y3987D01*
X1976D01*
Y3985D01*
X1975D01*
Y3984D01*
X1974D01*
Y3982D01*
X1973D01*
Y3981D01*
X1972D01*
Y3980D01*
X1971D01*
Y3979D01*
X1970D01*
Y3978D01*
X1969D01*
Y3977D01*
X1968D01*
Y3975D01*
X1967D01*
Y3973D01*
X1966D01*
Y3972D01*
X1965D01*
Y3970D01*
X1964D01*
Y3969D01*
X1963D01*
Y3967D01*
X1962D01*
Y3965D01*
X1961D01*
Y3962D01*
X1960D01*
Y3959D01*
X1959D01*
Y3956D01*
X1958D01*
Y3951D01*
X1957D01*
Y3932D01*
X1958D01*
Y3927D01*
X1959D01*
Y3924D01*
X1960D01*
Y3922D01*
X1961D01*
Y3920D01*
X1962D01*
Y3919D01*
X1963D01*
Y3917D01*
X1964D01*
Y3916D01*
X1965D01*
Y3915D01*
X1966D01*
Y3914D01*
X1967D01*
Y3913D01*
X1968D01*
Y3912D01*
X1970D01*
Y3911D01*
X1972D01*
Y3910D01*
X1975D01*
Y3909D01*
X1990D01*
Y3910D01*
X1992D01*
Y3911D01*
X1994D01*
Y3912D01*
X1995D01*
Y3913D01*
X1997D01*
Y3914D01*
X1998D01*
Y3915D01*
X1999D01*
Y3917D01*
X2000D01*
Y3918D01*
X2001D01*
Y3920D01*
X2002D01*
Y3921D01*
X2003D01*
Y3923D01*
X2004D01*
Y3925D01*
X2005D01*
Y3927D01*
X2006D01*
Y3929D01*
X2007D01*
Y3931D01*
X2008D01*
Y3933D01*
X2009D01*
Y3935D01*
X2010D01*
Y3937D01*
X2011D01*
Y3941D01*
X2012D01*
Y3943D01*
X2013D01*
Y3945D01*
X2014D01*
Y3947D01*
X2015D01*
Y3950D01*
X2016D01*
Y3952D01*
X2017D01*
Y3954D01*
X2018D01*
Y3957D01*
X2019D01*
Y3959D01*
X2020D01*
Y3961D01*
X2021D01*
Y3963D01*
X2022D01*
Y3965D01*
X2023D01*
Y3967D01*
X2024D01*
Y3968D01*
X2025D01*
Y3970D01*
X2026D01*
Y3972D01*
X2027D01*
Y3973D01*
X2028D01*
Y3974D01*
X2029D01*
Y3976D01*
X2030D01*
Y3977D01*
X2031D01*
Y3978D01*
X2032D01*
Y3979D01*
X2033D01*
Y3980D01*
X2034D01*
Y3981D01*
X2035D01*
Y3982D01*
X2036D01*
Y3983D01*
X2038D01*
Y3984D01*
X2039D01*
Y3985D01*
X2041D01*
Y3986D01*
X2043D01*
Y3987D01*
X2044D01*
Y3988D01*
X2048D01*
Y3989D01*
X2051D01*
Y3990D01*
X2057D01*
Y3991D01*
X2065D01*
Y3990D01*
X2071D01*
Y3989D01*
X2074D01*
Y3988D01*
X2077D01*
Y3987D01*
X2079D01*
Y3986D01*
X2081D01*
Y3985D01*
X2083D01*
Y3984D01*
X2084D01*
Y3983D01*
X2085D01*
Y3982D01*
X2087D01*
Y3981D01*
X2088D01*
Y3980D01*
X2089D01*
Y3979D01*
X2090D01*
Y3978D01*
X2091D01*
Y3977D01*
X2092D01*
Y3975D01*
X2093D01*
Y3974D01*
X2094D01*
Y3973D01*
X2095D01*
Y3971D01*
X2096D01*
Y3970D01*
X2097D01*
Y3968D01*
X2098D01*
Y3966D01*
X2099D01*
Y3963D01*
X2100D01*
Y3961D01*
X2101D01*
Y3958D01*
X2102D01*
Y3954D01*
X2103D01*
Y3946D01*
X2104D01*
Y3933D01*
X2103D01*
Y3926D01*
X2102D01*
Y3922D01*
X2101D01*
Y3919D01*
X2100D01*
Y3916D01*
X2099D01*
Y3913D01*
X2098D01*
Y3911D01*
X2097D01*
Y3909D01*
X2096D01*
Y3907D01*
X2095D01*
Y3906D01*
X2094D01*
Y3904D01*
X2093D01*
Y3903D01*
X2092D01*
Y3901D01*
X2091D01*
Y3900D01*
X2090D01*
Y3898D01*
X2089D01*
Y3897D01*
X2088D01*
Y3896D01*
X2087D01*
Y3895D01*
X2086D01*
Y3894D01*
X2085D01*
Y3893D01*
X2082D01*
Y3894D01*
X2081D01*
Y3895D01*
X2080D01*
Y3896D01*
X2079D01*
Y3897D01*
X2078D01*
Y3898D01*
X2076D01*
Y3899D01*
X2075D01*
Y3900D01*
X2074D01*
Y3901D01*
X2073D01*
Y3902D01*
X2071D01*
Y3905D01*
X2072D01*
Y3906D01*
X2073D01*
Y3907D01*
X2074D01*
Y3908D01*
X2075D01*
Y3910D01*
X2076D01*
Y3911D01*
X2077D01*
Y3913D01*
X2078D01*
Y3914D01*
X2079D01*
Y3916D01*
X2080D01*
Y3918D01*
X2081D01*
Y3920D01*
X2082D01*
Y3923D01*
X2083D01*
Y3926D01*
X2084D01*
Y3930D01*
X2085D01*
Y3949D01*
X2084D01*
Y3953D01*
X2083D01*
Y3956D01*
X2082D01*
Y3958D01*
X2081D01*
Y3960D01*
X2080D01*
Y3961D01*
X2079D01*
Y3963D01*
X2078D01*
Y3964D01*
X2077D01*
Y3965D01*
X2076D01*
Y3966D01*
X2074D01*
Y3967D01*
X2072D01*
Y3968D01*
X2070D01*
Y3969D01*
X2065D01*
Y3970D01*
X2061D01*
Y3969D01*
X2056D01*
Y3968D01*
X2054D01*
Y3967D01*
X2052D01*
Y3966D01*
X2051D01*
Y3965D01*
X2049D01*
Y3964D01*
X2048D01*
Y3963D01*
X2047D01*
Y3961D01*
X2046D01*
Y3960D01*
X2044D01*
Y3959D01*
X2043D01*
Y3957D01*
X2042D01*
Y3956D01*
Y3955D01*
X2041D01*
Y3954D01*
X2040D01*
Y3951D01*
X2039D01*
Y3949D01*
X2038D01*
Y3947D01*
X2037D01*
Y3945D01*
X2036D01*
Y3943D01*
X2035D01*
Y3940D01*
X2034D01*
Y3937D01*
X2033D01*
Y3934D01*
X2032D01*
Y3932D01*
X2031D01*
Y3930D01*
X2030D01*
Y3927D01*
X2029D01*
Y3925D01*
X2028D01*
Y3923D01*
X2027D01*
Y3920D01*
X2026D01*
Y3918D01*
X2025D01*
Y3916D01*
X2024D01*
Y3914D01*
X2023D01*
Y3912D01*
X2022D01*
Y3910D01*
X2021D01*
Y3908D01*
X2020D01*
Y3907D01*
X2019D01*
Y3905D01*
X2018D01*
Y3904D01*
X2017D01*
Y3903D01*
X2016D01*
Y3901D01*
X2015D01*
Y3900D01*
X2014D01*
Y3899D01*
X2013D01*
Y3898D01*
X2012D01*
Y3897D01*
X2011D01*
Y3896D01*
X2009D01*
Y3895D01*
X2008D01*
Y3894D01*
X2007D01*
Y3893D01*
X2005D01*
Y3892D01*
X2003D01*
Y3891D01*
X2001D01*
Y3890D01*
X1998D01*
Y3889D01*
X1996D01*
Y3888D01*
X1990D01*
Y3887D01*
X1978D01*
Y3888D01*
X1973D01*
Y3889D01*
X1970D01*
Y3890D01*
X1967D01*
Y3891D01*
X1965D01*
Y3892D01*
X1963D01*
Y3893D01*
X1961D01*
Y3894D01*
X1960D01*
Y3895D01*
X1958D01*
Y3896D01*
X1957D01*
Y3897D01*
X1956D01*
Y3898D01*
X1955D01*
Y3899D01*
X1954D01*
Y3900D01*
X1953D01*
Y3901D01*
X1952D01*
Y3902D01*
X1951D01*
Y3903D01*
X1950D01*
Y3904D01*
X1949D01*
Y3905D01*
X1948D01*
Y3907D01*
X1947D01*
Y3908D01*
X1946D01*
Y3910D01*
X1945D01*
Y3912D01*
X1944D01*
Y3914D01*
X1943D01*
Y3916D01*
X1942D01*
Y3919D01*
X1941D01*
Y3923D01*
X1940D01*
Y3926D01*
X1939D01*
Y3934D01*
X1938D01*
Y3951D01*
X1939D01*
Y3958D01*
X1940D01*
Y3962D01*
X1941D01*
Y3966D01*
X1942D01*
Y3969D01*
X1943D01*
Y3971D01*
X1944D01*
Y3974D01*
X1945D01*
Y3976D01*
X1946D01*
Y3978D01*
X1947D01*
Y3979D01*
X1948D01*
Y3981D01*
X1949D01*
Y3983D01*
X1950D01*
Y3985D01*
X1951D01*
Y3986D01*
X1952D01*
Y3987D01*
X1953D01*
Y3989D01*
X1954D01*
Y3990D01*
X1955D01*
Y3991D01*
X1956D01*
Y3993D01*
X1957D01*
Y3994D01*
X1958D01*
Y3995D01*
X1959D01*
Y3996D01*
X1960D01*
Y3997D01*
X1961D01*
Y3998D01*
X1963D01*
Y3997D01*
D02*
G37*
G36*
X1879Y3922D02*
X1884D01*
Y3921D01*
X1887D01*
Y3920D01*
X1890D01*
Y3919D01*
X1891D01*
Y3918D01*
X1893D01*
Y3917D01*
X1894D01*
Y3916D01*
X1895D01*
Y3915D01*
X1896D01*
Y3914D01*
X1897D01*
Y3913D01*
X1898D01*
Y3912D01*
X1899D01*
Y3911D01*
X1900D01*
Y3909D01*
X1901D01*
Y3907D01*
X1902D01*
Y3905D01*
X1903D01*
Y3902D01*
X1904D01*
Y3897D01*
X1905D01*
Y3893D01*
X1904D01*
Y3888D01*
X1903D01*
Y3885D01*
X1902D01*
Y3882D01*
X1901D01*
Y3881D01*
X1900D01*
Y3879D01*
X1899D01*
Y3878D01*
X1898D01*
Y3877D01*
X1897D01*
Y3876D01*
X1896D01*
Y3875D01*
X1895D01*
Y3874D01*
X1893D01*
Y3875D01*
X1892D01*
Y3876D01*
X1891D01*
Y3877D01*
X1890D01*
Y3880D01*
X1891D01*
Y3881D01*
X1892D01*
Y3882D01*
X1893D01*
Y3883D01*
X1894D01*
Y3884D01*
X1895D01*
Y3886D01*
X1896D01*
Y3888D01*
X1897D01*
Y3892D01*
X1898D01*
Y3898D01*
X1897D01*
Y3902D01*
X1896D01*
Y3904D01*
X1895D01*
Y3906D01*
X1894D01*
Y3907D01*
X1893D01*
Y3908D01*
X1892D01*
Y3910D01*
X1890D01*
Y3911D01*
X1889D01*
Y3912D01*
X1887D01*
Y3913D01*
X1886D01*
Y3914D01*
X1883D01*
Y3915D01*
X1871D01*
Y3914D01*
X1869D01*
Y3913D01*
X1867D01*
Y3912D01*
X1865D01*
Y3911D01*
X1863D01*
Y3910D01*
X1862D01*
Y3909D01*
X1861D01*
Y3908D01*
X1860D01*
Y3906D01*
X1859D01*
Y3905D01*
X1858D01*
Y3903D01*
X1857D01*
Y3900D01*
X1856D01*
Y3892D01*
X1857D01*
Y3889D01*
X1858D01*
Y3887D01*
X1859D01*
Y3885D01*
X1860D01*
Y3884D01*
X1861D01*
Y3883D01*
X1862D01*
Y3882D01*
X1863D01*
Y3881D01*
X1865D01*
Y3880D01*
X1867D01*
Y3879D01*
X1871D01*
Y3892D01*
X1877D01*
Y3870D01*
X1876D01*
Y3871D01*
X1868D01*
Y3872D01*
X1865D01*
Y3873D01*
X1862D01*
Y3874D01*
X1861D01*
Y3875D01*
X1859D01*
Y3876D01*
X1858D01*
Y3877D01*
X1857D01*
Y3878D01*
X1856D01*
Y3879D01*
X1855D01*
Y3880D01*
X1854D01*
Y3881D01*
X1853D01*
Y3883D01*
X1852D01*
Y3885D01*
X1851D01*
Y3887D01*
X1850D01*
Y3891D01*
X1849D01*
Y3900D01*
X1850D01*
Y3904D01*
X1851D01*
Y3906D01*
X1852D01*
Y3908D01*
X1853D01*
Y3910D01*
X1854D01*
Y3912D01*
X1855D01*
Y3913D01*
X1856D01*
Y3914D01*
X1857D01*
Y3915D01*
X1858D01*
Y3916D01*
X1859D01*
Y3917D01*
X1861D01*
Y3918D01*
X1862D01*
Y3919D01*
X1864D01*
Y3920D01*
X1866D01*
Y3921D01*
X1869D01*
Y3922D01*
X1875D01*
Y3923D01*
X1879D01*
Y3922D01*
D02*
G37*
G36*
X1903Y3859D02*
X1904D01*
Y3858D01*
X1903D01*
Y3852D01*
X1850D01*
Y3859D01*
X1851D01*
Y3860D01*
X1903D01*
Y3859D01*
D02*
G37*
G36*
Y3812D02*
X1904D01*
Y3810D01*
X1903D01*
Y3809D01*
X1897D01*
Y3810D01*
X1896D01*
Y3812D01*
X1897D01*
Y3813D01*
X1896D01*
Y3814D01*
X1897D01*
Y3820D01*
X1896D01*
Y3822D01*
X1850D01*
Y3830D01*
X1896D01*
Y3831D01*
X1897D01*
Y3839D01*
X1896D01*
Y3840D01*
X1897D01*
Y3841D01*
X1896D01*
Y3842D01*
X1897D01*
Y3843D01*
X1903D01*
Y3812D01*
D02*
G37*
G36*
X2101Y3778D02*
X2083D01*
Y3850D01*
X2025D01*
Y3804D01*
Y3803D01*
Y3789D01*
X2007D01*
Y3850D01*
X1959D01*
Y3776D01*
X1941D01*
Y3871D01*
X2101D01*
Y3778D01*
D02*
G37*
G36*
X1852Y3810D02*
X1853D01*
Y3809D01*
X1856D01*
Y3808D01*
X1858D01*
Y3807D01*
X1860D01*
Y3806D01*
X1862D01*
Y3805D01*
X1864D01*
Y3804D01*
X1867D01*
Y3803D01*
X1869D01*
Y3802D01*
X1871D01*
Y3801D01*
X1873D01*
Y3800D01*
X1875D01*
Y3799D01*
X1877D01*
Y3798D01*
X1880D01*
Y3797D01*
X1882D01*
Y3796D01*
X1884D01*
Y3795D01*
X1886D01*
Y3794D01*
X1888D01*
Y3793D01*
X1891D01*
Y3792D01*
X1893D01*
Y3791D01*
X1895D01*
Y3790D01*
X1897D01*
Y3789D01*
X1899D01*
Y3788D01*
X1901D01*
Y3787D01*
X1904D01*
Y3786D01*
X1905D01*
Y3784D01*
X1903D01*
Y3783D01*
X1900D01*
Y3782D01*
X1898D01*
Y3781D01*
X1896D01*
Y3780D01*
X1894D01*
Y3779D01*
X1892D01*
Y3778D01*
X1890D01*
Y3777D01*
X1887D01*
Y3776D01*
X1885D01*
Y3775D01*
X1883D01*
Y3774D01*
X1881D01*
Y3773D01*
X1879D01*
Y3772D01*
X1877D01*
Y3771D01*
X1874D01*
Y3770D01*
X1872D01*
Y3769D01*
X1870D01*
Y3768D01*
X1868D01*
Y3767D01*
X1866D01*
Y3766D01*
X1863D01*
Y3765D01*
X1861D01*
Y3764D01*
X1859D01*
Y3763D01*
X1857D01*
Y3762D01*
X1855D01*
Y3761D01*
X1852D01*
Y3760D01*
X1850D01*
Y3767D01*
X1851D01*
Y3768D01*
X1852D01*
Y3769D01*
X1854D01*
Y3770D01*
X1857D01*
Y3771D01*
X1859D01*
Y3772D01*
X1861D01*
Y3773D01*
X1863D01*
Y3797D01*
X1862D01*
Y3798D01*
X1860D01*
Y3799D01*
X1857D01*
Y3800D01*
X1855D01*
Y3801D01*
X1853D01*
Y3802D01*
X1851D01*
Y3803D01*
X1850D01*
Y3810D01*
X1851D01*
Y3811D01*
X1852D01*
Y3810D01*
D02*
G37*
G36*
X1903Y3750D02*
X1904D01*
Y3749D01*
X1903D01*
Y3745D01*
X1904D01*
Y3744D01*
X1903D01*
Y3743D01*
X1857D01*
Y3727D01*
X1851D01*
Y3728D01*
X1850D01*
Y3751D01*
X1903D01*
Y3750D01*
D02*
G37*
G36*
Y3685D02*
X1904D01*
Y3684D01*
X1903D01*
Y3665D01*
X1904D01*
Y3664D01*
X1903D01*
Y3663D01*
X1897D01*
Y3664D01*
X1896D01*
Y3665D01*
X1897D01*
Y3684D01*
X1896D01*
Y3685D01*
X1895D01*
Y3684D01*
X1880D01*
Y3664D01*
X1877D01*
Y3663D01*
X1876D01*
Y3664D01*
X1873D01*
Y3666D01*
X1874D01*
Y3668D01*
X1873D01*
Y3676D01*
X1874D01*
Y3684D01*
X1873D01*
Y3685D01*
X1872D01*
Y3684D01*
X1857D01*
Y3663D01*
X1850D01*
Y3692D01*
X1903D01*
Y3685D01*
D02*
G37*
G36*
X2100Y3761D02*
X2101D01*
Y3702D01*
X2100D01*
Y3693D01*
X2099D01*
Y3688D01*
X2098D01*
Y3684D01*
X2097D01*
Y3681D01*
X2096D01*
Y3679D01*
X2095D01*
Y3677D01*
X2094D01*
Y3675D01*
X2093D01*
Y3673D01*
X2092D01*
Y3672D01*
X2091D01*
Y3670D01*
X2090D01*
Y3669D01*
X2089D01*
Y3668D01*
X2088D01*
Y3667D01*
X2087D01*
Y3666D01*
X2086D01*
Y3665D01*
X2085D01*
Y3664D01*
X2084D01*
Y3663D01*
X2083D01*
Y3662D01*
X2081D01*
Y3661D01*
X2079D01*
Y3660D01*
X2077D01*
Y3659D01*
X2076D01*
Y3658D01*
X2073D01*
Y3657D01*
X2069D01*
Y3656D01*
X2064D01*
Y3655D01*
X2049D01*
Y3656D01*
X2042D01*
Y3657D01*
X2038D01*
Y3658D01*
X2035D01*
Y3659D01*
X2033D01*
Y3660D01*
X2031D01*
Y3661D01*
X2030D01*
Y3662D01*
X2028D01*
Y3663D01*
X2027D01*
Y3664D01*
X2026D01*
Y3665D01*
X2024D01*
Y3666D01*
X2023D01*
Y3668D01*
X2022D01*
Y3669D01*
X2021D01*
Y3670D01*
X2020D01*
Y3671D01*
X2019D01*
Y3672D01*
X2018D01*
Y3674D01*
X2017D01*
Y3675D01*
X2016D01*
Y3677D01*
X2015D01*
Y3679D01*
X2014D01*
Y3681D01*
X2013D01*
Y3683D01*
X2012D01*
Y3686D01*
X2011D01*
Y3688D01*
X2010D01*
Y3690D01*
X2009D01*
Y3689D01*
X2007D01*
Y3688D01*
X2005D01*
Y3687D01*
X2004D01*
Y3686D01*
X2002D01*
Y3685D01*
X2000D01*
Y3684D01*
X1999D01*
Y3683D01*
X1997D01*
Y3682D01*
X1995D01*
Y3681D01*
X1993D01*
Y3680D01*
X1992D01*
Y3679D01*
X1990D01*
Y3678D01*
X1988D01*
Y3677D01*
X1987D01*
Y3676D01*
X1985D01*
Y3675D01*
X1983D01*
Y3674D01*
X1981D01*
Y3673D01*
X1980D01*
Y3672D01*
X1978D01*
Y3671D01*
X1976D01*
Y3670D01*
X1975D01*
Y3669D01*
X1973D01*
Y3668D01*
X1971D01*
Y3667D01*
X1969D01*
Y3666D01*
X1968D01*
Y3665D01*
X1966D01*
Y3664D01*
X1964D01*
Y3663D01*
X1963D01*
Y3662D01*
X1961D01*
Y3661D01*
X1959D01*
Y3660D01*
X1958D01*
Y3659D01*
X1956D01*
Y3658D01*
X1954D01*
Y3657D01*
X1952D01*
Y3656D01*
X1951D01*
Y3655D01*
X1949D01*
Y3654D01*
X1947D01*
Y3653D01*
X1945D01*
Y3652D01*
X1944D01*
Y3651D01*
X1941D01*
Y3674D01*
X1942D01*
Y3675D01*
X1944D01*
Y3676D01*
X1946D01*
Y3677D01*
X1948D01*
Y3678D01*
X1949D01*
Y3679D01*
X1951D01*
Y3680D01*
X1953D01*
Y3681D01*
X1954D01*
Y3682D01*
X1956D01*
Y3683D01*
X1958D01*
Y3684D01*
X1960D01*
Y3685D01*
X1962D01*
Y3686D01*
X1963D01*
Y3687D01*
X1965D01*
Y3688D01*
X1967D01*
Y3689D01*
X1969D01*
Y3690D01*
X1970D01*
Y3691D01*
X1972D01*
Y3692D01*
X1974D01*
Y3693D01*
X1976D01*
Y3694D01*
X1977D01*
Y3695D01*
X1979D01*
Y3696D01*
X1981D01*
Y3697D01*
X1983D01*
Y3698D01*
X1984D01*
Y3699D01*
X1986D01*
Y3700D01*
X1988D01*
Y3701D01*
X1990D01*
Y3702D01*
X1991D01*
Y3703D01*
X1993D01*
Y3704D01*
X1995D01*
Y3705D01*
X1997D01*
Y3706D01*
X1998D01*
Y3707D01*
X2000D01*
Y3708D01*
X2002D01*
Y3709D01*
X2004D01*
Y3710D01*
X2005D01*
Y3711D01*
X2007D01*
Y3712D01*
X2008D01*
Y3740D01*
X1942D01*
Y3741D01*
X1941D01*
Y3762D01*
X2100D01*
Y3761D01*
D02*
G37*
G36*
X1903Y3645D02*
X1904D01*
Y3643D01*
X1857D01*
Y3627D01*
X1850D01*
Y3650D01*
X1903D01*
Y3645D01*
D02*
G37*
G36*
Y3613D02*
X1904D01*
Y3612D01*
X1903D01*
Y3588D01*
X1897D01*
Y3589D01*
X1896D01*
Y3590D01*
X1897D01*
Y3591D01*
X1896D01*
Y3592D01*
Y3593D01*
X1897D01*
Y3604D01*
X1896D01*
Y3606D01*
X1897D01*
Y3608D01*
X1896D01*
Y3610D01*
X1895D01*
Y3611D01*
X1894D01*
Y3610D01*
X1880D01*
Y3588D01*
X1879D01*
Y3589D01*
X1878D01*
Y3588D01*
X1877D01*
Y3589D01*
X1875D01*
Y3588D01*
X1874D01*
Y3589D01*
X1873D01*
Y3592D01*
X1874D01*
Y3593D01*
X1873D01*
Y3608D01*
X1874D01*
Y3610D01*
X1873D01*
Y3611D01*
X1871D01*
Y3610D01*
X1868D01*
Y3611D01*
X1867D01*
Y3610D01*
X1859D01*
Y3611D01*
X1858D01*
Y3610D01*
X1857D01*
Y3588D01*
X1850D01*
Y3617D01*
X1851D01*
Y3618D01*
X1903D01*
Y3613D01*
D02*
G37*
G36*
X1882Y3577D02*
X1886D01*
Y3576D01*
X1888D01*
Y3575D01*
X1890D01*
Y3574D01*
X1892D01*
Y3573D01*
X1893D01*
Y3572D01*
X1895D01*
Y3571D01*
X1896D01*
Y3570D01*
X1897D01*
Y3568D01*
X1898D01*
Y3567D01*
X1899D01*
Y3566D01*
X1900D01*
Y3564D01*
X1901D01*
Y3562D01*
X1902D01*
Y3560D01*
X1903D01*
Y3557D01*
X1904D01*
Y3551D01*
X1905D01*
Y3547D01*
X1904D01*
Y3543D01*
X1903D01*
Y3539D01*
X1902D01*
Y3537D01*
X1901D01*
Y3536D01*
X1893D01*
Y3538D01*
X1894D01*
Y3539D01*
X1895D01*
Y3541D01*
X1896D01*
Y3544D01*
X1897D01*
Y3547D01*
X1898D01*
Y3553D01*
X1897D01*
Y3557D01*
X1896D01*
Y3560D01*
X1895D01*
Y3561D01*
X1894D01*
Y3563D01*
X1893D01*
Y3564D01*
X1892D01*
Y3565D01*
X1891D01*
Y3566D01*
X1890D01*
Y3567D01*
X1888D01*
Y3568D01*
X1886D01*
Y3569D01*
X1884D01*
Y3570D01*
X1880D01*
Y3571D01*
X1874D01*
Y3570D01*
X1870D01*
Y3569D01*
X1867D01*
Y3568D01*
X1866D01*
Y3567D01*
X1864D01*
Y3566D01*
X1863D01*
Y3565D01*
X1862D01*
Y3564D01*
X1861D01*
Y3563D01*
X1860D01*
Y3562D01*
X1859D01*
Y3560D01*
X1858D01*
Y3558D01*
X1857D01*
Y3555D01*
X1856D01*
Y3546D01*
X1857D01*
Y3543D01*
X1858D01*
Y3541D01*
X1859D01*
Y3539D01*
X1860D01*
Y3538D01*
X1861D01*
Y3536D01*
X1853D01*
Y3537D01*
X1852D01*
Y3539D01*
X1851D01*
Y3542D01*
X1850D01*
Y3547D01*
X1849D01*
Y3555D01*
X1850D01*
Y3559D01*
X1851D01*
Y3561D01*
X1852D01*
Y3564D01*
X1853D01*
Y3565D01*
X1854D01*
Y3567D01*
X1855D01*
Y3568D01*
X1856D01*
Y3569D01*
X1857D01*
Y3570D01*
X1858D01*
Y3571D01*
X1859D01*
Y3572D01*
X1860D01*
Y3573D01*
X1862D01*
Y3574D01*
X1863D01*
Y3575D01*
X1865D01*
Y3576D01*
X1868D01*
Y3577D01*
X1871D01*
Y3578D01*
X1882D01*
Y3577D01*
D02*
G37*
G36*
X2101Y3633D02*
X2099D01*
Y3632D01*
X2096D01*
Y3631D01*
X2094D01*
Y3630D01*
X2092D01*
Y3629D01*
X2090D01*
Y3628D01*
X2087D01*
Y3627D01*
X2085D01*
Y3626D01*
X2083D01*
Y3625D01*
X2080D01*
Y3624D01*
X2078D01*
Y3623D01*
X2075D01*
Y3622D01*
X2073D01*
Y3621D01*
X2071D01*
Y3620D01*
X2068D01*
Y3619D01*
X2066D01*
Y3618D01*
X2064D01*
Y3617D01*
X2061D01*
Y3616D01*
X2059D01*
Y3615D01*
X2056D01*
Y3614D01*
X2054D01*
Y3613D01*
X2052D01*
Y3612D01*
X2049D01*
Y3611D01*
X2047D01*
Y3610D01*
X2044D01*
Y3609D01*
X2041D01*
Y3608D01*
X2039D01*
Y3606D01*
X2036D01*
Y3605D01*
X2034D01*
Y3604D01*
X2032D01*
Y3603D01*
X2030D01*
Y3602D01*
X2027D01*
Y3601D01*
X2025D01*
Y3600D01*
X2022D01*
Y3599D01*
X2020D01*
Y3598D01*
X2018D01*
Y3597D01*
X2015D01*
Y3596D01*
X2013D01*
Y3595D01*
X2010D01*
Y3594D01*
X2008D01*
Y3593D01*
X2006D01*
Y3592D01*
X2003D01*
Y3591D01*
X2001D01*
Y3590D01*
X1998D01*
Y3589D01*
X1996D01*
Y3588D01*
X1994D01*
Y3587D01*
X1992D01*
Y3586D01*
X1989D01*
Y3585D01*
X1987D01*
Y3584D01*
X1984D01*
Y3583D01*
X1982D01*
Y3582D01*
X1980D01*
Y3581D01*
X1977D01*
Y3580D01*
X1978D01*
Y3579D01*
X1980D01*
Y3578D01*
X1982D01*
Y3577D01*
X1985D01*
Y3576D01*
X1987D01*
Y3575D01*
X1990D01*
Y3574D01*
X1992D01*
Y3573D01*
X1994D01*
Y3572D01*
X1996D01*
Y3571D01*
X1999D01*
Y3570D01*
X2002D01*
Y3569D01*
X2004D01*
Y3568D01*
X2006D01*
Y3567D01*
X2008D01*
Y3566D01*
X2011D01*
Y3565D01*
X2013D01*
Y3564D01*
X2016D01*
Y3563D01*
X2018D01*
Y3562D01*
X2020D01*
Y3561D01*
X2023D01*
Y3560D01*
X2025D01*
Y3559D01*
X2027D01*
Y3558D01*
X2030D01*
Y3557D01*
X2032D01*
Y3556D01*
X2035D01*
Y3555D01*
X2037D01*
Y3554D01*
X2039D01*
Y3553D01*
X2042D01*
Y3552D01*
X2044D01*
Y3551D01*
X2047D01*
Y3550D01*
X2050D01*
Y3549D01*
X2052D01*
Y3548D01*
X2054D01*
Y3547D01*
X2057D01*
Y3546D01*
X2059D01*
Y3545D01*
X2062D01*
Y3544D01*
X2064D01*
Y3543D01*
X2067D01*
Y3542D01*
X2069D01*
Y3541D01*
X2071D01*
Y3540D01*
X2073D01*
Y3539D01*
X2076D01*
Y3538D01*
X2078D01*
Y3537D01*
X2081D01*
Y3536D01*
X2083D01*
Y3535D01*
X2085D01*
Y3534D01*
X2088D01*
Y3533D01*
X2090D01*
Y3532D01*
X2092D01*
Y3531D01*
X2095D01*
Y3530D01*
X2097D01*
Y3529D01*
X2100D01*
Y3528D01*
X2101D01*
Y3506D01*
X2099D01*
Y3507D01*
X2097D01*
Y3508D01*
X2094D01*
Y3509D01*
X2092D01*
Y3510D01*
X2090D01*
Y3511D01*
X2088D01*
Y3512D01*
X2085D01*
Y3513D01*
X2083D01*
Y3514D01*
X2081D01*
Y3515D01*
X2078D01*
Y3516D01*
X2076D01*
Y3517D01*
X2074D01*
Y3518D01*
X2071D01*
Y3519D01*
X2069D01*
Y3520D01*
X2067D01*
Y3521D01*
X2064D01*
Y3522D01*
X2062D01*
Y3523D01*
X2060D01*
Y3524D01*
X2058D01*
Y3525D01*
X2055D01*
Y3526D01*
X2053D01*
Y3527D01*
X2050D01*
Y3528D01*
X2048D01*
Y3529D01*
X2046D01*
Y3530D01*
X2043D01*
Y3531D01*
X2040D01*
Y3532D01*
X2038D01*
Y3533D01*
X2036D01*
Y3534D01*
X2033D01*
Y3535D01*
X2031D01*
Y3536D01*
X2029D01*
Y3537D01*
X2026D01*
Y3538D01*
X2024D01*
Y3539D01*
X2022D01*
Y3540D01*
X2020D01*
Y3541D01*
X2017D01*
Y3542D01*
X2015D01*
Y3543D01*
X2013D01*
Y3544D01*
X2010D01*
Y3545D01*
X2008D01*
Y3546D01*
X2006D01*
Y3547D01*
X2003D01*
Y3548D01*
X2001D01*
Y3549D01*
X1999D01*
Y3550D01*
X1996D01*
Y3551D01*
X1994D01*
Y3552D01*
X1992D01*
Y3553D01*
X1989D01*
Y3554D01*
X1987D01*
Y3555D01*
X1985D01*
Y3556D01*
X1983D01*
Y3557D01*
X1980D01*
Y3558D01*
X1978D01*
Y3559D01*
X1976D01*
Y3560D01*
X1973D01*
Y3561D01*
X1971D01*
Y3562D01*
X1969D01*
Y3563D01*
X1966D01*
Y3564D01*
X1964D01*
Y3565D01*
X1962D01*
Y3566D01*
X1959D01*
Y3567D01*
X1957D01*
Y3568D01*
X1955D01*
Y3569D01*
X1953D01*
Y3570D01*
X1950D01*
Y3571D01*
X1948D01*
Y3572D01*
X1946D01*
Y3573D01*
X1943D01*
Y3574D01*
X1941D01*
Y3575D01*
X1938D01*
Y3576D01*
X1937D01*
Y3584D01*
X1938D01*
Y3585D01*
X1940D01*
Y3586D01*
X1943D01*
Y3587D01*
X1945D01*
Y3588D01*
X1948D01*
Y3589D01*
X1950D01*
Y3590D01*
X1952D01*
Y3591D01*
X1954D01*
Y3592D01*
X1957D01*
Y3593D01*
X1959D01*
Y3594D01*
X1961D01*
Y3595D01*
X1964D01*
Y3596D01*
X1966D01*
Y3597D01*
X1968D01*
Y3598D01*
X1971D01*
Y3599D01*
X1973D01*
Y3600D01*
X1975D01*
Y3601D01*
X1977D01*
Y3602D01*
X1980D01*
Y3603D01*
X1982D01*
Y3604D01*
X1984D01*
Y3605D01*
X1987D01*
Y3606D01*
X1989D01*
Y3608D01*
X1991D01*
Y3609D01*
X1994D01*
Y3610D01*
X1996D01*
Y3611D01*
X1998D01*
Y3612D01*
X2000D01*
Y3613D01*
X2003D01*
Y3614D01*
X2005D01*
Y3615D01*
X2008D01*
Y3616D01*
X2010D01*
Y3617D01*
X2012D01*
Y3618D01*
X2014D01*
Y3619D01*
X2017D01*
Y3620D01*
X2019D01*
Y3621D01*
X2021D01*
Y3622D01*
X2024D01*
Y3623D01*
X2026D01*
Y3624D01*
X2028D01*
Y3625D01*
X2031D01*
Y3626D01*
X2033D01*
Y3627D01*
X2035D01*
Y3628D01*
X2038D01*
Y3629D01*
X2040D01*
Y3630D01*
X2042D01*
Y3631D01*
X2046D01*
Y3632D01*
X2048D01*
Y3633D01*
X2050D01*
Y3634D01*
X2053D01*
Y3635D01*
X2055D01*
Y3636D01*
X2057D01*
Y3637D01*
X2059D01*
Y3638D01*
X2062D01*
Y3639D01*
X2064D01*
Y3640D01*
X2066D01*
Y3641D01*
X2069D01*
Y3642D01*
X2071D01*
Y3643D01*
X2073D01*
Y3644D01*
X2075D01*
Y3645D01*
X2078D01*
Y3646D01*
X2080D01*
Y3647D01*
X2083D01*
Y3648D01*
X2085D01*
Y3649D01*
X2087D01*
Y3650D01*
X2089D01*
Y3651D01*
X2092D01*
Y3652D01*
X2094D01*
Y3653D01*
X2096D01*
Y3654D01*
X2099D01*
Y3655D01*
X2101D01*
Y3633D01*
D02*
G37*
G36*
X2100Y3499D02*
X2101D01*
Y3410D01*
Y3409D01*
Y3407D01*
X2100D01*
Y3406D01*
X2084D01*
Y3407D01*
X2083D01*
Y3477D01*
X2025D01*
Y3418D01*
X2024D01*
Y3417D01*
X2012D01*
Y3418D01*
X2011D01*
Y3417D01*
X2009D01*
Y3418D01*
X2007D01*
Y3477D01*
X1959D01*
Y3404D01*
X1941D01*
Y3499D01*
X2096D01*
Y3500D01*
X2097D01*
Y3499D01*
X2099D01*
Y3500D01*
X2100D01*
Y3499D01*
D02*
G37*
G36*
X1902Y3528D02*
X1903D01*
Y3495D01*
X1897D01*
Y3508D01*
X1896D01*
Y3509D01*
X1850D01*
Y3516D01*
X1896D01*
Y3517D01*
X1897D01*
Y3518D01*
X1896D01*
Y3519D01*
X1897D01*
Y3520D01*
X1896D01*
Y3521D01*
X1897D01*
Y3524D01*
X1896D01*
Y3525D01*
X1897D01*
Y3527D01*
X1896D01*
Y3528D01*
X1901D01*
Y3529D01*
X1902D01*
Y3528D01*
D02*
G37*
G36*
Y3485D02*
X1903D01*
Y3467D01*
X1902D01*
Y3464D01*
X1901D01*
Y3462D01*
X1900D01*
Y3461D01*
X1899D01*
Y3460D01*
X1898D01*
Y3459D01*
X1897D01*
Y3458D01*
X1895D01*
Y3457D01*
X1892D01*
Y3456D01*
X1884D01*
Y3457D01*
X1881D01*
Y3458D01*
X1880D01*
Y3459D01*
X1878D01*
Y3460D01*
X1877D01*
Y3461D01*
X1876D01*
Y3462D01*
X1875D01*
Y3464D01*
X1874D01*
Y3467D01*
X1873D01*
Y3468D01*
X1872D01*
Y3467D01*
X1871D01*
Y3466D01*
X1869D01*
Y3465D01*
X1868D01*
Y3464D01*
X1867D01*
Y3463D01*
X1865D01*
Y3462D01*
X1864D01*
Y3461D01*
X1862D01*
Y3460D01*
X1861D01*
Y3459D01*
X1860D01*
Y3458D01*
X1858D01*
Y3457D01*
X1857D01*
Y3456D01*
X1856D01*
Y3455D01*
X1854D01*
Y3454D01*
X1853D01*
Y3453D01*
X1850D01*
Y3460D01*
X1851D01*
Y3462D01*
X1853D01*
Y3463D01*
X1854D01*
Y3464D01*
X1856D01*
Y3465D01*
X1857D01*
Y3466D01*
X1859D01*
Y3467D01*
X1860D01*
Y3468D01*
X1862D01*
Y3469D01*
X1863D01*
Y3470D01*
X1864D01*
Y3471D01*
X1866D01*
Y3472D01*
X1867D01*
Y3473D01*
X1869D01*
Y3474D01*
X1870D01*
Y3475D01*
X1872D01*
Y3478D01*
X1850D01*
Y3485D01*
X1851D01*
Y3486D01*
X1867D01*
Y3485D01*
X1868D01*
Y3486D01*
X1876D01*
Y3485D01*
X1877D01*
Y3486D01*
X1891D01*
Y3485D01*
X1901D01*
Y3486D01*
X1902D01*
Y3485D01*
D02*
G37*
G36*
X1903Y3441D02*
X1904D01*
Y3440D01*
X1903D01*
Y3435D01*
X1850D01*
Y3442D01*
X1851D01*
Y3443D01*
X1903D01*
Y3441D01*
D02*
G37*
G36*
X1878Y3423D02*
X1884D01*
Y3422D01*
X1887D01*
Y3421D01*
X1889D01*
Y3420D01*
X1891D01*
Y3419D01*
X1893D01*
Y3418D01*
X1894D01*
Y3417D01*
X1895D01*
Y3416D01*
X1896D01*
Y3415D01*
X1897D01*
Y3414D01*
X1898D01*
Y3413D01*
X1899D01*
Y3412D01*
X1900D01*
Y3410D01*
X1901D01*
Y3408D01*
X1902D01*
Y3406D01*
X1903D01*
Y3403D01*
X1904D01*
Y3396D01*
X1905D01*
Y3393D01*
X1904D01*
Y3388D01*
X1903D01*
Y3384D01*
X1902D01*
Y3382D01*
X1901D01*
Y3381D01*
X1900D01*
Y3380D01*
X1898D01*
Y3381D01*
X1897D01*
Y3380D01*
X1895D01*
Y3381D01*
X1894D01*
Y3380D01*
X1893D01*
Y3383D01*
X1894D01*
Y3384D01*
X1895D01*
Y3387D01*
X1896D01*
Y3389D01*
X1897D01*
Y3393D01*
X1898D01*
Y3399D01*
X1897D01*
Y3403D01*
X1896D01*
Y3405D01*
X1895D01*
Y3407D01*
X1894D01*
Y3408D01*
X1893D01*
Y3409D01*
X1892D01*
Y3410D01*
X1891D01*
Y3411D01*
X1890D01*
Y3412D01*
X1889D01*
Y3413D01*
X1887D01*
Y3414D01*
X1885D01*
Y3415D01*
X1881D01*
Y3416D01*
X1872D01*
Y3415D01*
X1869D01*
Y3414D01*
X1867D01*
Y3413D01*
X1865D01*
Y3412D01*
X1863D01*
Y3411D01*
X1862D01*
Y3410D01*
X1861D01*
Y3408D01*
X1860D01*
Y3407D01*
X1859D01*
Y3406D01*
X1858D01*
Y3404D01*
X1857D01*
Y3400D01*
X1856D01*
Y3391D01*
X1857D01*
Y3388D01*
X1858D01*
Y3386D01*
X1859D01*
Y3384D01*
X1860D01*
Y3382D01*
X1861D01*
Y3380D01*
X1855D01*
Y3381D01*
X1854D01*
Y3380D01*
X1853D01*
Y3382D01*
X1852D01*
Y3384D01*
X1851D01*
Y3387D01*
X1850D01*
Y3392D01*
X1849D01*
Y3400D01*
X1850D01*
Y3404D01*
X1851D01*
Y3407D01*
X1852D01*
Y3409D01*
X1853D01*
Y3411D01*
X1854D01*
Y3412D01*
X1855D01*
Y3414D01*
X1856D01*
Y3415D01*
X1857D01*
Y3416D01*
X1858D01*
Y3417D01*
X1860D01*
Y3418D01*
X1861D01*
Y3419D01*
X1862D01*
Y3420D01*
X1864D01*
Y3421D01*
X1866D01*
Y3422D01*
X1869D01*
Y3423D01*
X1874D01*
Y3424D01*
X1878D01*
Y3423D01*
D02*
G37*
G36*
X1903Y3363D02*
X1904D01*
Y3362D01*
X1903D01*
Y3361D01*
X1850D01*
Y3368D01*
X1903D01*
Y3363D01*
D02*
G37*
G36*
X1900Y3351D02*
X1903D01*
Y3350D01*
X1904D01*
Y3349D01*
X1903D01*
Y3319D01*
X1897D01*
Y3320D01*
X1896D01*
Y3321D01*
X1897D01*
Y3331D01*
X1895D01*
Y3332D01*
X1894D01*
Y3331D01*
X1851D01*
Y3332D01*
X1850D01*
Y3339D01*
X1896D01*
Y3341D01*
X1897D01*
Y3342D01*
X1896D01*
Y3343D01*
X1897D01*
Y3344D01*
X1896D01*
Y3345D01*
X1897D01*
Y3349D01*
X1896D01*
Y3350D01*
X1897D01*
Y3351D01*
X1899D01*
Y3352D01*
X1900D01*
Y3351D01*
D02*
G37*
G36*
X2100Y3389D02*
X2101D01*
Y3329D01*
X2100D01*
Y3321D01*
X2099D01*
Y3315D01*
X2098D01*
Y3312D01*
X2097D01*
Y3309D01*
X2096D01*
Y3307D01*
X2095D01*
Y3304D01*
X2094D01*
Y3303D01*
X2093D01*
Y3301D01*
X2092D01*
Y3299D01*
X2091D01*
Y3298D01*
X2090D01*
Y3297D01*
X2089D01*
Y3295D01*
X2088D01*
Y3294D01*
X2087D01*
Y3293D01*
X2086D01*
Y3292D01*
X2084D01*
Y3291D01*
X2083D01*
Y3290D01*
X2081D01*
Y3289D01*
X2080D01*
Y3288D01*
X2078D01*
Y3287D01*
X2076D01*
Y3286D01*
X2073D01*
Y3285D01*
X2070D01*
Y3284D01*
X2065D01*
Y3283D01*
X2047D01*
Y3284D01*
X2041D01*
Y3285D01*
X2038D01*
Y3286D01*
X2035D01*
Y3287D01*
X2033D01*
Y3288D01*
X2031D01*
Y3289D01*
X2029D01*
Y3290D01*
X2028D01*
Y3291D01*
X2027D01*
Y3292D01*
X2025D01*
Y3293D01*
X2024D01*
Y3294D01*
X2023D01*
Y3295D01*
X2022D01*
Y3296D01*
X2021D01*
Y3297D01*
X2020D01*
Y3299D01*
X2019D01*
Y3300D01*
X2018D01*
Y3301D01*
X2017D01*
Y3303D01*
X2016D01*
Y3304D01*
X2015D01*
Y3306D01*
X2014D01*
Y3308D01*
X2013D01*
Y3311D01*
X2012D01*
Y3313D01*
X2011D01*
Y3316D01*
X2010D01*
Y3318D01*
X2009D01*
Y3317D01*
X2007D01*
Y3316D01*
X2006D01*
Y3315D01*
X2004D01*
Y3314D01*
X2002D01*
Y3313D01*
X2001D01*
Y3312D01*
X1999D01*
Y3311D01*
X1998D01*
Y3310D01*
X1996D01*
Y3309D01*
X1994D01*
Y3308D01*
X1992D01*
Y3307D01*
X1990D01*
Y3306D01*
X1989D01*
Y3305D01*
X1987D01*
Y3304D01*
X1985D01*
Y3303D01*
X1983D01*
Y3302D01*
X1982D01*
Y3301D01*
X1980D01*
Y3300D01*
X1978D01*
Y3299D01*
X1977D01*
Y3298D01*
X1975D01*
Y3297D01*
X1973D01*
Y3296D01*
X1971D01*
Y3295D01*
X1970D01*
Y3294D01*
X1968D01*
Y3293D01*
X1966D01*
Y3292D01*
X1965D01*
Y3291D01*
X1963D01*
Y3290D01*
X1961D01*
Y3289D01*
X1960D01*
Y3288D01*
X1958D01*
Y3287D01*
X1956D01*
Y3286D01*
X1954D01*
Y3285D01*
X1953D01*
Y3284D01*
X1951D01*
Y3283D01*
X1949D01*
Y3282D01*
X1948D01*
Y3281D01*
X1946D01*
Y3280D01*
X1944D01*
Y3279D01*
X1943D01*
Y3278D01*
X1942D01*
Y3279D01*
X1941D01*
Y3302D01*
X1943D01*
Y3303D01*
X1944D01*
Y3304D01*
X1946D01*
Y3305D01*
X1948D01*
Y3306D01*
X1950D01*
Y3307D01*
X1951D01*
Y3308D01*
X1953D01*
Y3309D01*
X1955D01*
Y3310D01*
X1957D01*
Y3311D01*
X1958D01*
Y3312D01*
X1960D01*
Y3313D01*
X1962D01*
Y3314D01*
X1964D01*
Y3315D01*
X1966D01*
Y3316D01*
X1967D01*
Y3317D01*
X1969D01*
Y3318D01*
X1971D01*
Y3319D01*
X1973D01*
Y3320D01*
X1974D01*
Y3321D01*
X1976D01*
Y3322D01*
X1978D01*
Y3323D01*
X1979D01*
Y3324D01*
X1981D01*
Y3325D01*
X1983D01*
Y3326D01*
X1985D01*
Y3327D01*
X1986D01*
Y3328D01*
X1988D01*
Y3329D01*
X1990D01*
Y3330D01*
X1992D01*
Y3331D01*
X1994D01*
Y3332D01*
X1995D01*
Y3333D01*
X1997D01*
Y3334D01*
X1999D01*
Y3335D01*
X2001D01*
Y3336D01*
X2002D01*
Y3337D01*
X2004D01*
Y3338D01*
X2006D01*
Y3339D01*
X2007D01*
Y3340D01*
X2008D01*
Y3367D01*
X1942D01*
Y3368D01*
X1941D01*
Y3389D01*
X1942D01*
Y3390D01*
X2100D01*
Y3389D01*
D02*
G37*
G36*
X1903Y3308D02*
X1904D01*
Y3307D01*
X1903D01*
Y3306D01*
X1902D01*
Y3305D01*
X1900D01*
Y3304D01*
X1898D01*
Y3303D01*
X1896D01*
Y3302D01*
X1895D01*
Y3301D01*
X1893D01*
Y3300D01*
X1891D01*
Y3299D01*
X1889D01*
Y3298D01*
X1888D01*
Y3297D01*
X1886D01*
Y3296D01*
X1884D01*
Y3295D01*
X1882D01*
Y3293D01*
X1884D01*
Y3292D01*
X1886D01*
Y3291D01*
X1887D01*
Y3290D01*
X1889D01*
Y3289D01*
X1891D01*
Y3288D01*
X1893D01*
Y3287D01*
X1894D01*
Y3286D01*
X1896D01*
Y3285D01*
X1898D01*
Y3284D01*
X1899D01*
Y3283D01*
X1901D01*
Y3282D01*
X1903D01*
Y3273D01*
X1901D01*
Y3274D01*
X1899D01*
Y3276D01*
X1897D01*
Y3277D01*
X1895D01*
Y3278D01*
X1894D01*
Y3279D01*
X1892D01*
Y3280D01*
X1890D01*
Y3281D01*
X1889D01*
Y3282D01*
X1887D01*
Y3283D01*
X1885D01*
Y3284D01*
X1883D01*
Y3285D01*
X1882D01*
Y3286D01*
X1880D01*
Y3287D01*
X1878D01*
Y3288D01*
X1876D01*
Y3289D01*
X1875D01*
Y3290D01*
X1851D01*
Y3291D01*
X1850D01*
Y3297D01*
X1851D01*
Y3298D01*
X1875D01*
Y3299D01*
X1877D01*
Y3300D01*
X1878D01*
Y3301D01*
X1880D01*
Y3302D01*
X1882D01*
Y3303D01*
X1884D01*
Y3304D01*
X1885D01*
Y3305D01*
X1887D01*
Y3306D01*
X1889D01*
Y3307D01*
X1890D01*
Y3308D01*
X1892D01*
Y3309D01*
X1894D01*
Y3310D01*
X1896D01*
Y3311D01*
X1897D01*
Y3312D01*
X1899D01*
Y3313D01*
X1901D01*
Y3314D01*
X1903D01*
Y3308D01*
D02*
G37*
G36*
Y3256D02*
X1900D01*
Y3260D01*
X1889D01*
Y3262D01*
X1890D01*
Y3263D01*
X1900D01*
Y3267D01*
X1903D01*
Y3256D01*
D02*
G37*
G36*
Y3250D02*
X1901D01*
Y3249D01*
X1898D01*
Y3248D01*
X1896D01*
Y3247D01*
X1895D01*
Y3246D01*
X1898D01*
Y3245D01*
X1900D01*
Y3244D01*
X1903D01*
Y3240D01*
X1889D01*
Y3242D01*
X1898D01*
Y3243D01*
X1896D01*
Y3244D01*
X1893D01*
Y3245D01*
X1891D01*
Y3246D01*
X1889D01*
Y3248D01*
X1891D01*
Y3249D01*
X1894D01*
Y3250D01*
X1896D01*
Y3251D01*
X1890D01*
Y3252D01*
X1889D01*
Y3254D01*
X1903D01*
Y3250D01*
D02*
G37*
G36*
X1754Y4564D02*
X1747D01*
Y4601D01*
X1727D01*
Y4566D01*
X1719D01*
Y4601D01*
X1698D01*
Y4562D01*
X1690D01*
Y4610D01*
X1754D01*
Y4564D01*
D02*
G37*
G36*
X1833Y4585D02*
X1833Y4584D01*
X1833Y4582D01*
X1833Y4580D01*
X1833Y4578D01*
X1832Y4577D01*
Y4577D01*
X1832Y4576D01*
Y4576D01*
X1832Y4576D01*
X1832Y4575D01*
X1831Y4573D01*
X1831Y4572D01*
X1830Y4570D01*
X1829Y4569D01*
X1828Y4567D01*
X1828Y4567D01*
X1827Y4567D01*
X1827Y4567D01*
X1827Y4566D01*
X1826Y4566D01*
X1825Y4564D01*
X1823Y4563D01*
X1821Y4562D01*
X1819Y4561D01*
X1817Y4560D01*
X1817D01*
X1816Y4560D01*
X1816Y4559D01*
X1816Y4559D01*
X1815Y4559D01*
X1814Y4559D01*
X1813Y4559D01*
X1812Y4558D01*
X1811Y4558D01*
X1810Y4558D01*
X1807Y4557D01*
X1805Y4557D01*
X1801Y4557D01*
X1801D01*
X1801D01*
X1801D01*
X1800D01*
X1800Y4557D01*
X1799D01*
X1797Y4557D01*
X1795Y4558D01*
X1793Y4558D01*
X1791Y4558D01*
X1789Y4559D01*
X1788D01*
X1788Y4559D01*
X1788Y4559D01*
X1788Y4559D01*
X1787Y4559D01*
X1785Y4560D01*
X1784Y4561D01*
X1782Y4561D01*
X1781Y4562D01*
X1779Y4563D01*
X1779Y4563D01*
X1779Y4564D01*
X1778Y4564D01*
X1777Y4565D01*
X1776Y4566D01*
X1775Y4567D01*
X1774Y4568D01*
X1773Y4569D01*
X1773Y4569D01*
X1773Y4570D01*
X1773Y4570D01*
X1772Y4571D01*
X1772Y4572D01*
X1771Y4574D01*
X1771Y4575D01*
X1770Y4577D01*
Y4577D01*
X1770Y4577D01*
X1770Y4577D01*
X1770Y4578D01*
X1770Y4580D01*
X1770Y4581D01*
X1769Y4583D01*
X1769Y4585D01*
X1769Y4587D01*
Y4610D01*
X1833D01*
Y4585D01*
D02*
G37*
G36*
X1644Y4610D02*
X1645D01*
X1646Y4610D01*
X1648Y4610D01*
X1649Y4609D01*
X1651Y4609D01*
X1653Y4609D01*
X1655Y4608D01*
X1657Y4607D01*
X1659Y4606D01*
X1662Y4605D01*
X1664Y4604D01*
X1665Y4603D01*
X1667Y4601D01*
X1667Y4601D01*
X1668Y4601D01*
X1668Y4601D01*
X1669Y4600D01*
X1669Y4599D01*
X1670Y4598D01*
X1671Y4597D01*
X1672Y4595D01*
X1673Y4594D01*
X1673Y4592D01*
X1674Y4590D01*
X1675Y4589D01*
X1675Y4586D01*
X1676Y4584D01*
X1676Y4582D01*
X1676Y4579D01*
Y4579D01*
X1676Y4578D01*
Y4577D01*
X1676Y4576D01*
X1676Y4575D01*
X1676Y4574D01*
X1675Y4572D01*
X1674Y4569D01*
X1673Y4566D01*
X1673Y4565D01*
X1672Y4563D01*
X1672Y4563D01*
X1672Y4563D01*
X1672Y4563D01*
X1671Y4562D01*
X1671Y4562D01*
X1670Y4561D01*
X1669Y4559D01*
X1667Y4558D01*
X1665Y4556D01*
X1663Y4554D01*
X1660Y4553D01*
X1660D01*
X1660Y4552D01*
X1659Y4552D01*
X1659Y4552D01*
X1658Y4552D01*
X1657Y4551D01*
X1656Y4551D01*
X1655Y4551D01*
X1654Y4550D01*
X1653Y4550D01*
X1651Y4550D01*
X1650Y4549D01*
X1646Y4549D01*
X1643Y4549D01*
X1643D01*
X1642D01*
X1642D01*
X1641Y4549D01*
X1640D01*
X1639Y4549D01*
X1638Y4549D01*
X1637Y4549D01*
X1634Y4550D01*
X1631Y4550D01*
X1628Y4551D01*
X1627Y4552D01*
X1626Y4553D01*
X1625D01*
X1625Y4553D01*
X1625Y4553D01*
X1624Y4553D01*
X1624Y4554D01*
X1623Y4554D01*
X1621Y4556D01*
X1619Y4557D01*
X1617Y4559D01*
X1616Y4561D01*
X1614Y4564D01*
Y4564D01*
X1614Y4564D01*
X1614Y4565D01*
X1613Y4565D01*
X1613Y4566D01*
X1613Y4567D01*
X1612Y4567D01*
X1612Y4568D01*
X1612Y4570D01*
X1611Y4571D01*
X1611Y4573D01*
X1610Y4576D01*
X1610Y4579D01*
Y4580D01*
X1610Y4581D01*
Y4582D01*
X1610Y4583D01*
X1610Y4584D01*
X1611Y4585D01*
X1611Y4587D01*
X1612Y4590D01*
X1613Y4593D01*
X1614Y4594D01*
X1614Y4596D01*
X1614Y4596D01*
X1615Y4596D01*
X1615Y4596D01*
X1615Y4597D01*
X1616Y4597D01*
X1616Y4598D01*
X1617Y4600D01*
X1619Y4601D01*
X1621Y4603D01*
X1624Y4605D01*
X1626Y4606D01*
X1626D01*
X1627Y4607D01*
X1627Y4607D01*
X1627Y4607D01*
X1628Y4607D01*
X1629Y4608D01*
X1630Y4608D01*
X1631Y4608D01*
X1632Y4609D01*
X1633Y4609D01*
X1636Y4609D01*
X1639Y4610D01*
X1642Y4610D01*
X1642D01*
X1642D01*
X1643D01*
X1644Y4610D01*
D02*
G37*
G36*
X1754Y4505D02*
X1747D01*
Y4526D01*
X1690D01*
Y4534D01*
X1747D01*
Y4555D01*
X1754D01*
Y4505D01*
D02*
G37*
G36*
X1833Y4500D02*
X1826D01*
Y4521D01*
X1769D01*
Y4529D01*
X1826D01*
Y4550D01*
X1833D01*
Y4500D01*
D02*
G37*
G36*
X1645Y4540D02*
X1646D01*
X1647Y4540D01*
X1648Y4540D01*
X1649Y4540D01*
X1652Y4539D01*
X1655Y4539D01*
X1658Y4538D01*
X1661Y4537D01*
X1661Y4536D01*
X1661Y4536D01*
X1662Y4536D01*
X1662Y4536D01*
X1663Y4535D01*
X1664Y4535D01*
X1665Y4534D01*
X1667Y4532D01*
X1669Y4530D01*
X1671Y4528D01*
X1672Y4526D01*
X1672Y4526D01*
X1673Y4525D01*
X1673Y4525D01*
X1673Y4525D01*
X1673Y4524D01*
X1674Y4523D01*
X1674Y4522D01*
X1674Y4521D01*
X1675Y4520D01*
X1675Y4519D01*
X1676Y4516D01*
X1676Y4513D01*
X1676Y4510D01*
Y4509D01*
X1676Y4509D01*
X1676Y4508D01*
X1676Y4507D01*
X1676Y4506D01*
X1676Y4505D01*
X1675Y4502D01*
X1674Y4499D01*
X1674Y4498D01*
X1673Y4497D01*
X1672Y4495D01*
X1671Y4494D01*
X1671Y4494D01*
X1671Y4494D01*
X1671Y4493D01*
X1670Y4493D01*
X1670Y4492D01*
X1669Y4492D01*
X1669Y4491D01*
X1668Y4490D01*
X1667Y4490D01*
X1666Y4489D01*
X1665Y4488D01*
X1663Y4487D01*
X1662Y4487D01*
X1661Y4486D01*
X1659Y4485D01*
X1658Y4485D01*
X1656Y4493D01*
X1656D01*
X1656Y4493D01*
X1656Y4493D01*
X1657Y4494D01*
X1657Y4494D01*
X1658Y4494D01*
X1659Y4495D01*
X1661Y4496D01*
X1663Y4497D01*
X1664Y4498D01*
X1666Y4500D01*
X1666Y4500D01*
X1666Y4500D01*
X1667Y4501D01*
X1667Y4503D01*
X1668Y4504D01*
X1669Y4506D01*
X1669Y4508D01*
X1669Y4510D01*
Y4511D01*
X1669Y4512D01*
Y4512D01*
X1669Y4513D01*
X1669Y4515D01*
X1668Y4517D01*
X1668Y4519D01*
X1667Y4521D01*
X1665Y4523D01*
Y4523D01*
X1665Y4523D01*
X1665Y4524D01*
X1664Y4524D01*
X1663Y4525D01*
X1662Y4527D01*
X1660Y4528D01*
X1658Y4529D01*
X1656Y4530D01*
X1656D01*
X1656Y4530D01*
X1655Y4530D01*
X1655Y4530D01*
X1654Y4530D01*
X1654Y4530D01*
X1652Y4531D01*
X1650Y4531D01*
X1648Y4531D01*
X1646Y4532D01*
X1644Y4532D01*
X1643D01*
X1643D01*
X1643D01*
X1642D01*
X1642Y4532D01*
X1641D01*
X1640Y4531D01*
X1639Y4531D01*
X1637Y4531D01*
X1634Y4531D01*
X1632Y4530D01*
X1629Y4529D01*
X1629D01*
X1629Y4529D01*
X1629Y4529D01*
X1628Y4529D01*
X1627Y4528D01*
X1626Y4527D01*
X1624Y4526D01*
X1623Y4525D01*
X1621Y4524D01*
X1620Y4522D01*
Y4522D01*
X1620Y4522D01*
X1620Y4521D01*
X1620Y4521D01*
X1620Y4521D01*
X1619Y4520D01*
X1619Y4519D01*
X1618Y4517D01*
X1618Y4515D01*
X1617Y4513D01*
X1617Y4511D01*
Y4510D01*
X1617Y4510D01*
Y4509D01*
X1617Y4509D01*
X1618Y4507D01*
X1618Y4505D01*
X1619Y4503D01*
X1620Y4501D01*
X1621Y4500D01*
X1621Y4499D01*
X1621Y4499D01*
X1621Y4499D01*
X1622Y4499D01*
X1622Y4498D01*
X1622Y4498D01*
X1623Y4497D01*
X1624Y4497D01*
X1624Y4496D01*
X1625Y4496D01*
X1626Y4495D01*
X1627Y4495D01*
X1628Y4494D01*
X1629Y4494D01*
X1631Y4493D01*
X1632Y4493D01*
X1633Y4492D01*
X1631Y4484D01*
X1631D01*
X1631Y4484D01*
X1630Y4484D01*
X1630Y4484D01*
X1629Y4485D01*
X1628Y4485D01*
X1627Y4485D01*
X1625Y4486D01*
X1623Y4487D01*
X1620Y4489D01*
X1619Y4490D01*
X1618Y4491D01*
X1617Y4492D01*
X1615Y4493D01*
X1615Y4493D01*
X1615Y4494D01*
X1615Y4494D01*
X1615Y4495D01*
X1614Y4495D01*
X1614Y4496D01*
X1613Y4497D01*
X1613Y4498D01*
X1612Y4499D01*
X1612Y4501D01*
X1611Y4502D01*
X1611Y4503D01*
X1610Y4505D01*
X1610Y4507D01*
X1610Y4508D01*
X1610Y4510D01*
Y4511D01*
X1610Y4512D01*
Y4513D01*
X1610Y4514D01*
X1610Y4515D01*
X1611Y4516D01*
X1611Y4519D01*
X1612Y4522D01*
X1613Y4525D01*
X1613Y4526D01*
X1614Y4527D01*
X1614Y4527D01*
X1614Y4527D01*
X1615Y4528D01*
X1615Y4528D01*
X1615Y4529D01*
X1616Y4529D01*
X1617Y4530D01*
X1617Y4531D01*
X1618Y4532D01*
X1619Y4532D01*
X1621Y4534D01*
X1624Y4536D01*
X1626Y4537D01*
X1626D01*
X1627Y4537D01*
X1627Y4537D01*
X1628Y4538D01*
X1628Y4538D01*
X1629Y4538D01*
X1630Y4538D01*
X1632Y4539D01*
X1633Y4539D01*
X1634Y4539D01*
X1637Y4540D01*
X1640Y4540D01*
X1644Y4540D01*
X1644D01*
X1644D01*
X1645D01*
X1645Y4540D01*
D02*
G37*
G36*
X1833Y4466D02*
X1833Y4465D01*
Y4465D01*
X1833Y4463D01*
X1833Y4461D01*
X1832Y4459D01*
X1832Y4457D01*
X1831Y4455D01*
Y4455D01*
X1831Y4455D01*
X1831Y4455D01*
X1830Y4454D01*
X1830Y4453D01*
X1829Y4452D01*
X1828Y4451D01*
X1827Y4450D01*
X1825Y4448D01*
X1825Y4448D01*
X1824Y4448D01*
X1824Y4448D01*
X1823Y4447D01*
X1821Y4447D01*
X1820Y4446D01*
X1818Y4446D01*
X1817Y4446D01*
X1817D01*
X1816D01*
X1815Y4446D01*
X1814Y4446D01*
X1813Y4446D01*
X1812Y4447D01*
X1811Y4447D01*
X1809Y4448D01*
X1809Y4448D01*
X1809Y4449D01*
X1808Y4449D01*
X1807Y4450D01*
X1806Y4451D01*
X1805Y4452D01*
X1804Y4453D01*
X1803Y4455D01*
Y4455D01*
X1803Y4455D01*
X1803Y4454D01*
X1803Y4454D01*
X1803Y4453D01*
X1802Y4452D01*
X1801Y4450D01*
X1800Y4449D01*
X1799Y4447D01*
X1797Y4446D01*
X1797Y4446D01*
X1797Y4445D01*
X1796Y4445D01*
X1795Y4444D01*
X1793Y4444D01*
X1792Y4443D01*
X1790Y4443D01*
X1788Y4443D01*
X1788D01*
X1788D01*
X1787D01*
X1786Y4443D01*
X1785Y4443D01*
X1784Y4443D01*
X1782Y4444D01*
X1781Y4444D01*
X1779Y4445D01*
X1779Y4445D01*
X1779Y4445D01*
X1778Y4445D01*
X1777Y4446D01*
X1776Y4447D01*
X1775Y4447D01*
X1774Y4448D01*
X1773Y4449D01*
X1773Y4450D01*
X1773Y4450D01*
X1773Y4451D01*
X1772Y4451D01*
X1772Y4452D01*
X1771Y4454D01*
X1771Y4455D01*
X1770Y4456D01*
Y4457D01*
X1770Y4457D01*
X1770Y4458D01*
X1770Y4459D01*
X1770Y4461D01*
X1769Y4463D01*
X1769Y4464D01*
X1769Y4467D01*
Y4491D01*
X1833D01*
Y4466D01*
D02*
G37*
G36*
X1723Y4478D02*
X1754Y4499D01*
Y4489D01*
X1738Y4478D01*
X1738D01*
X1738Y4478D01*
X1737Y4477D01*
X1737Y4477D01*
X1736Y4477D01*
X1735Y4476D01*
X1734Y4475D01*
X1732Y4474D01*
X1731Y4473D01*
X1730Y4473D01*
X1730Y4473D01*
X1730Y4472D01*
X1731Y4472D01*
X1732Y4471D01*
X1733Y4470D01*
X1734Y4469D01*
X1736Y4469D01*
X1737Y4467D01*
X1754Y4455D01*
Y4445D01*
X1724Y4468D01*
X1690Y4444D01*
Y4454D01*
X1713Y4470D01*
X1713Y4470D01*
X1713Y4471D01*
X1714Y4471D01*
X1714Y4471D01*
X1715Y4472D01*
X1717Y4473D01*
X1717Y4473D01*
X1716Y4473D01*
X1716Y4474D01*
X1715Y4474D01*
X1714Y4475D01*
X1713Y4476D01*
X1712Y4476D01*
X1690Y4492D01*
Y4502D01*
X1723Y4478D01*
D02*
G37*
G36*
X1675Y4427D02*
X1668D01*
Y4448D01*
X1611D01*
Y4457D01*
X1668D01*
Y4478D01*
X1675D01*
Y4427D01*
D02*
G37*
G36*
X1796Y4411D02*
X1788D01*
Y4435D01*
X1796D01*
Y4411D01*
D02*
G37*
G36*
X1710Y4439D02*
X1710D01*
X1711Y4439D01*
X1712Y4439D01*
X1714Y4439D01*
X1716Y4438D01*
X1717Y4437D01*
X1719Y4436D01*
X1719D01*
X1719Y4436D01*
X1720Y4436D01*
X1720Y4435D01*
X1721Y4434D01*
X1722Y4433D01*
X1723Y4431D01*
X1724Y4429D01*
X1725Y4427D01*
Y4427D01*
X1725Y4427D01*
X1725Y4428D01*
X1725Y4428D01*
X1725Y4429D01*
X1726Y4430D01*
X1727Y4431D01*
X1728Y4432D01*
X1729Y4434D01*
X1730Y4435D01*
X1730Y4435D01*
X1730Y4435D01*
X1731Y4435D01*
X1732Y4436D01*
X1733Y4436D01*
X1735Y4436D01*
X1736Y4437D01*
X1738Y4437D01*
X1738D01*
X1738D01*
X1739D01*
X1739Y4437D01*
X1740Y4437D01*
X1740Y4437D01*
X1742Y4436D01*
X1744Y4436D01*
X1746Y4435D01*
X1747Y4434D01*
X1748Y4434D01*
X1749Y4433D01*
X1750Y4432D01*
X1750Y4432D01*
X1750Y4432D01*
X1750Y4431D01*
X1750Y4431D01*
X1751Y4430D01*
X1751Y4430D01*
X1752Y4429D01*
X1752Y4428D01*
X1752Y4427D01*
X1753Y4426D01*
X1753Y4425D01*
X1754Y4424D01*
X1754Y4421D01*
X1754Y4420D01*
X1754Y4419D01*
Y4418D01*
X1754Y4417D01*
X1754Y4416D01*
X1754Y4416D01*
X1754Y4415D01*
X1754Y4414D01*
X1753Y4411D01*
X1752Y4409D01*
X1752Y4408D01*
X1751Y4407D01*
X1750Y4406D01*
X1750Y4405D01*
X1749Y4405D01*
X1749Y4405D01*
X1749Y4405D01*
X1749Y4404D01*
X1748Y4404D01*
X1748Y4403D01*
X1746Y4402D01*
X1744Y4402D01*
X1742Y4401D01*
X1740Y4400D01*
X1739Y4400D01*
X1738Y4400D01*
X1738D01*
X1737D01*
X1737D01*
X1736Y4400D01*
X1735Y4400D01*
X1734Y4400D01*
X1732Y4401D01*
X1731Y4401D01*
X1730Y4402D01*
X1730Y4402D01*
X1729Y4403D01*
X1729Y4403D01*
X1728Y4404D01*
X1727Y4405D01*
X1726Y4406D01*
X1725Y4408D01*
X1725Y4409D01*
Y4409D01*
X1725Y4409D01*
X1725Y4409D01*
X1724Y4408D01*
X1724Y4407D01*
X1723Y4406D01*
X1722Y4405D01*
X1721Y4403D01*
X1720Y4402D01*
X1719Y4400D01*
X1718D01*
X1718Y4400D01*
X1718Y4400D01*
X1717Y4399D01*
X1716Y4399D01*
X1714Y4398D01*
X1712Y4398D01*
X1710Y4397D01*
X1708Y4397D01*
X1708D01*
X1708D01*
X1708D01*
X1707Y4397D01*
X1706Y4397D01*
X1705Y4398D01*
X1705Y4398D01*
X1704Y4398D01*
X1701Y4399D01*
X1700Y4399D01*
X1699Y4400D01*
X1698Y4400D01*
X1697Y4401D01*
X1696Y4402D01*
X1695Y4403D01*
X1694Y4403D01*
X1694Y4403D01*
X1694Y4404D01*
X1694Y4404D01*
X1693Y4405D01*
X1693Y4405D01*
X1692Y4406D01*
X1692Y4407D01*
X1691Y4408D01*
X1691Y4409D01*
X1690Y4411D01*
X1690Y4412D01*
X1690Y4413D01*
X1689Y4415D01*
X1689Y4417D01*
X1689Y4418D01*
Y4419D01*
X1689Y4420D01*
X1689Y4421D01*
X1689Y4422D01*
X1689Y4423D01*
X1690Y4424D01*
X1690Y4426D01*
X1691Y4428D01*
X1691Y4429D01*
X1692Y4430D01*
X1693Y4431D01*
X1694Y4433D01*
X1695Y4434D01*
X1695Y4434D01*
X1695Y4434D01*
X1695Y4434D01*
X1696Y4435D01*
X1696Y4435D01*
X1697Y4436D01*
X1698Y4436D01*
X1698Y4437D01*
X1699Y4437D01*
X1701Y4438D01*
X1703Y4439D01*
X1704Y4439D01*
X1706Y4439D01*
X1707Y4439D01*
X1709Y4439D01*
X1709D01*
X1709D01*
X1709D01*
X1710Y4439D01*
D02*
G37*
G36*
X1771Y4406D02*
X1772Y4405D01*
X1773Y4405D01*
X1774Y4405D01*
X1775Y4405D01*
X1775D01*
X1775Y4405D01*
X1775Y4404D01*
X1776Y4404D01*
X1777Y4404D01*
X1779Y4403D01*
X1780Y4402D01*
X1782Y4401D01*
X1783Y4400D01*
X1783D01*
X1783Y4399D01*
X1784Y4399D01*
X1785Y4398D01*
X1786Y4397D01*
X1787Y4395D01*
X1789Y4394D01*
X1791Y4392D01*
X1793Y4389D01*
X1793Y4389D01*
X1793Y4389D01*
X1794Y4388D01*
X1794Y4388D01*
X1795Y4387D01*
X1796Y4386D01*
X1797Y4385D01*
X1798Y4384D01*
X1800Y4381D01*
X1802Y4379D01*
X1803Y4378D01*
X1804Y4377D01*
X1805Y4376D01*
X1806Y4375D01*
X1806D01*
X1807Y4375D01*
X1807Y4375D01*
X1807Y4375D01*
X1808Y4374D01*
X1809Y4373D01*
X1811Y4373D01*
X1812Y4372D01*
X1814Y4372D01*
X1816Y4371D01*
X1816D01*
X1816D01*
X1817Y4371D01*
X1818Y4372D01*
X1819Y4372D01*
X1820Y4372D01*
X1821Y4373D01*
X1822Y4374D01*
X1824Y4375D01*
X1824Y4375D01*
X1824Y4375D01*
X1825Y4376D01*
X1825Y4377D01*
X1826Y4378D01*
X1827Y4380D01*
X1827Y4382D01*
X1827Y4384D01*
Y4384D01*
X1827Y4384D01*
X1827Y4386D01*
X1827Y4387D01*
X1826Y4388D01*
X1826Y4390D01*
X1825Y4391D01*
X1824Y4393D01*
X1823Y4393D01*
X1823Y4393D01*
X1822Y4394D01*
X1821Y4394D01*
X1820Y4395D01*
X1818Y4396D01*
X1816Y4396D01*
X1814Y4396D01*
X1815Y4404D01*
X1815D01*
X1815Y4404D01*
X1816D01*
X1816Y4404D01*
X1817Y4404D01*
X1818Y4404D01*
X1819Y4403D01*
X1820Y4403D01*
X1822Y4402D01*
X1824Y4401D01*
X1826Y4401D01*
X1827Y4400D01*
X1828Y4399D01*
X1829Y4398D01*
X1829Y4398D01*
X1829Y4398D01*
X1829Y4397D01*
X1829Y4397D01*
X1830Y4396D01*
X1830Y4396D01*
X1831Y4395D01*
X1831Y4394D01*
X1832Y4393D01*
X1832Y4392D01*
X1832Y4391D01*
X1833Y4389D01*
X1833Y4388D01*
X1833Y4387D01*
X1833Y4385D01*
X1833Y4383D01*
Y4382D01*
X1833Y4382D01*
X1833Y4381D01*
X1833Y4380D01*
X1833Y4379D01*
X1833Y4378D01*
X1832Y4376D01*
X1831Y4373D01*
X1831Y4372D01*
X1830Y4371D01*
X1829Y4370D01*
X1828Y4369D01*
X1828Y4369D01*
X1828Y4368D01*
X1828Y4368D01*
X1827Y4368D01*
X1827Y4367D01*
X1826Y4367D01*
X1826Y4367D01*
X1825Y4366D01*
X1823Y4365D01*
X1821Y4364D01*
X1820Y4364D01*
X1818Y4364D01*
X1817Y4363D01*
X1816Y4363D01*
X1816D01*
X1815D01*
X1814Y4363D01*
X1813Y4363D01*
X1812Y4364D01*
X1811Y4364D01*
X1810Y4364D01*
X1808Y4365D01*
X1808Y4365D01*
X1807Y4365D01*
X1807Y4366D01*
X1806Y4366D01*
X1805Y4367D01*
X1803Y4368D01*
X1802Y4369D01*
X1800Y4370D01*
X1800Y4370D01*
X1800Y4371D01*
X1799Y4371D01*
X1799Y4372D01*
X1798Y4372D01*
X1797Y4373D01*
X1797Y4374D01*
X1796Y4375D01*
X1795Y4376D01*
X1794Y4377D01*
X1793Y4378D01*
X1792Y4379D01*
X1790Y4381D01*
X1789Y4382D01*
X1789Y4382D01*
X1789Y4383D01*
X1789Y4383D01*
X1788Y4383D01*
X1788Y4384D01*
X1787Y4385D01*
X1786Y4386D01*
X1784Y4388D01*
X1783Y4389D01*
X1782Y4390D01*
X1781Y4391D01*
X1781Y4391D01*
X1781Y4392D01*
X1781Y4392D01*
X1780Y4392D01*
X1780Y4393D01*
X1779Y4393D01*
X1778Y4394D01*
X1777Y4395D01*
Y4363D01*
X1769D01*
Y4406D01*
X1769D01*
X1770D01*
X1770D01*
X1771Y4406D01*
D02*
G37*
G36*
X1613Y4398D02*
X1614Y4398D01*
X1615Y4398D01*
X1616Y4398D01*
X1617Y4397D01*
X1617D01*
X1617Y4397D01*
X1617Y4397D01*
X1618Y4397D01*
X1619Y4396D01*
X1621Y4395D01*
X1622Y4394D01*
X1624Y4393D01*
X1625Y4392D01*
X1625D01*
X1625Y4392D01*
X1626Y4391D01*
X1627Y4390D01*
X1628Y4389D01*
X1629Y4388D01*
X1631Y4386D01*
X1633Y4384D01*
X1635Y4382D01*
X1635Y4382D01*
X1635Y4381D01*
X1636Y4381D01*
X1636Y4380D01*
X1637Y4379D01*
X1638Y4378D01*
X1639Y4377D01*
X1640Y4376D01*
X1642Y4374D01*
X1644Y4371D01*
X1645Y4370D01*
X1646Y4369D01*
X1647Y4368D01*
X1648Y4368D01*
X1648D01*
X1648Y4367D01*
X1649Y4367D01*
X1649Y4367D01*
X1650Y4366D01*
X1651Y4366D01*
X1653Y4365D01*
X1654Y4364D01*
X1656Y4364D01*
X1658Y4364D01*
X1658D01*
X1658D01*
X1659Y4364D01*
X1659Y4364D01*
X1661Y4364D01*
X1662Y4365D01*
X1663Y4365D01*
X1664Y4366D01*
X1666Y4367D01*
X1666Y4367D01*
X1666Y4368D01*
X1667Y4368D01*
X1667Y4370D01*
X1668Y4371D01*
X1668Y4372D01*
X1669Y4374D01*
X1669Y4376D01*
Y4377D01*
X1669Y4377D01*
X1669Y4378D01*
X1668Y4379D01*
X1668Y4381D01*
X1667Y4382D01*
X1667Y4384D01*
X1666Y4385D01*
X1665Y4385D01*
X1665Y4386D01*
X1664Y4386D01*
X1663Y4387D01*
X1662Y4387D01*
X1660Y4388D01*
X1658Y4388D01*
X1656Y4389D01*
X1657Y4397D01*
X1657D01*
X1657Y4397D01*
X1658D01*
X1658Y4396D01*
X1659Y4396D01*
X1660Y4396D01*
X1661Y4396D01*
X1662Y4395D01*
X1664Y4395D01*
X1666Y4394D01*
X1668Y4393D01*
X1669Y4392D01*
X1670Y4391D01*
X1671Y4390D01*
X1671Y4390D01*
X1671Y4390D01*
X1671Y4390D01*
X1671Y4389D01*
X1672Y4389D01*
X1672Y4388D01*
X1673Y4387D01*
X1673Y4387D01*
X1673Y4386D01*
X1674Y4384D01*
X1674Y4383D01*
X1675Y4382D01*
X1675Y4381D01*
X1675Y4379D01*
X1675Y4377D01*
X1675Y4376D01*
Y4375D01*
X1675Y4374D01*
X1675Y4373D01*
X1675Y4373D01*
X1675Y4372D01*
X1675Y4371D01*
X1674Y4368D01*
X1673Y4366D01*
X1673Y4365D01*
X1672Y4363D01*
X1671Y4362D01*
X1670Y4361D01*
X1670Y4361D01*
X1670Y4361D01*
X1670Y4361D01*
X1669Y4360D01*
X1669Y4360D01*
X1668Y4359D01*
X1668Y4359D01*
X1667Y4358D01*
X1665Y4357D01*
X1663Y4357D01*
X1662Y4356D01*
X1660Y4356D01*
X1659Y4356D01*
X1658Y4356D01*
X1657D01*
X1657D01*
X1656Y4356D01*
X1655Y4356D01*
X1654Y4356D01*
X1653Y4356D01*
X1651Y4357D01*
X1650Y4357D01*
X1650Y4357D01*
X1649Y4358D01*
X1649Y4358D01*
X1648Y4359D01*
X1647Y4359D01*
X1645Y4360D01*
X1644Y4361D01*
X1642Y4363D01*
X1642Y4363D01*
X1641Y4363D01*
X1641Y4364D01*
X1641Y4364D01*
X1640Y4365D01*
X1639Y4366D01*
X1638Y4366D01*
X1638Y4367D01*
X1637Y4368D01*
X1636Y4369D01*
X1635Y4370D01*
X1633Y4372D01*
X1632Y4373D01*
X1631Y4375D01*
X1631Y4375D01*
X1631Y4375D01*
X1630Y4375D01*
X1630Y4376D01*
X1630Y4376D01*
X1629Y4377D01*
X1628Y4378D01*
X1626Y4380D01*
X1625Y4382D01*
X1624Y4383D01*
X1623Y4383D01*
X1623Y4384D01*
X1623Y4384D01*
X1622Y4384D01*
X1622Y4385D01*
X1622Y4385D01*
X1621Y4386D01*
X1620Y4386D01*
X1619Y4387D01*
Y4356D01*
X1611D01*
Y4398D01*
X1611D01*
X1612D01*
X1612D01*
X1613Y4398D01*
D02*
G37*
G36*
X1817Y4349D02*
X1818Y4349D01*
X1818Y4348D01*
X1818Y4348D01*
X1818Y4347D01*
X1819Y4346D01*
X1819Y4345D01*
X1821Y4343D01*
X1822Y4341D01*
X1823Y4339D01*
X1825Y4337D01*
X1825Y4337D01*
X1825Y4337D01*
X1825Y4337D01*
X1826Y4336D01*
X1827Y4336D01*
X1828Y4335D01*
X1829Y4333D01*
X1830Y4332D01*
X1832Y4331D01*
X1833Y4330D01*
Y4325D01*
X1769D01*
Y4333D01*
X1819D01*
X1819Y4333D01*
X1819Y4334D01*
X1818Y4334D01*
X1818Y4335D01*
X1817Y4336D01*
X1816Y4337D01*
X1815Y4339D01*
X1814Y4341D01*
Y4341D01*
X1814Y4341D01*
X1813Y4341D01*
X1813Y4342D01*
X1812Y4343D01*
X1812Y4345D01*
X1811Y4346D01*
X1810Y4347D01*
X1810Y4349D01*
X1817D01*
Y4349D01*
D02*
G37*
G36*
X1754Y4335D02*
X1754Y4334D01*
X1754Y4332D01*
X1754Y4331D01*
X1754Y4329D01*
X1754Y4328D01*
Y4327D01*
X1753Y4327D01*
X1753Y4326D01*
X1753Y4325D01*
X1752Y4324D01*
X1752Y4322D01*
X1751Y4321D01*
X1750Y4320D01*
X1750Y4320D01*
X1750Y4319D01*
X1750Y4319D01*
X1749Y4318D01*
X1748Y4317D01*
X1747Y4316D01*
X1746Y4315D01*
X1744Y4315D01*
X1744Y4314D01*
X1744Y4314D01*
X1743Y4314D01*
X1742Y4314D01*
X1740Y4313D01*
X1739Y4313D01*
X1737Y4313D01*
X1736Y4313D01*
X1735D01*
X1735D01*
X1735D01*
X1734Y4313D01*
X1734Y4313D01*
X1733Y4313D01*
X1732Y4313D01*
X1731Y4313D01*
X1729Y4314D01*
X1728Y4314D01*
X1726Y4315D01*
X1725Y4315D01*
X1724Y4316D01*
X1723Y4317D01*
X1722Y4318D01*
X1722Y4318D01*
X1722Y4318D01*
X1721Y4318D01*
X1721Y4319D01*
X1720Y4319D01*
X1720Y4320D01*
X1719Y4321D01*
X1719Y4322D01*
X1718Y4323D01*
X1718Y4325D01*
X1717Y4326D01*
X1717Y4328D01*
X1717Y4330D01*
X1716Y4332D01*
X1716Y4334D01*
X1716Y4337D01*
Y4353D01*
X1690D01*
Y4361D01*
X1754D01*
Y4335D01*
D02*
G37*
G36*
X1646Y4347D02*
X1647D01*
X1648Y4347D01*
X1649Y4347D01*
X1652Y4347D01*
X1655Y4346D01*
X1658Y4346D01*
X1660Y4345D01*
X1661Y4345D01*
X1661D01*
X1661Y4345D01*
X1662Y4345D01*
X1662Y4344D01*
X1663Y4344D01*
X1663Y4344D01*
X1665Y4343D01*
X1667Y4342D01*
X1668Y4341D01*
X1670Y4340D01*
X1672Y4338D01*
Y4338D01*
X1672Y4338D01*
X1672Y4337D01*
X1672Y4337D01*
X1673Y4337D01*
X1673Y4336D01*
X1674Y4335D01*
X1674Y4333D01*
X1675Y4331D01*
X1675Y4329D01*
X1675Y4326D01*
Y4325D01*
X1675Y4324D01*
X1675Y4323D01*
X1675Y4322D01*
X1674Y4320D01*
X1674Y4319D01*
X1673Y4317D01*
Y4317D01*
X1673Y4317D01*
X1673Y4317D01*
X1672Y4316D01*
X1672Y4315D01*
X1671Y4314D01*
X1670Y4313D01*
X1669Y4312D01*
X1667Y4311D01*
X1667Y4311D01*
X1667Y4310D01*
X1666Y4310D01*
X1665Y4309D01*
X1663Y4309D01*
X1662Y4308D01*
X1660Y4307D01*
X1658Y4307D01*
X1658D01*
X1657Y4307D01*
X1657Y4307D01*
X1657Y4307D01*
X1656Y4307D01*
X1656Y4306D01*
X1655Y4306D01*
X1654Y4306D01*
X1653Y4306D01*
X1652Y4306D01*
X1650Y4306D01*
X1649Y4306D01*
X1648Y4305D01*
X1646D01*
X1644Y4305D01*
X1643D01*
X1643D01*
X1642D01*
X1642D01*
X1641D01*
X1640Y4305D01*
X1639D01*
X1637Y4306D01*
X1636Y4306D01*
X1633Y4306D01*
X1630Y4306D01*
X1627Y4307D01*
X1626Y4307D01*
X1624Y4308D01*
X1624D01*
X1624Y4308D01*
X1624Y4308D01*
X1623Y4308D01*
X1623Y4308D01*
X1622Y4309D01*
X1620Y4310D01*
X1619Y4310D01*
X1617Y4312D01*
X1615Y4313D01*
X1614Y4315D01*
Y4315D01*
X1614Y4315D01*
X1613Y4315D01*
X1613Y4316D01*
X1613Y4316D01*
X1612Y4316D01*
X1612Y4318D01*
X1611Y4320D01*
X1611Y4321D01*
X1610Y4324D01*
X1610Y4326D01*
Y4327D01*
X1610Y4328D01*
X1610Y4329D01*
X1610Y4330D01*
X1611Y4331D01*
X1611Y4332D01*
X1611Y4333D01*
X1612Y4334D01*
X1612Y4335D01*
X1613Y4336D01*
X1614Y4338D01*
X1614Y4339D01*
X1615Y4340D01*
X1617Y4341D01*
X1617Y4341D01*
X1617Y4341D01*
X1617Y4341D01*
X1618Y4342D01*
X1619Y4342D01*
X1620Y4343D01*
X1621Y4344D01*
X1623Y4344D01*
X1625Y4345D01*
X1626Y4345D01*
X1629Y4346D01*
X1631Y4346D01*
X1634Y4347D01*
X1636Y4347D01*
X1639Y4347D01*
X1643Y4347D01*
X1643D01*
X1643D01*
X1644D01*
X1645D01*
X1646Y4347D01*
D02*
G37*
G36*
X1789Y4305D02*
X1789D01*
X1790Y4305D01*
X1791Y4305D01*
X1793Y4304D01*
X1795Y4304D01*
X1796Y4303D01*
X1798Y4302D01*
X1798D01*
X1798Y4302D01*
X1799Y4301D01*
X1799Y4301D01*
X1800Y4300D01*
X1801Y4298D01*
X1802Y4297D01*
X1803Y4295D01*
X1804Y4293D01*
Y4293D01*
X1804Y4293D01*
X1804Y4293D01*
X1804Y4294D01*
X1805Y4295D01*
X1805Y4296D01*
X1806Y4297D01*
X1807Y4298D01*
X1808Y4299D01*
X1809Y4300D01*
X1809Y4300D01*
X1809Y4301D01*
X1810Y4301D01*
X1811Y4301D01*
X1812Y4302D01*
X1814Y4302D01*
X1815Y4302D01*
X1817Y4303D01*
X1817D01*
X1817D01*
X1818D01*
X1818Y4302D01*
X1819Y4302D01*
X1819Y4302D01*
X1821Y4302D01*
X1823Y4301D01*
X1825Y4300D01*
X1826Y4300D01*
X1827Y4299D01*
X1828Y4298D01*
X1829Y4298D01*
X1829Y4297D01*
X1829Y4297D01*
X1829Y4297D01*
X1829Y4297D01*
X1830Y4296D01*
X1830Y4295D01*
X1831Y4295D01*
X1831Y4294D01*
X1832Y4293D01*
X1832Y4292D01*
X1832Y4291D01*
X1833Y4290D01*
X1833Y4287D01*
X1833Y4286D01*
X1833Y4284D01*
Y4283D01*
X1833Y4283D01*
X1833Y4282D01*
X1833Y4281D01*
X1833Y4280D01*
X1833Y4279D01*
X1832Y4277D01*
X1831Y4275D01*
X1831Y4274D01*
X1830Y4273D01*
X1829Y4272D01*
X1829Y4271D01*
X1828Y4271D01*
X1828Y4271D01*
X1828Y4270D01*
X1828Y4270D01*
X1827Y4270D01*
X1827Y4269D01*
X1825Y4268D01*
X1823Y4267D01*
X1821Y4266D01*
X1819Y4266D01*
X1818Y4266D01*
X1817Y4266D01*
X1817D01*
X1816D01*
X1816D01*
X1815Y4266D01*
X1814Y4266D01*
X1813Y4266D01*
X1811Y4267D01*
X1810Y4267D01*
X1809Y4268D01*
X1809Y4268D01*
X1808Y4268D01*
X1808Y4269D01*
X1807Y4270D01*
X1806Y4271D01*
X1805Y4272D01*
X1805Y4273D01*
X1804Y4275D01*
Y4275D01*
X1804Y4275D01*
X1804Y4274D01*
X1803Y4274D01*
X1803Y4273D01*
X1802Y4272D01*
X1801Y4270D01*
X1800Y4269D01*
X1799Y4267D01*
X1798Y4266D01*
X1797D01*
X1797Y4266D01*
X1797Y4266D01*
X1796Y4265D01*
X1795Y4265D01*
X1793Y4264D01*
X1791Y4263D01*
X1790Y4263D01*
X1787Y4263D01*
X1787D01*
X1787D01*
X1787D01*
X1786Y4263D01*
X1785Y4263D01*
X1785Y4263D01*
X1784Y4263D01*
X1783Y4264D01*
X1780Y4264D01*
X1779Y4265D01*
X1778Y4265D01*
X1777Y4266D01*
X1776Y4267D01*
X1775Y4268D01*
X1774Y4269D01*
X1774Y4269D01*
X1773Y4269D01*
X1773Y4269D01*
X1773Y4270D01*
X1772Y4270D01*
X1772Y4271D01*
X1771Y4272D01*
X1771Y4273D01*
X1770Y4274D01*
X1770Y4275D01*
X1769Y4276D01*
X1769Y4278D01*
X1769Y4279D01*
X1768Y4281D01*
X1768Y4282D01*
X1768Y4284D01*
Y4285D01*
X1768Y4286D01*
X1768Y4286D01*
X1768Y4287D01*
X1769Y4288D01*
X1769Y4289D01*
X1769Y4292D01*
X1770Y4293D01*
X1770Y4294D01*
X1771Y4296D01*
X1772Y4297D01*
X1773Y4298D01*
X1774Y4299D01*
X1774Y4299D01*
X1774Y4300D01*
X1774Y4300D01*
X1775Y4300D01*
X1775Y4301D01*
X1776Y4301D01*
X1777Y4302D01*
X1777Y4302D01*
X1778Y4303D01*
X1780Y4303D01*
X1782Y4304D01*
X1783Y4305D01*
X1785Y4305D01*
X1786Y4305D01*
X1788Y4305D01*
X1788D01*
X1788D01*
X1788D01*
X1789Y4305D01*
D02*
G37*
G36*
X1613Y4298D02*
X1614Y4298D01*
X1615Y4298D01*
X1616Y4298D01*
X1617Y4298D01*
X1617D01*
X1617Y4298D01*
X1617Y4297D01*
X1618Y4297D01*
X1619Y4296D01*
X1621Y4296D01*
X1622Y4295D01*
X1624Y4294D01*
X1625Y4292D01*
X1625D01*
X1625Y4292D01*
X1626Y4292D01*
X1627Y4291D01*
X1628Y4290D01*
X1629Y4288D01*
X1631Y4287D01*
X1633Y4284D01*
X1635Y4282D01*
X1635Y4282D01*
X1635Y4282D01*
X1636Y4281D01*
X1636Y4281D01*
X1637Y4280D01*
X1638Y4279D01*
X1639Y4278D01*
X1640Y4276D01*
X1642Y4274D01*
X1644Y4272D01*
X1645Y4271D01*
X1646Y4270D01*
X1647Y4269D01*
X1648Y4268D01*
X1648D01*
X1648Y4268D01*
X1649Y4268D01*
X1649Y4267D01*
X1650Y4267D01*
X1651Y4266D01*
X1653Y4265D01*
X1654Y4265D01*
X1656Y4264D01*
X1658Y4264D01*
X1658D01*
X1658D01*
X1659Y4264D01*
X1659Y4264D01*
X1661Y4265D01*
X1662Y4265D01*
X1663Y4266D01*
X1664Y4267D01*
X1666Y4268D01*
X1666Y4268D01*
X1666Y4268D01*
X1667Y4269D01*
X1667Y4270D01*
X1668Y4271D01*
X1668Y4273D01*
X1669Y4275D01*
X1669Y4276D01*
Y4277D01*
X1669Y4277D01*
X1669Y4278D01*
X1668Y4280D01*
X1668Y4281D01*
X1667Y4283D01*
X1667Y4284D01*
X1666Y4286D01*
X1665Y4286D01*
X1665Y4286D01*
X1664Y4287D01*
X1663Y4287D01*
X1662Y4288D01*
X1660Y4288D01*
X1658Y4289D01*
X1656Y4289D01*
X1657Y4297D01*
X1657D01*
X1657Y4297D01*
X1658D01*
X1658Y4297D01*
X1659Y4297D01*
X1660Y4297D01*
X1661Y4296D01*
X1662Y4296D01*
X1664Y4295D01*
X1666Y4294D01*
X1668Y4293D01*
X1669Y4293D01*
X1670Y4292D01*
X1671Y4291D01*
X1671Y4291D01*
X1671Y4291D01*
X1671Y4290D01*
X1671Y4290D01*
X1672Y4289D01*
X1672Y4289D01*
X1673Y4288D01*
X1673Y4287D01*
X1673Y4286D01*
X1674Y4285D01*
X1674Y4284D01*
X1675Y4282D01*
X1675Y4281D01*
X1675Y4279D01*
X1675Y4278D01*
X1675Y4276D01*
Y4275D01*
X1675Y4275D01*
X1675Y4274D01*
X1675Y4273D01*
X1675Y4272D01*
X1675Y4271D01*
X1674Y4269D01*
X1673Y4266D01*
X1673Y4265D01*
X1672Y4264D01*
X1671Y4263D01*
X1670Y4262D01*
X1670Y4262D01*
X1670Y4261D01*
X1670Y4261D01*
X1669Y4261D01*
X1669Y4260D01*
X1668Y4260D01*
X1668Y4259D01*
X1667Y4259D01*
X1665Y4258D01*
X1663Y4257D01*
X1662Y4257D01*
X1660Y4256D01*
X1659Y4256D01*
X1658Y4256D01*
X1657D01*
X1657D01*
X1656Y4256D01*
X1655Y4256D01*
X1654Y4257D01*
X1653Y4257D01*
X1651Y4257D01*
X1650Y4258D01*
X1650Y4258D01*
X1649Y4258D01*
X1649Y4259D01*
X1648Y4259D01*
X1647Y4260D01*
X1645Y4261D01*
X1644Y4262D01*
X1642Y4263D01*
X1642Y4263D01*
X1641Y4264D01*
X1641Y4264D01*
X1641Y4265D01*
X1640Y4265D01*
X1639Y4266D01*
X1638Y4267D01*
X1638Y4268D01*
X1637Y4269D01*
X1636Y4270D01*
X1635Y4271D01*
X1633Y4272D01*
X1632Y4274D01*
X1631Y4275D01*
X1631Y4275D01*
X1631Y4275D01*
X1630Y4276D01*
X1630Y4276D01*
X1630Y4277D01*
X1629Y4277D01*
X1628Y4279D01*
X1626Y4281D01*
X1625Y4282D01*
X1624Y4283D01*
X1623Y4284D01*
X1623Y4284D01*
X1623Y4284D01*
X1622Y4285D01*
X1622Y4285D01*
X1622Y4286D01*
X1621Y4286D01*
X1620Y4287D01*
X1619Y4288D01*
Y4256D01*
X1611D01*
Y4299D01*
X1611D01*
X1612D01*
X1612D01*
X1613Y4298D01*
D02*
G37*
G36*
X1754Y4272D02*
X1754Y4271D01*
Y4270D01*
X1754Y4268D01*
X1754Y4266D01*
X1753Y4264D01*
X1753Y4262D01*
X1753Y4261D01*
X1752Y4260D01*
Y4260D01*
X1752Y4260D01*
X1752Y4260D01*
X1752Y4259D01*
X1751Y4258D01*
X1750Y4257D01*
X1749Y4255D01*
X1748Y4254D01*
X1746Y4253D01*
X1746D01*
X1746Y4253D01*
X1746Y4253D01*
X1745Y4252D01*
X1743Y4252D01*
X1742Y4251D01*
X1740Y4251D01*
X1739Y4251D01*
X1737Y4251D01*
X1737D01*
X1736D01*
X1736D01*
X1736Y4251D01*
X1735D01*
X1734Y4251D01*
X1733Y4251D01*
X1731Y4252D01*
X1729Y4252D01*
X1727Y4254D01*
X1726Y4254D01*
X1725Y4255D01*
X1725Y4255D01*
X1725Y4255D01*
X1725Y4255D01*
X1724Y4256D01*
X1724Y4256D01*
X1724Y4257D01*
X1723Y4258D01*
X1723Y4258D01*
X1722Y4259D01*
X1722Y4260D01*
X1721Y4261D01*
X1721Y4263D01*
X1720Y4264D01*
X1720Y4265D01*
X1720Y4267D01*
X1719Y4269D01*
X1719Y4268D01*
X1719Y4268D01*
X1719Y4267D01*
X1718Y4267D01*
X1717Y4265D01*
X1717Y4264D01*
X1716Y4263D01*
X1716Y4263D01*
X1715Y4263D01*
X1715Y4262D01*
X1714Y4261D01*
X1712Y4260D01*
X1711Y4259D01*
X1709Y4258D01*
X1708Y4256D01*
X1690Y4245D01*
Y4256D01*
X1703Y4264D01*
X1704D01*
X1704Y4265D01*
X1704Y4265D01*
X1704Y4265D01*
X1705Y4266D01*
X1707Y4267D01*
X1708Y4268D01*
X1710Y4269D01*
X1711Y4270D01*
X1712Y4271D01*
X1712Y4271D01*
X1713Y4271D01*
X1713Y4271D01*
X1714Y4272D01*
X1715Y4273D01*
X1716Y4274D01*
X1717Y4275D01*
X1717Y4275D01*
X1717Y4275D01*
X1717Y4276D01*
X1717Y4276D01*
X1717Y4277D01*
X1718Y4277D01*
X1718Y4279D01*
Y4279D01*
X1718Y4279D01*
Y4279D01*
X1718Y4280D01*
X1718Y4281D01*
Y4281D01*
X1719Y4282D01*
Y4293D01*
X1690D01*
Y4302D01*
X1754D01*
Y4272D01*
D02*
G37*
G36*
X1796Y4232D02*
X1788D01*
Y4256D01*
X1796D01*
Y4232D01*
D02*
G37*
G36*
X1613Y4249D02*
X1614Y4249D01*
X1615Y4248D01*
X1616Y4248D01*
X1617Y4248D01*
X1617D01*
X1617Y4248D01*
X1617Y4248D01*
X1618Y4247D01*
X1619Y4247D01*
X1621Y4246D01*
X1622Y4245D01*
X1624Y4244D01*
X1625Y4243D01*
X1625D01*
X1625Y4242D01*
X1626Y4242D01*
X1627Y4241D01*
X1628Y4240D01*
X1629Y4239D01*
X1631Y4237D01*
X1633Y4235D01*
X1635Y4232D01*
X1635Y4232D01*
X1635Y4232D01*
X1636Y4231D01*
X1636Y4231D01*
X1637Y4230D01*
X1638Y4229D01*
X1639Y4228D01*
X1640Y4227D01*
X1642Y4224D01*
X1644Y4222D01*
X1645Y4221D01*
X1646Y4220D01*
X1647Y4219D01*
X1648Y4218D01*
X1648D01*
X1648Y4218D01*
X1649Y4218D01*
X1649Y4218D01*
X1650Y4217D01*
X1651Y4216D01*
X1653Y4216D01*
X1654Y4215D01*
X1656Y4215D01*
X1658Y4214D01*
X1658D01*
X1658D01*
X1659Y4215D01*
X1659Y4215D01*
X1661Y4215D01*
X1662Y4215D01*
X1663Y4216D01*
X1664Y4217D01*
X1666Y4218D01*
X1666Y4218D01*
X1666Y4219D01*
X1667Y4219D01*
X1667Y4220D01*
X1668Y4221D01*
X1668Y4223D01*
X1669Y4225D01*
X1669Y4227D01*
Y4227D01*
X1669Y4228D01*
X1669Y4229D01*
X1668Y4230D01*
X1668Y4231D01*
X1667Y4233D01*
X1667Y4234D01*
X1666Y4236D01*
X1665Y4236D01*
X1665Y4236D01*
X1664Y4237D01*
X1663Y4238D01*
X1662Y4238D01*
X1660Y4239D01*
X1658Y4239D01*
X1656Y4239D01*
X1657Y4247D01*
X1657D01*
X1657Y4247D01*
X1658D01*
X1658Y4247D01*
X1659Y4247D01*
X1660Y4247D01*
X1661Y4246D01*
X1662Y4246D01*
X1664Y4245D01*
X1666Y4244D01*
X1668Y4244D01*
X1669Y4243D01*
X1670Y4242D01*
X1671Y4241D01*
X1671Y4241D01*
X1671Y4241D01*
X1671Y4241D01*
X1671Y4240D01*
X1672Y4240D01*
X1672Y4239D01*
X1673Y4238D01*
X1673Y4237D01*
X1673Y4236D01*
X1674Y4235D01*
X1674Y4234D01*
X1675Y4233D01*
X1675Y4231D01*
X1675Y4230D01*
X1675Y4228D01*
X1675Y4226D01*
Y4226D01*
X1675Y4225D01*
X1675Y4224D01*
X1675Y4223D01*
X1675Y4222D01*
X1675Y4221D01*
X1674Y4219D01*
X1673Y4216D01*
X1673Y4215D01*
X1672Y4214D01*
X1671Y4213D01*
X1670Y4212D01*
X1670Y4212D01*
X1670Y4212D01*
X1670Y4211D01*
X1669Y4211D01*
X1669Y4211D01*
X1668Y4210D01*
X1668Y4210D01*
X1667Y4209D01*
X1665Y4208D01*
X1663Y4207D01*
X1662Y4207D01*
X1660Y4207D01*
X1659Y4207D01*
X1658Y4206D01*
X1657D01*
X1657D01*
X1656Y4207D01*
X1655Y4207D01*
X1654Y4207D01*
X1653Y4207D01*
X1651Y4208D01*
X1650Y4208D01*
X1650Y4208D01*
X1649Y4208D01*
X1649Y4209D01*
X1648Y4209D01*
X1647Y4210D01*
X1645Y4211D01*
X1644Y4212D01*
X1642Y4213D01*
X1642Y4214D01*
X1641Y4214D01*
X1641Y4214D01*
X1641Y4215D01*
X1640Y4215D01*
X1639Y4216D01*
X1638Y4217D01*
X1638Y4218D01*
X1637Y4219D01*
X1636Y4220D01*
X1635Y4221D01*
X1633Y4222D01*
X1632Y4224D01*
X1631Y4225D01*
X1631Y4225D01*
X1631Y4226D01*
X1630Y4226D01*
X1630Y4226D01*
X1630Y4227D01*
X1629Y4228D01*
X1628Y4229D01*
X1626Y4231D01*
X1625Y4232D01*
X1624Y4234D01*
X1623Y4234D01*
X1623Y4235D01*
X1623Y4235D01*
X1622Y4235D01*
X1622Y4235D01*
X1622Y4236D01*
X1621Y4236D01*
X1620Y4237D01*
X1619Y4238D01*
Y4206D01*
X1611D01*
Y4249D01*
X1611D01*
X1612D01*
X1612D01*
X1613Y4249D01*
D02*
G37*
G36*
X1723Y4240D02*
X1724D01*
X1725Y4240D01*
X1727Y4239D01*
X1729Y4239D01*
X1730Y4239D01*
X1732Y4238D01*
X1734Y4238D01*
X1736Y4237D01*
X1739Y4236D01*
X1741Y4235D01*
X1743Y4234D01*
X1744Y4233D01*
X1746Y4231D01*
X1746Y4231D01*
X1747Y4231D01*
X1747Y4230D01*
X1748Y4230D01*
X1748Y4229D01*
X1749Y4228D01*
X1750Y4227D01*
X1751Y4225D01*
X1752Y4224D01*
X1752Y4222D01*
X1753Y4220D01*
X1754Y4218D01*
X1754Y4216D01*
X1755Y4214D01*
X1755Y4212D01*
X1755Y4209D01*
Y4208D01*
X1755Y4208D01*
Y4207D01*
X1755Y4206D01*
X1755Y4205D01*
X1755Y4204D01*
X1754Y4201D01*
X1754Y4199D01*
X1752Y4196D01*
X1752Y4195D01*
X1751Y4193D01*
X1751Y4193D01*
X1751Y4193D01*
X1751Y4193D01*
X1750Y4192D01*
X1750Y4191D01*
X1749Y4191D01*
X1748Y4189D01*
X1746Y4187D01*
X1744Y4186D01*
X1742Y4184D01*
X1739Y4182D01*
X1739D01*
X1739Y4182D01*
X1738Y4182D01*
X1738Y4182D01*
X1737Y4181D01*
X1736Y4181D01*
X1735Y4181D01*
X1734Y4180D01*
X1733Y4180D01*
X1732Y4180D01*
X1730Y4179D01*
X1729Y4179D01*
X1725Y4179D01*
X1722Y4179D01*
X1722D01*
X1722D01*
X1721D01*
X1720Y4179D01*
X1719D01*
X1718Y4179D01*
X1717Y4179D01*
X1716Y4179D01*
X1713Y4180D01*
X1710Y4180D01*
X1708Y4181D01*
X1706Y4182D01*
X1705Y4183D01*
X1704D01*
X1704Y4183D01*
X1704Y4183D01*
X1703Y4183D01*
X1703Y4184D01*
X1702Y4184D01*
X1700Y4185D01*
X1698Y4187D01*
X1696Y4189D01*
X1695Y4191D01*
X1693Y4194D01*
Y4194D01*
X1693Y4194D01*
X1693Y4194D01*
X1692Y4195D01*
X1692Y4196D01*
X1692Y4196D01*
X1691Y4197D01*
X1691Y4198D01*
X1691Y4199D01*
X1690Y4201D01*
X1690Y4203D01*
X1689Y4206D01*
X1689Y4209D01*
Y4210D01*
X1689Y4211D01*
Y4212D01*
X1689Y4212D01*
X1689Y4213D01*
X1690Y4215D01*
X1690Y4217D01*
X1691Y4220D01*
X1692Y4223D01*
X1693Y4224D01*
X1693Y4225D01*
X1693Y4225D01*
X1694Y4226D01*
X1694Y4226D01*
X1694Y4227D01*
X1695Y4227D01*
X1695Y4228D01*
X1697Y4229D01*
X1698Y4231D01*
X1700Y4233D01*
X1703Y4235D01*
X1705Y4236D01*
X1705D01*
X1706Y4236D01*
X1706Y4237D01*
X1707Y4237D01*
X1707Y4237D01*
X1708Y4237D01*
X1709Y4238D01*
X1710Y4238D01*
X1711Y4238D01*
X1712Y4239D01*
X1715Y4239D01*
X1718Y4240D01*
X1721Y4240D01*
X1721D01*
X1721D01*
X1722D01*
X1723Y4240D01*
D02*
G37*
G36*
X1833Y4205D02*
Y4196D01*
X1769Y4169D01*
Y4179D01*
X1789Y4187D01*
Y4213D01*
X1769Y4220D01*
Y4229D01*
X1833Y4205D01*
D02*
G37*
G36*
X1723Y4170D02*
X1724D01*
X1725Y4170D01*
X1726Y4170D01*
X1727Y4169D01*
X1729Y4169D01*
X1730Y4169D01*
X1733Y4168D01*
X1736Y4167D01*
X1739Y4166D01*
X1739Y4166D01*
X1740Y4166D01*
X1740Y4166D01*
X1740Y4165D01*
X1741Y4165D01*
X1742Y4164D01*
X1744Y4163D01*
X1746Y4162D01*
X1748Y4160D01*
X1750Y4157D01*
X1750Y4156D01*
X1751Y4155D01*
X1751Y4155D01*
X1751Y4154D01*
X1752Y4154D01*
X1752Y4154D01*
X1752Y4153D01*
X1753Y4152D01*
X1753Y4151D01*
X1753Y4150D01*
X1754Y4149D01*
X1754Y4147D01*
X1754Y4146D01*
X1755Y4145D01*
X1755Y4141D01*
X1755Y4140D01*
Y4137D01*
X1755Y4136D01*
Y4135D01*
X1755Y4134D01*
X1755Y4132D01*
X1754Y4130D01*
X1754Y4127D01*
X1753Y4125D01*
Y4125D01*
X1753Y4125D01*
X1753Y4125D01*
X1753Y4124D01*
X1752Y4123D01*
X1751Y4122D01*
X1750Y4121D01*
X1749Y4119D01*
X1748Y4118D01*
X1747Y4117D01*
X1746Y4116D01*
X1746Y4116D01*
X1745Y4115D01*
X1744Y4115D01*
X1742Y4114D01*
X1741Y4113D01*
X1739Y4112D01*
X1736Y4112D01*
X1734Y4119D01*
X1734D01*
X1734Y4119D01*
X1735Y4119D01*
X1735Y4120D01*
X1736Y4120D01*
X1737Y4120D01*
X1738Y4121D01*
X1739Y4121D01*
X1741Y4122D01*
X1742Y4123D01*
X1742Y4123D01*
X1742Y4123D01*
X1743Y4124D01*
X1743Y4124D01*
X1744Y4125D01*
X1745Y4126D01*
X1746Y4128D01*
X1746Y4129D01*
X1746Y4129D01*
X1747Y4130D01*
X1747Y4130D01*
X1747Y4132D01*
X1747Y4133D01*
X1748Y4134D01*
X1748Y4136D01*
X1748Y4138D01*
Y4139D01*
X1748Y4139D01*
Y4140D01*
X1748Y4141D01*
X1748Y4143D01*
X1747Y4145D01*
X1747Y4146D01*
X1746Y4148D01*
X1746Y4148D01*
X1746Y4149D01*
X1745Y4149D01*
X1745Y4150D01*
X1744Y4151D01*
X1744Y4153D01*
X1743Y4154D01*
X1742Y4155D01*
X1741Y4155D01*
X1741Y4155D01*
X1740Y4156D01*
X1740Y4156D01*
X1739Y4157D01*
X1738Y4157D01*
X1736Y4158D01*
X1735Y4159D01*
X1735D01*
X1735Y4159D01*
X1735Y4159D01*
X1734Y4159D01*
X1734Y4159D01*
X1733Y4160D01*
X1732Y4160D01*
X1731Y4160D01*
X1729Y4160D01*
X1727Y4161D01*
X1725Y4161D01*
X1722Y4161D01*
X1722D01*
X1722D01*
X1722D01*
X1721Y4161D01*
X1720D01*
X1719Y4161D01*
X1718Y4161D01*
X1717Y4161D01*
X1715Y4160D01*
X1713Y4160D01*
X1710Y4159D01*
X1708Y4158D01*
X1708D01*
X1708Y4158D01*
X1707Y4158D01*
X1707Y4158D01*
X1706Y4157D01*
X1705Y4156D01*
X1703Y4155D01*
X1702Y4153D01*
X1701Y4152D01*
X1699Y4150D01*
Y4150D01*
X1699Y4149D01*
X1699Y4149D01*
X1699Y4149D01*
X1699Y4148D01*
X1699Y4148D01*
X1698Y4146D01*
X1698Y4144D01*
X1697Y4142D01*
X1697Y4140D01*
X1697Y4138D01*
Y4137D01*
X1697Y4136D01*
Y4136D01*
X1697Y4134D01*
X1697Y4133D01*
X1697Y4131D01*
X1698Y4129D01*
X1699Y4127D01*
Y4127D01*
X1699Y4127D01*
X1699Y4127D01*
X1699Y4126D01*
X1699Y4125D01*
X1700Y4124D01*
X1701Y4123D01*
X1701Y4121D01*
X1702Y4120D01*
X1703Y4119D01*
X1715D01*
Y4138D01*
X1723D01*
Y4111D01*
X1699D01*
X1699Y4111D01*
X1699Y4111D01*
X1699Y4111D01*
X1698Y4112D01*
X1698Y4112D01*
X1697Y4113D01*
X1697Y4114D01*
X1696Y4115D01*
X1695Y4117D01*
X1694Y4119D01*
X1693Y4121D01*
X1692Y4124D01*
Y4124D01*
X1691Y4124D01*
X1691Y4124D01*
X1691Y4125D01*
X1691Y4125D01*
X1691Y4126D01*
X1691Y4127D01*
X1690Y4128D01*
X1690Y4130D01*
X1689Y4132D01*
X1689Y4135D01*
X1689Y4137D01*
Y4138D01*
X1689Y4139D01*
Y4140D01*
X1689Y4141D01*
X1689Y4142D01*
X1689Y4143D01*
X1690Y4146D01*
X1691Y4148D01*
X1692Y4151D01*
X1692Y4153D01*
X1693Y4154D01*
X1693Y4154D01*
X1693Y4155D01*
X1693Y4155D01*
X1694Y4156D01*
X1694Y4156D01*
X1695Y4157D01*
X1696Y4159D01*
X1698Y4161D01*
X1700Y4162D01*
X1702Y4164D01*
X1705Y4166D01*
X1705D01*
X1705Y4166D01*
X1705Y4166D01*
X1706Y4167D01*
X1707Y4167D01*
X1708Y4167D01*
X1709Y4168D01*
X1710Y4168D01*
X1711Y4168D01*
X1712Y4169D01*
X1714Y4169D01*
X1715Y4169D01*
X1718Y4170D01*
X1722Y4170D01*
X1722D01*
X1722D01*
X1723D01*
X1723Y4170D01*
D02*
G37*
G36*
X1833Y4160D02*
X1791Y4150D01*
X1791D01*
X1791Y4150D01*
X1791Y4150D01*
X1790Y4150D01*
X1789Y4150D01*
X1789Y4150D01*
X1788Y4149D01*
X1787Y4149D01*
X1785Y4149D01*
X1783Y4148D01*
X1780Y4148D01*
X1778Y4147D01*
X1778D01*
X1779Y4147D01*
X1779Y4147D01*
X1780Y4147D01*
X1780Y4147D01*
X1781Y4147D01*
X1783Y4146D01*
X1785Y4146D01*
X1786Y4145D01*
X1787Y4145D01*
X1788Y4145D01*
X1789Y4145D01*
X1790Y4145D01*
X1790Y4144D01*
X1833Y4132D01*
Y4122D01*
X1801Y4113D01*
X1801D01*
X1800Y4113D01*
X1800Y4113D01*
X1799Y4112D01*
X1798Y4112D01*
X1796Y4112D01*
X1795Y4111D01*
X1793Y4111D01*
X1792Y4111D01*
X1790Y4110D01*
X1786Y4109D01*
X1782Y4109D01*
X1778Y4108D01*
X1778D01*
X1778Y4108D01*
X1779D01*
X1779Y4108D01*
X1780Y4108D01*
X1780Y4107D01*
X1781Y4107D01*
X1782Y4107D01*
X1784Y4107D01*
X1787Y4106D01*
X1789Y4105D01*
X1792Y4105D01*
X1833Y4095D01*
Y4086D01*
X1769Y4104D01*
Y4112D01*
X1818Y4125D01*
X1818D01*
X1818Y4125D01*
X1818Y4126D01*
X1819Y4126D01*
X1820Y4126D01*
X1821Y4126D01*
X1822Y4127D01*
X1824Y4127D01*
X1825Y4127D01*
X1825Y4127D01*
X1825Y4127D01*
X1825D01*
X1825Y4128D01*
X1825Y4128D01*
X1824Y4128D01*
X1823Y4128D01*
X1822Y4128D01*
X1820Y4129D01*
X1819Y4129D01*
X1818Y4129D01*
X1769Y4143D01*
Y4152D01*
X1833Y4168D01*
Y4160D01*
D02*
G37*
G36*
X1817Y4075D02*
X1818Y4075D01*
X1818Y4075D01*
X1818Y4074D01*
X1818Y4074D01*
X1819Y4073D01*
X1819Y4071D01*
X1821Y4070D01*
X1822Y4068D01*
X1823Y4066D01*
X1825Y4064D01*
X1825Y4064D01*
X1825Y4064D01*
X1825Y4063D01*
X1826Y4063D01*
X1827Y4062D01*
X1828Y4061D01*
X1829Y4060D01*
X1830Y4059D01*
X1832Y4058D01*
X1833Y4057D01*
Y4052D01*
X1769D01*
Y4060D01*
X1819D01*
X1819Y4060D01*
X1819Y4060D01*
X1818Y4061D01*
X1818Y4062D01*
X1817Y4063D01*
X1816Y4064D01*
X1815Y4065D01*
X1814Y4067D01*
Y4067D01*
X1814Y4067D01*
X1813Y4068D01*
X1813Y4069D01*
X1812Y4070D01*
X1812Y4071D01*
X1811Y4073D01*
X1810Y4074D01*
X1810Y4075D01*
X1817D01*
Y4075D01*
D02*
G37*
G36*
X1754Y4068D02*
X1754Y4068D01*
Y4067D01*
X1754Y4065D01*
X1754Y4063D01*
X1753Y4061D01*
X1753Y4059D01*
X1753Y4057D01*
X1752Y4057D01*
Y4057D01*
X1752Y4056D01*
X1752Y4056D01*
X1752Y4055D01*
X1751Y4054D01*
X1750Y4053D01*
X1749Y4052D01*
X1748Y4051D01*
X1746Y4050D01*
X1746D01*
X1746Y4049D01*
X1746Y4049D01*
X1745Y4049D01*
X1743Y4048D01*
X1742Y4048D01*
X1740Y4047D01*
X1739Y4047D01*
X1737Y4047D01*
X1737D01*
X1736D01*
X1736D01*
X1736Y4047D01*
X1735D01*
X1734Y4047D01*
X1733Y4047D01*
X1731Y4048D01*
X1729Y4049D01*
X1727Y4050D01*
X1726Y4051D01*
X1725Y4051D01*
X1725Y4051D01*
X1725Y4051D01*
X1725Y4052D01*
X1724Y4052D01*
X1724Y4053D01*
X1724Y4053D01*
X1723Y4054D01*
X1723Y4055D01*
X1722Y4056D01*
X1722Y4057D01*
X1721Y4058D01*
X1721Y4059D01*
X1720Y4060D01*
X1720Y4062D01*
X1720Y4063D01*
X1719Y4065D01*
X1719Y4065D01*
X1719Y4064D01*
X1719Y4064D01*
X1718Y4063D01*
X1717Y4061D01*
X1717Y4061D01*
X1716Y4060D01*
X1716Y4060D01*
X1715Y4059D01*
X1715Y4058D01*
X1714Y4057D01*
X1712Y4056D01*
X1711Y4055D01*
X1709Y4054D01*
X1708Y4053D01*
X1690Y4042D01*
Y4052D01*
X1703Y4061D01*
X1704D01*
X1704Y4061D01*
X1704Y4061D01*
X1704Y4061D01*
X1705Y4062D01*
X1707Y4063D01*
X1708Y4064D01*
X1710Y4065D01*
X1711Y4066D01*
X1712Y4067D01*
X1712Y4067D01*
X1713Y4067D01*
X1713Y4068D01*
X1714Y4068D01*
X1715Y4070D01*
X1716Y4070D01*
X1717Y4071D01*
X1717Y4071D01*
X1717Y4071D01*
X1717Y4072D01*
X1717Y4072D01*
X1717Y4073D01*
X1718Y4074D01*
X1718Y4075D01*
Y4075D01*
X1718Y4075D01*
Y4076D01*
X1718Y4076D01*
X1718Y4077D01*
Y4078D01*
X1719Y4079D01*
Y4090D01*
X1690D01*
Y4098D01*
X1754D01*
Y4068D01*
D02*
G37*
G36*
Y4016D02*
Y4007D01*
X1690Y3981D01*
Y3990D01*
X1710Y3998D01*
Y4025D01*
X1690Y4032D01*
Y4041D01*
X1754Y4016D01*
D02*
G37*
G36*
Y3961D02*
X1709Y3946D01*
X1709D01*
X1708Y3946D01*
X1708Y3946D01*
X1708Y3946D01*
X1707Y3946D01*
X1705Y3945D01*
X1704Y3945D01*
X1702Y3944D01*
X1701Y3944D01*
X1699Y3943D01*
X1699Y3943D01*
X1700Y3943D01*
X1701Y3943D01*
X1702Y3942D01*
X1703Y3942D01*
X1705Y3941D01*
X1707Y3941D01*
X1710Y3940D01*
X1754Y3924D01*
Y3913D01*
X1690D01*
Y3921D01*
X1744D01*
X1690Y3940D01*
Y3948D01*
X1745Y3966D01*
X1690D01*
Y3974D01*
X1754D01*
Y3961D01*
D02*
G37*
G36*
Y3887D02*
X1709Y3872D01*
X1709D01*
X1708Y3872D01*
X1708Y3872D01*
X1708Y3871D01*
X1707Y3871D01*
X1705Y3871D01*
X1704Y3870D01*
X1702Y3870D01*
X1701Y3869D01*
X1699Y3869D01*
X1699Y3869D01*
X1700Y3869D01*
X1701Y3868D01*
X1702Y3868D01*
X1703Y3867D01*
X1705Y3867D01*
X1707Y3866D01*
X1710Y3865D01*
X1754Y3850D01*
Y3839D01*
X1690D01*
Y3847D01*
X1744D01*
X1690Y3865D01*
Y3873D01*
X1745Y3891D01*
X1690D01*
Y3900D01*
X1754D01*
Y3887D01*
D02*
G37*
G36*
Y3815D02*
X1690D01*
Y3823D01*
X1754D01*
Y3815D01*
D02*
G37*
G36*
Y3791D02*
X1704Y3758D01*
X1754D01*
Y3750D01*
X1690D01*
Y3758D01*
X1740Y3792D01*
X1690D01*
Y3800D01*
X1754D01*
Y3791D01*
D02*
G37*
G36*
X1723Y3737D02*
X1724D01*
X1725Y3737D01*
X1726Y3737D01*
X1727Y3737D01*
X1729Y3737D01*
X1730Y3737D01*
X1733Y3736D01*
X1736Y3735D01*
X1739Y3734D01*
X1739Y3734D01*
X1740Y3733D01*
X1740Y3733D01*
X1740Y3733D01*
X1741Y3733D01*
X1742Y3732D01*
X1744Y3731D01*
X1746Y3729D01*
X1748Y3727D01*
X1750Y3725D01*
X1750Y3724D01*
X1751Y3722D01*
X1751Y3722D01*
X1751Y3722D01*
X1752Y3722D01*
X1752Y3721D01*
X1752Y3720D01*
X1753Y3720D01*
X1753Y3719D01*
X1753Y3718D01*
X1754Y3716D01*
X1754Y3715D01*
X1754Y3714D01*
X1755Y3712D01*
X1755Y3709D01*
X1755Y3707D01*
Y3704D01*
X1755Y3704D01*
Y3703D01*
X1755Y3701D01*
X1755Y3699D01*
X1754Y3697D01*
X1754Y3695D01*
X1753Y3693D01*
Y3693D01*
X1753Y3693D01*
X1753Y3692D01*
X1753Y3692D01*
X1752Y3691D01*
X1751Y3690D01*
X1750Y3688D01*
X1749Y3687D01*
X1748Y3685D01*
X1747Y3684D01*
X1746Y3684D01*
X1746Y3684D01*
X1745Y3683D01*
X1744Y3682D01*
X1742Y3682D01*
X1741Y3681D01*
X1739Y3680D01*
X1736Y3679D01*
X1734Y3687D01*
X1734D01*
X1734Y3687D01*
X1735Y3687D01*
X1735Y3687D01*
X1736Y3687D01*
X1737Y3688D01*
X1738Y3688D01*
X1739Y3689D01*
X1741Y3690D01*
X1742Y3691D01*
X1742Y3691D01*
X1742Y3691D01*
X1743Y3691D01*
X1743Y3692D01*
X1744Y3693D01*
X1745Y3694D01*
X1746Y3695D01*
X1746Y3697D01*
X1746Y3697D01*
X1747Y3697D01*
X1747Y3698D01*
X1747Y3699D01*
X1747Y3701D01*
X1748Y3702D01*
X1748Y3704D01*
X1748Y3705D01*
Y3706D01*
X1748Y3707D01*
Y3707D01*
X1748Y3709D01*
X1748Y3710D01*
X1747Y3712D01*
X1747Y3714D01*
X1746Y3716D01*
X1746Y3716D01*
X1746Y3716D01*
X1745Y3717D01*
X1745Y3718D01*
X1744Y3719D01*
X1744Y3720D01*
X1743Y3721D01*
X1742Y3722D01*
X1741Y3722D01*
X1741Y3723D01*
X1740Y3723D01*
X1740Y3724D01*
X1739Y3724D01*
X1738Y3725D01*
X1736Y3726D01*
X1735Y3726D01*
X1735D01*
X1735Y3727D01*
X1735Y3727D01*
X1734Y3727D01*
X1734Y3727D01*
X1733Y3727D01*
X1732Y3727D01*
X1731Y3728D01*
X1729Y3728D01*
X1727Y3728D01*
X1725Y3729D01*
X1722Y3729D01*
X1722D01*
X1722D01*
X1722D01*
X1721Y3729D01*
X1720D01*
X1719Y3729D01*
X1718Y3729D01*
X1717Y3728D01*
X1715Y3728D01*
X1713Y3728D01*
X1710Y3727D01*
X1708Y3726D01*
X1708D01*
X1708Y3726D01*
X1707Y3726D01*
X1707Y3725D01*
X1706Y3725D01*
X1705Y3724D01*
X1703Y3723D01*
X1702Y3721D01*
X1701Y3719D01*
X1699Y3717D01*
Y3717D01*
X1699Y3717D01*
X1699Y3717D01*
X1699Y3716D01*
X1699Y3716D01*
X1699Y3715D01*
X1698Y3714D01*
X1698Y3712D01*
X1697Y3710D01*
X1697Y3708D01*
X1697Y3705D01*
Y3704D01*
X1697Y3704D01*
Y3703D01*
X1697Y3702D01*
X1697Y3700D01*
X1697Y3699D01*
X1698Y3697D01*
X1699Y3695D01*
Y3695D01*
X1699Y3694D01*
X1699Y3694D01*
X1699Y3694D01*
X1699Y3693D01*
X1700Y3692D01*
X1701Y3690D01*
X1701Y3689D01*
X1702Y3688D01*
X1703Y3687D01*
X1715D01*
Y3705D01*
X1723D01*
Y3678D01*
X1699D01*
X1699Y3678D01*
X1699Y3679D01*
X1699Y3679D01*
X1698Y3679D01*
X1698Y3680D01*
X1697Y3681D01*
X1697Y3681D01*
X1696Y3682D01*
X1695Y3684D01*
X1694Y3686D01*
X1693Y3689D01*
X1692Y3691D01*
Y3691D01*
X1691Y3691D01*
X1691Y3692D01*
X1691Y3692D01*
X1691Y3693D01*
X1691Y3694D01*
X1691Y3695D01*
X1690Y3695D01*
X1690Y3697D01*
X1689Y3700D01*
X1689Y3702D01*
X1689Y3705D01*
Y3706D01*
X1689Y3706D01*
Y3707D01*
X1689Y3708D01*
X1689Y3709D01*
X1689Y3711D01*
X1690Y3713D01*
X1691Y3716D01*
X1692Y3719D01*
X1692Y3721D01*
X1693Y3722D01*
X1693Y3722D01*
X1693Y3722D01*
X1693Y3723D01*
X1694Y3723D01*
X1694Y3724D01*
X1695Y3725D01*
X1696Y3726D01*
X1698Y3728D01*
X1700Y3730D01*
X1702Y3732D01*
X1705Y3734D01*
X1705D01*
X1705Y3734D01*
X1705Y3734D01*
X1706Y3734D01*
X1707Y3735D01*
X1708Y3735D01*
X1709Y3735D01*
X1710Y3736D01*
X1711Y3736D01*
X1712Y3736D01*
X1714Y3737D01*
X1715Y3737D01*
X1718Y3737D01*
X1722Y3738D01*
X1722D01*
X1722D01*
X1723D01*
X1723Y3737D01*
D02*
G37*
G36*
X1754Y3616D02*
X1754Y3615D01*
Y3615D01*
X1754Y3613D01*
X1754Y3611D01*
X1753Y3609D01*
X1753Y3607D01*
X1752Y3606D01*
Y3605D01*
X1752Y3605D01*
X1752Y3605D01*
X1751Y3604D01*
X1751Y3603D01*
X1750Y3602D01*
X1749Y3601D01*
X1748Y3600D01*
X1746Y3599D01*
X1746Y3599D01*
X1745Y3598D01*
X1745Y3598D01*
X1744Y3597D01*
X1742Y3597D01*
X1741Y3596D01*
X1739Y3596D01*
X1738Y3596D01*
X1738D01*
X1737D01*
X1736Y3596D01*
X1735Y3596D01*
X1734Y3597D01*
X1733Y3597D01*
X1731Y3598D01*
X1730Y3598D01*
X1730Y3598D01*
X1730Y3599D01*
X1729Y3599D01*
X1728Y3600D01*
X1727Y3601D01*
X1726Y3602D01*
X1725Y3603D01*
X1724Y3605D01*
Y3605D01*
X1724Y3605D01*
X1724Y3604D01*
X1724Y3604D01*
X1724Y3603D01*
X1723Y3602D01*
X1722Y3600D01*
X1721Y3599D01*
X1720Y3597D01*
X1718Y3596D01*
X1718Y3596D01*
X1718Y3596D01*
X1717Y3595D01*
X1716Y3594D01*
X1714Y3594D01*
X1713Y3593D01*
X1711Y3593D01*
X1709Y3593D01*
X1709D01*
X1709D01*
X1708D01*
X1707Y3593D01*
X1706Y3593D01*
X1705Y3593D01*
X1703Y3594D01*
X1702Y3594D01*
X1700Y3595D01*
X1700Y3595D01*
X1700Y3595D01*
X1699Y3596D01*
X1698Y3596D01*
X1697Y3597D01*
X1696Y3598D01*
X1695Y3599D01*
X1694Y3600D01*
X1694Y3600D01*
X1694Y3600D01*
X1694Y3601D01*
X1693Y3601D01*
X1693Y3602D01*
X1692Y3604D01*
X1692Y3605D01*
X1691Y3607D01*
Y3607D01*
X1691Y3607D01*
X1691Y3608D01*
X1691Y3609D01*
X1691Y3611D01*
X1690Y3613D01*
X1690Y3615D01*
X1690Y3617D01*
Y3641D01*
X1754D01*
Y3616D01*
D02*
G37*
G36*
X1723Y3584D02*
X1724D01*
X1725Y3584D01*
X1727Y3583D01*
X1729Y3583D01*
X1730Y3583D01*
X1732Y3582D01*
X1734Y3582D01*
X1736Y3581D01*
X1739Y3580D01*
X1741Y3579D01*
X1743Y3578D01*
X1744Y3577D01*
X1746Y3575D01*
X1746Y3575D01*
X1747Y3575D01*
X1747Y3574D01*
X1748Y3574D01*
X1748Y3573D01*
X1749Y3572D01*
X1750Y3571D01*
X1751Y3569D01*
X1752Y3568D01*
X1752Y3566D01*
X1753Y3564D01*
X1754Y3562D01*
X1754Y3560D01*
X1755Y3558D01*
X1755Y3556D01*
X1755Y3553D01*
Y3552D01*
X1755Y3552D01*
Y3551D01*
X1755Y3550D01*
X1755Y3549D01*
X1755Y3548D01*
X1754Y3545D01*
X1754Y3543D01*
X1752Y3540D01*
X1752Y3539D01*
X1751Y3537D01*
X1751Y3537D01*
X1751Y3537D01*
X1751Y3537D01*
X1750Y3536D01*
X1750Y3535D01*
X1749Y3535D01*
X1748Y3533D01*
X1746Y3531D01*
X1744Y3530D01*
X1742Y3528D01*
X1739Y3526D01*
X1739D01*
X1739Y3526D01*
X1738Y3526D01*
X1738Y3526D01*
X1737Y3525D01*
X1736Y3525D01*
X1735Y3525D01*
X1734Y3524D01*
X1733Y3524D01*
X1732Y3524D01*
X1730Y3523D01*
X1729Y3523D01*
X1725Y3523D01*
X1722Y3523D01*
X1722D01*
X1722D01*
X1721D01*
X1720Y3523D01*
X1719D01*
X1718Y3523D01*
X1717Y3523D01*
X1716Y3523D01*
X1713Y3523D01*
X1710Y3524D01*
X1708Y3525D01*
X1706Y3526D01*
X1705Y3527D01*
X1704D01*
X1704Y3527D01*
X1704Y3527D01*
X1703Y3527D01*
X1703Y3528D01*
X1702Y3528D01*
X1700Y3529D01*
X1698Y3531D01*
X1696Y3533D01*
X1695Y3535D01*
X1693Y3538D01*
Y3538D01*
X1693Y3538D01*
X1693Y3538D01*
X1692Y3539D01*
X1692Y3540D01*
X1692Y3540D01*
X1691Y3541D01*
X1691Y3542D01*
X1691Y3543D01*
X1690Y3545D01*
X1690Y3547D01*
X1689Y3550D01*
X1689Y3553D01*
Y3554D01*
X1689Y3555D01*
Y3556D01*
X1689Y3556D01*
X1689Y3557D01*
X1690Y3559D01*
X1690Y3561D01*
X1691Y3564D01*
X1692Y3567D01*
X1693Y3568D01*
X1693Y3569D01*
X1693Y3569D01*
X1694Y3570D01*
X1694Y3570D01*
X1694Y3571D01*
X1695Y3571D01*
X1695Y3572D01*
X1697Y3573D01*
X1698Y3575D01*
X1700Y3577D01*
X1703Y3579D01*
X1705Y3580D01*
X1705D01*
X1706Y3580D01*
X1706Y3581D01*
X1707Y3581D01*
X1707Y3581D01*
X1708Y3581D01*
X1709Y3582D01*
X1710Y3582D01*
X1711Y3582D01*
X1712Y3583D01*
X1715Y3583D01*
X1718Y3584D01*
X1721Y3584D01*
X1721D01*
X1721D01*
X1722D01*
X1723Y3584D01*
D02*
G37*
G36*
X1754Y3494D02*
Y3485D01*
X1690Y3459D01*
Y3468D01*
X1710Y3476D01*
Y3503D01*
X1690Y3510D01*
Y3519D01*
X1754Y3494D01*
D02*
G37*
G36*
Y3422D02*
X1754Y3421D01*
Y3421D01*
X1754Y3419D01*
X1754Y3417D01*
X1753Y3414D01*
X1753Y3412D01*
X1753Y3411D01*
X1752Y3411D01*
Y3410D01*
X1752Y3410D01*
X1752Y3410D01*
X1752Y3409D01*
X1751Y3408D01*
X1750Y3407D01*
X1749Y3406D01*
X1748Y3405D01*
X1746Y3403D01*
X1746D01*
X1746Y3403D01*
X1746Y3403D01*
X1745Y3403D01*
X1743Y3402D01*
X1742Y3402D01*
X1740Y3401D01*
X1739Y3401D01*
X1737Y3401D01*
X1737D01*
X1736D01*
X1736D01*
X1736Y3401D01*
X1735D01*
X1734Y3401D01*
X1733Y3401D01*
X1731Y3402D01*
X1729Y3403D01*
X1727Y3404D01*
X1726Y3404D01*
X1725Y3405D01*
X1725Y3405D01*
X1725Y3405D01*
X1725Y3406D01*
X1724Y3406D01*
X1724Y3406D01*
X1724Y3407D01*
X1723Y3408D01*
X1723Y3409D01*
X1722Y3409D01*
X1722Y3410D01*
X1721Y3412D01*
X1721Y3413D01*
X1720Y3414D01*
X1720Y3416D01*
X1720Y3417D01*
X1719Y3419D01*
X1719Y3419D01*
X1719Y3418D01*
X1719Y3418D01*
X1718Y3417D01*
X1717Y3415D01*
X1717Y3414D01*
X1716Y3414D01*
X1716Y3414D01*
X1715Y3413D01*
X1715Y3412D01*
X1714Y3411D01*
X1712Y3410D01*
X1711Y3409D01*
X1709Y3408D01*
X1708Y3407D01*
X1690Y3396D01*
Y3406D01*
X1703Y3415D01*
X1704D01*
X1704Y3415D01*
X1704Y3415D01*
X1704Y3415D01*
X1705Y3416D01*
X1707Y3417D01*
X1708Y3418D01*
X1710Y3419D01*
X1711Y3420D01*
X1712Y3421D01*
X1712Y3421D01*
X1713Y3421D01*
X1713Y3422D01*
X1714Y3422D01*
X1715Y3424D01*
X1716Y3424D01*
X1717Y3425D01*
X1717Y3425D01*
X1717Y3425D01*
X1717Y3426D01*
X1717Y3426D01*
X1717Y3427D01*
X1718Y3427D01*
X1718Y3429D01*
Y3429D01*
X1718Y3429D01*
Y3430D01*
X1718Y3430D01*
X1718Y3431D01*
Y3431D01*
X1719Y3432D01*
Y3443D01*
X1690D01*
Y3452D01*
X1754D01*
Y3422D01*
D02*
G37*
G36*
Y3363D02*
X1754Y3361D01*
X1754Y3359D01*
X1754Y3357D01*
X1754Y3356D01*
X1753Y3354D01*
Y3354D01*
X1753Y3354D01*
Y3353D01*
X1753Y3353D01*
X1753Y3352D01*
X1752Y3351D01*
X1752Y3349D01*
X1751Y3348D01*
X1750Y3346D01*
X1749Y3345D01*
X1749Y3345D01*
X1748Y3345D01*
X1748Y3344D01*
X1748Y3344D01*
X1747Y3343D01*
X1746Y3342D01*
X1744Y3341D01*
X1742Y3339D01*
X1740Y3338D01*
X1738Y3337D01*
X1738D01*
X1737Y3337D01*
X1737Y3337D01*
X1736Y3337D01*
X1736Y3336D01*
X1735Y3336D01*
X1734Y3336D01*
X1733Y3336D01*
X1732Y3336D01*
X1731Y3335D01*
X1728Y3335D01*
X1726Y3335D01*
X1722Y3335D01*
X1722D01*
X1722D01*
X1722D01*
X1721D01*
X1721Y3335D01*
X1720D01*
X1718Y3335D01*
X1716Y3335D01*
X1714Y3335D01*
X1712Y3336D01*
X1709Y3336D01*
X1709D01*
X1709Y3336D01*
X1709Y3336D01*
X1709Y3337D01*
X1708Y3337D01*
X1706Y3337D01*
X1705Y3338D01*
X1703Y3339D01*
X1702Y3340D01*
X1700Y3341D01*
X1700Y3341D01*
X1700Y3341D01*
X1699Y3342D01*
X1698Y3342D01*
X1697Y3343D01*
X1696Y3344D01*
X1695Y3345D01*
X1694Y3346D01*
X1694Y3347D01*
X1694Y3347D01*
X1694Y3348D01*
X1693Y3349D01*
X1693Y3350D01*
X1692Y3351D01*
X1692Y3352D01*
X1691Y3354D01*
Y3354D01*
X1691Y3355D01*
X1691Y3355D01*
X1691Y3356D01*
X1691Y3357D01*
X1691Y3359D01*
X1690Y3360D01*
X1690Y3362D01*
X1690Y3364D01*
Y3387D01*
X1754D01*
Y3363D01*
D02*
G37*
%LPC*%
G36*
X2028Y4468D02*
X2007D01*
Y4467D01*
X1999D01*
Y4466D01*
X1994D01*
Y4465D01*
X1990D01*
Y4464D01*
X1986D01*
Y4463D01*
X1982D01*
Y4462D01*
X1979D01*
Y4461D01*
X1976D01*
Y4460D01*
X1974D01*
Y4459D01*
X1971D01*
Y4458D01*
X1969D01*
Y4457D01*
X1967D01*
Y4456D01*
X1965D01*
Y4455D01*
X1963D01*
Y4454D01*
X1961D01*
Y4453D01*
X1959D01*
Y4452D01*
X1958D01*
Y4451D01*
X1956D01*
Y4450D01*
X1954D01*
Y4449D01*
X1953D01*
Y4448D01*
X1951D01*
Y4447D01*
X1950D01*
Y4446D01*
X1949D01*
Y4445D01*
X1947D01*
Y4444D01*
X1946D01*
Y4443D01*
X1945D01*
Y4442D01*
X1943D01*
Y4441D01*
X1942D01*
Y4440D01*
X1941D01*
Y4439D01*
X1940D01*
Y4438D01*
X1939D01*
Y4437D01*
X1938D01*
Y4436D01*
X1937D01*
Y4435D01*
X1936D01*
Y4434D01*
X1934D01*
Y4433D01*
X1933D01*
Y4432D01*
X1932D01*
Y4431D01*
X1931D01*
Y4430D01*
X1930D01*
Y4429D01*
X1929D01*
Y4428D01*
X1928D01*
Y4427D01*
X1927D01*
Y4426D01*
X1926D01*
Y4425D01*
X1925D01*
Y4423D01*
X1924D01*
Y4422D01*
X1923D01*
Y4421D01*
X1922D01*
Y4419D01*
X1921D01*
Y4418D01*
X1920D01*
Y4416D01*
X1919D01*
Y4415D01*
X1918D01*
Y4413D01*
X1917D01*
Y4412D01*
X1916D01*
Y4410D01*
X1915D01*
Y4408D01*
X1914D01*
Y4407D01*
X1913D01*
Y4405D01*
X1912D01*
Y4403D01*
X1911D01*
Y4401D01*
X1910D01*
Y4399D01*
X1909D01*
Y4396D01*
X1908D01*
Y4394D01*
X1907D01*
Y4391D01*
X1906D01*
Y4388D01*
X1905D01*
Y4386D01*
X1904D01*
Y4381D01*
X1903D01*
Y4377D01*
X1902D01*
Y4373D01*
X1901D01*
Y4367D01*
X1900D01*
Y4358D01*
X1899D01*
Y4340D01*
X1900D01*
Y4332D01*
X1901D01*
Y4326D01*
X1902D01*
Y4321D01*
X1903D01*
Y4317D01*
X1904D01*
Y4314D01*
X1905D01*
Y4312D01*
X1906D01*
Y4308D01*
X1907D01*
Y4306D01*
X1908D01*
Y4303D01*
X1909D01*
Y4301D01*
X1910D01*
Y4299D01*
X1911D01*
Y4297D01*
X1912D01*
Y4295D01*
X1913D01*
Y4293D01*
X1914D01*
Y4291D01*
X1915D01*
Y4290D01*
X1916D01*
Y4288D01*
X1917D01*
Y4286D01*
X1918D01*
Y4285D01*
X1919D01*
Y4283D01*
X1920D01*
Y4282D01*
X1921D01*
Y4281D01*
X1922D01*
Y4279D01*
X1923D01*
Y4278D01*
X1924D01*
Y4277D01*
X1925D01*
Y4275D01*
X1926D01*
Y4274D01*
X1927D01*
Y4273D01*
X1928D01*
Y4272D01*
X1929D01*
Y4269D01*
X1930D01*
Y4268D01*
X1931D01*
Y4267D01*
X1933D01*
Y4265D01*
X1934D01*
Y4264D01*
X1936D01*
Y4263D01*
X1937D01*
Y4262D01*
X1938D01*
Y4261D01*
X1940D01*
Y4260D01*
X1941D01*
Y4259D01*
X1942D01*
Y4258D01*
X1943D01*
Y4257D01*
X1944D01*
Y4256D01*
X1946D01*
Y4255D01*
X1947D01*
Y4254D01*
X1948D01*
Y4253D01*
X1950D01*
Y4252D01*
X1951D01*
Y4251D01*
X1952D01*
Y4250D01*
X1954D01*
Y4249D01*
X1956D01*
Y4248D01*
X1957D01*
Y4247D01*
X1959D01*
Y4246D01*
X1960D01*
Y4245D01*
X1962D01*
Y4244D01*
X1964D01*
Y4243D01*
X1966D01*
Y4242D01*
X1969D01*
Y4241D01*
X1971D01*
Y4240D01*
X1973D01*
Y4239D01*
X1975D01*
Y4238D01*
X1978D01*
Y4237D01*
X1981D01*
Y4236D01*
X1984D01*
Y4235D01*
X1988D01*
Y4234D01*
X1992D01*
Y4233D01*
X1997D01*
Y4232D01*
X2004D01*
Y4231D01*
X2033D01*
Y4232D01*
X2039D01*
Y4233D01*
X2044D01*
Y4234D01*
X2049D01*
Y4235D01*
X2052D01*
Y4236D01*
X2055D01*
Y4237D01*
X2058D01*
Y4238D01*
X2061D01*
Y4239D01*
X2063D01*
Y4240D01*
X2066D01*
Y4241D01*
X2068D01*
Y4242D01*
X2070D01*
Y4243D01*
X2072D01*
Y4244D01*
X2074D01*
Y4245D01*
X2076D01*
Y4246D01*
X2078D01*
Y4247D01*
X2079D01*
Y4248D01*
X2081D01*
Y4249D01*
X2083D01*
Y4250D01*
X2084D01*
Y4251D01*
X2086D01*
Y4252D01*
X2087D01*
Y4253D01*
X2088D01*
Y4254D01*
X2090D01*
Y4255D01*
X2091D01*
Y4256D01*
X2092D01*
Y4257D01*
X2094D01*
Y4258D01*
X2095D01*
Y4259D01*
X2096D01*
Y4260D01*
X2097D01*
Y4261D01*
X2098D01*
Y4262D01*
X2099D01*
Y4263D01*
X2100D01*
Y4264D01*
X2101D01*
Y4265D01*
X2102D01*
Y4266D01*
X2103D01*
Y4267D01*
X2104D01*
Y4268D01*
X2105D01*
Y4269D01*
X2106D01*
Y4270D01*
X2107D01*
Y4272D01*
X2108D01*
Y4273D01*
X2109D01*
Y4274D01*
X2110D01*
Y4276D01*
X2111D01*
Y4277D01*
X2112D01*
Y4278D01*
X2113D01*
Y4280D01*
X2114D01*
Y4281D01*
X2115D01*
Y4282D01*
X2116D01*
Y4284D01*
X2117D01*
Y4285D01*
X2118D01*
Y4287D01*
X2119D01*
Y4289D01*
X2120D01*
Y4290D01*
X2121D01*
Y4292D01*
X2122D01*
Y4294D01*
X2123D01*
Y4296D01*
X2124D01*
Y4298D01*
X2125D01*
Y4300D01*
X2126D01*
Y4302D01*
X2127D01*
Y4304D01*
X2128D01*
Y4307D01*
X2129D01*
Y4309D01*
X2130D01*
Y4312D01*
X2131D01*
Y4315D01*
X2132D01*
Y4319D01*
X2133D01*
Y4323D01*
X2134D01*
Y4328D01*
X2135D01*
Y4335D01*
X2136D01*
Y4365D01*
X2135D01*
Y4370D01*
X2134D01*
Y4375D01*
X2133D01*
Y4380D01*
X2132D01*
Y4384D01*
X2131D01*
Y4387D01*
X2130D01*
Y4390D01*
X2129D01*
Y4393D01*
X2128D01*
Y4395D01*
X2127D01*
Y4398D01*
X2126D01*
Y4400D01*
X2125D01*
Y4402D01*
X2124D01*
Y4404D01*
X2123D01*
Y4406D01*
X2122D01*
Y4408D01*
X2121D01*
Y4410D01*
X2120D01*
Y4411D01*
X2119D01*
Y4413D01*
X2118D01*
Y4414D01*
X2117D01*
Y4416D01*
X2116D01*
Y4417D01*
X2115D01*
Y4419D01*
X2114D01*
Y4420D01*
X2113D01*
Y4421D01*
X2112D01*
Y4423D01*
X2111D01*
Y4424D01*
X2110D01*
Y4425D01*
X2109D01*
Y4427D01*
X2108D01*
Y4428D01*
X2107D01*
Y4429D01*
X2106D01*
Y4430D01*
X2105D01*
Y4431D01*
X2104D01*
Y4432D01*
X2103D01*
Y4433D01*
X2102D01*
Y4434D01*
X2101D01*
Y4435D01*
X2100D01*
Y4436D01*
X2099D01*
Y4437D01*
X2098D01*
Y4438D01*
X2097D01*
Y4439D01*
X2096D01*
Y4440D01*
X2095D01*
Y4441D01*
X2093D01*
Y4442D01*
X2092D01*
Y4443D01*
X2091D01*
Y4444D01*
X2089D01*
Y4445D01*
X2088D01*
Y4446D01*
X2086D01*
Y4447D01*
X2085D01*
Y4448D01*
X2083D01*
Y4449D01*
X2082D01*
Y4450D01*
X2081D01*
Y4451D01*
X2079D01*
Y4452D01*
X2077D01*
Y4453D01*
X2075D01*
Y4454D01*
X2073D01*
Y4455D01*
X2071D01*
Y4456D01*
X2069D01*
Y4457D01*
X2067D01*
Y4458D01*
X2065D01*
Y4459D01*
X2063D01*
Y4460D01*
X2060D01*
Y4461D01*
X2057D01*
Y4462D01*
X2054D01*
Y4463D01*
X2051D01*
Y4464D01*
X2047D01*
Y4465D01*
X2042D01*
Y4466D01*
X2036D01*
Y4467D01*
X2028D01*
Y4468D01*
D02*
G37*
%LPD*%
G36*
X2054Y4269D02*
Y4268D01*
Y4257D01*
X2039D01*
Y4442D01*
X2054D01*
Y4269D01*
D02*
G37*
G36*
X1996Y4441D02*
X1997D01*
Y4429D01*
X2025D01*
Y4387D01*
X1997D01*
Y4372D01*
X2024D01*
Y4371D01*
X2025D01*
Y4330D01*
X1997D01*
Y4315D01*
X1998D01*
Y4316D01*
X1999D01*
Y4315D01*
X2022D01*
Y4316D01*
X2024D01*
Y4315D01*
X2025D01*
Y4274D01*
X1997D01*
Y4257D01*
X1983D01*
Y4287D01*
X2011D01*
Y4302D01*
X1983D01*
Y4344D01*
X2011D01*
Y4358D01*
X1983D01*
Y4385D01*
Y4386D01*
Y4401D01*
X2011D01*
Y4415D01*
X1983D01*
Y4442D01*
X1996D01*
Y4441D01*
D02*
G37*
%LPC*%
G36*
X1896Y3987D02*
X1857D01*
Y3979D01*
X1858D01*
Y3974D01*
X1859D01*
Y3971D01*
X1860D01*
Y3969D01*
X1861D01*
Y3967D01*
X1862D01*
Y3966D01*
X1863D01*
Y3965D01*
X1864D01*
Y3964D01*
X1865D01*
Y3963D01*
X1867D01*
Y3962D01*
X1869D01*
Y3961D01*
X1875D01*
Y3960D01*
X1879D01*
Y3961D01*
X1884D01*
Y3962D01*
X1886D01*
Y3963D01*
X1888D01*
Y3964D01*
X1890D01*
Y3965D01*
X1891D01*
Y3967D01*
X1892D01*
Y3968D01*
X1893D01*
Y3970D01*
X1894D01*
Y3972D01*
X1895D01*
Y3975D01*
X1896D01*
Y3983D01*
X1897D01*
Y3986D01*
X1896D01*
Y3987D01*
D02*
G37*
G36*
X1871Y3794D02*
X1870D01*
Y3777D01*
X1872D01*
Y3778D01*
X1875D01*
Y3779D01*
X1877D01*
Y3780D01*
X1879D01*
Y3781D01*
X1881D01*
Y3782D01*
X1883D01*
Y3783D01*
X1886D01*
Y3784D01*
X1888D01*
Y3785D01*
X1889D01*
Y3786D01*
X1887D01*
Y3787D01*
X1885D01*
Y3788D01*
X1882D01*
Y3789D01*
X1880D01*
Y3790D01*
X1878D01*
Y3791D01*
X1875D01*
Y3792D01*
X1873D01*
Y3793D01*
X1871D01*
Y3794D01*
D02*
G37*
G36*
X2026Y3741D02*
X2025D01*
Y3706D01*
X2026D01*
Y3700D01*
X2027D01*
Y3696D01*
X2028D01*
Y3693D01*
X2029D01*
Y3691D01*
X2030D01*
Y3689D01*
X2031D01*
Y3687D01*
X2032D01*
Y3686D01*
X2033D01*
Y3684D01*
X2034D01*
Y3683D01*
X2035D01*
Y3682D01*
X2036D01*
Y3681D01*
X2038D01*
Y3680D01*
X2040D01*
Y3679D01*
X2042D01*
Y3678D01*
X2044D01*
Y3677D01*
X2050D01*
Y3676D01*
X2063D01*
Y3677D01*
X2067D01*
Y3678D01*
X2070D01*
Y3679D01*
X2071D01*
Y3680D01*
X2073D01*
Y3681D01*
X2074D01*
Y3682D01*
X2075D01*
Y3683D01*
X2076D01*
Y3684D01*
X2077D01*
Y3685D01*
X2078D01*
Y3687D01*
X2079D01*
Y3689D01*
X2080D01*
Y3691D01*
X2081D01*
Y3694D01*
X2082D01*
Y3698D01*
X2083D01*
Y3705D01*
X2084D01*
Y3740D01*
X2026D01*
Y3741D01*
D02*
G37*
G36*
X1897Y3478D02*
X1879D01*
Y3469D01*
X1880D01*
Y3467D01*
X1881D01*
Y3465D01*
X1883D01*
Y3464D01*
X1885D01*
Y3463D01*
X1891D01*
Y3464D01*
X1893D01*
Y3465D01*
X1894D01*
Y3466D01*
X1895D01*
Y3468D01*
X1896D01*
Y3474D01*
X1897D01*
Y3478D01*
D02*
G37*
G36*
X2084Y3367D02*
X2025D01*
Y3334D01*
X2026D01*
Y3327D01*
X2027D01*
Y3323D01*
X2028D01*
Y3321D01*
X2029D01*
Y3318D01*
X2030D01*
Y3316D01*
X2031D01*
Y3315D01*
X2032D01*
Y3313D01*
X2033D01*
Y3312D01*
X2034D01*
Y3311D01*
X2035D01*
Y3310D01*
X2036D01*
Y3309D01*
X2038D01*
Y3308D01*
X2039D01*
Y3307D01*
X2041D01*
Y3306D01*
X2044D01*
Y3305D01*
X2048D01*
Y3304D01*
X2064D01*
Y3305D01*
X2068D01*
Y3306D01*
X2070D01*
Y3307D01*
X2072D01*
Y3308D01*
X2073D01*
Y3309D01*
X2075D01*
Y3310D01*
X2076D01*
Y3312D01*
X2077D01*
Y3313D01*
X2078D01*
Y3315D01*
X2079D01*
Y3317D01*
X2080D01*
Y3319D01*
X2081D01*
Y3322D01*
X2082D01*
Y3326D01*
X2083D01*
Y3333D01*
X2084D01*
Y3367D01*
D02*
G37*
G36*
X1898Y3252D02*
X1896D01*
Y3251D01*
X1898D01*
Y3252D01*
D02*
G37*
G36*
X1826Y4601D02*
X1777D01*
Y4586D01*
X1777Y4586D01*
X1777Y4584D01*
X1777Y4583D01*
X1777Y4581D01*
X1777Y4579D01*
X1778Y4578D01*
X1778Y4578D01*
X1778Y4577D01*
X1778Y4577D01*
X1779Y4576D01*
X1779Y4575D01*
X1780Y4574D01*
X1780Y4573D01*
X1781Y4572D01*
X1781Y4572D01*
X1782Y4572D01*
X1782Y4571D01*
X1783Y4571D01*
X1785Y4570D01*
X1786Y4569D01*
X1787Y4568D01*
X1789Y4568D01*
X1789D01*
X1790Y4567D01*
X1790Y4567D01*
X1790Y4567D01*
X1791Y4567D01*
X1791Y4567D01*
X1792Y4567D01*
X1793Y4567D01*
X1795Y4566D01*
X1797Y4566D01*
X1799Y4566D01*
X1802Y4566D01*
X1802D01*
X1802D01*
X1803D01*
X1803Y4566D01*
X1804D01*
X1805Y4566D01*
X1806Y4566D01*
X1807Y4566D01*
X1810Y4567D01*
X1812Y4567D01*
X1815Y4568D01*
X1816Y4569D01*
X1817Y4569D01*
X1817D01*
X1817Y4569D01*
X1818Y4569D01*
X1818Y4570D01*
X1819Y4570D01*
X1820Y4571D01*
X1821Y4573D01*
X1822Y4574D01*
X1823Y4575D01*
X1824Y4577D01*
X1824Y4577D01*
X1824Y4578D01*
X1825Y4579D01*
X1825Y4580D01*
X1825Y4581D01*
X1825Y4583D01*
X1826Y4584D01*
Y4585D01*
X1826Y4587D01*
Y4601D01*
D02*
G37*
G36*
X1642Y4601D02*
X1642D01*
X1642D01*
X1641D01*
X1640Y4601D01*
X1639Y4601D01*
X1638Y4601D01*
X1637Y4601D01*
X1636Y4601D01*
X1633Y4600D01*
X1631Y4599D01*
X1630Y4599D01*
X1628Y4598D01*
X1627Y4597D01*
X1625Y4596D01*
X1624Y4595D01*
X1624Y4595D01*
X1624Y4595D01*
X1623Y4594D01*
X1623Y4594D01*
X1622Y4593D01*
X1622Y4593D01*
X1621Y4592D01*
X1621Y4591D01*
X1620Y4590D01*
X1619Y4589D01*
X1619Y4587D01*
X1618Y4586D01*
X1618Y4584D01*
X1617Y4583D01*
X1617Y4581D01*
X1617Y4579D01*
Y4579D01*
X1617Y4579D01*
Y4578D01*
X1617Y4577D01*
X1618Y4576D01*
X1618Y4575D01*
X1618Y4574D01*
X1618Y4573D01*
X1619Y4571D01*
X1619Y4570D01*
X1620Y4569D01*
X1621Y4567D01*
X1622Y4566D01*
X1623Y4565D01*
X1624Y4564D01*
X1624Y4564D01*
X1624Y4563D01*
X1625Y4563D01*
X1625Y4563D01*
X1626Y4562D01*
X1627Y4562D01*
X1628Y4561D01*
X1629Y4561D01*
X1630Y4560D01*
X1632Y4559D01*
X1633Y4559D01*
X1635Y4558D01*
X1637Y4558D01*
X1639Y4558D01*
X1641Y4558D01*
X1643Y4557D01*
X1643D01*
X1643D01*
X1644D01*
X1644D01*
X1645Y4558D01*
X1646D01*
X1647Y4558D01*
X1648Y4558D01*
X1650Y4558D01*
X1652Y4559D01*
X1654Y4559D01*
X1657Y4560D01*
X1657D01*
X1657Y4560D01*
X1657Y4560D01*
X1658Y4561D01*
X1659Y4561D01*
X1660Y4562D01*
X1661Y4563D01*
X1663Y4565D01*
X1664Y4566D01*
X1666Y4568D01*
Y4568D01*
X1666Y4568D01*
X1666Y4568D01*
X1666Y4569D01*
X1666Y4569D01*
X1667Y4570D01*
X1667Y4571D01*
X1668Y4573D01*
X1668Y4575D01*
X1669Y4577D01*
X1669Y4579D01*
Y4580D01*
X1669Y4581D01*
X1669Y4582D01*
X1669Y4583D01*
X1668Y4584D01*
X1668Y4585D01*
X1667Y4587D01*
X1667Y4588D01*
X1666Y4590D01*
X1666Y4591D01*
X1665Y4592D01*
X1664Y4594D01*
X1663Y4595D01*
X1663Y4595D01*
X1662Y4595D01*
X1662Y4595D01*
X1662Y4596D01*
X1661Y4596D01*
X1660Y4597D01*
X1659Y4597D01*
X1658Y4598D01*
X1657Y4599D01*
X1655Y4599D01*
X1653Y4600D01*
X1651Y4600D01*
X1649Y4601D01*
X1647Y4601D01*
X1645Y4601D01*
X1642Y4601D01*
D02*
G37*
G36*
X1826Y4483D02*
X1806D01*
Y4467D01*
X1806Y4466D01*
X1807Y4464D01*
X1807Y4463D01*
X1807Y4462D01*
X1807Y4461D01*
X1807Y4461D01*
X1807Y4460D01*
X1807Y4460D01*
X1808Y4459D01*
X1808Y4458D01*
X1809Y4457D01*
X1810Y4457D01*
X1810Y4456D01*
X1810Y4456D01*
X1811Y4456D01*
X1811Y4455D01*
X1812Y4455D01*
X1813Y4455D01*
X1813Y4455D01*
X1815Y4454D01*
X1816Y4454D01*
X1816D01*
X1816D01*
X1817Y4454D01*
X1818Y4454D01*
X1819Y4455D01*
X1819Y4455D01*
X1820Y4455D01*
X1821Y4456D01*
X1821Y4456D01*
X1822Y4456D01*
X1822Y4456D01*
X1823Y4457D01*
X1823Y4458D01*
X1824Y4458D01*
X1824Y4459D01*
X1825Y4460D01*
Y4460D01*
X1825Y4461D01*
X1825Y4461D01*
X1825Y4462D01*
X1825Y4464D01*
X1825Y4465D01*
X1826Y4467D01*
Y4483D01*
D02*
G37*
G36*
X1799D02*
X1777D01*
Y4464D01*
X1777Y4462D01*
X1777Y4462D01*
X1777Y4461D01*
Y4461D01*
X1777Y4460D01*
X1777Y4460D01*
X1777Y4459D01*
X1778Y4458D01*
X1779Y4456D01*
X1779Y4456D01*
X1779Y4456D01*
X1779Y4455D01*
X1780Y4455D01*
X1780Y4454D01*
X1781Y4454D01*
X1781Y4453D01*
X1782Y4453D01*
X1782Y4453D01*
X1783Y4453D01*
X1783Y4452D01*
X1784Y4452D01*
X1785Y4452D01*
X1786Y4452D01*
X1787Y4452D01*
X1788Y4451D01*
X1788D01*
X1788D01*
X1789Y4452D01*
X1790Y4452D01*
X1791Y4452D01*
X1792Y4452D01*
X1793Y4453D01*
X1794Y4453D01*
X1794Y4453D01*
X1794Y4454D01*
X1795Y4454D01*
X1795Y4455D01*
X1796Y4455D01*
X1797Y4456D01*
X1797Y4457D01*
X1798Y4459D01*
X1798Y4459D01*
X1798Y4459D01*
X1798Y4460D01*
X1798Y4461D01*
X1798Y4462D01*
X1799Y4464D01*
X1799Y4466D01*
Y4483D01*
D02*
G37*
G36*
X1738Y4429D02*
X1738D01*
X1738D01*
X1737Y4429D01*
X1736Y4429D01*
X1735Y4428D01*
X1734Y4428D01*
X1733Y4428D01*
X1732Y4427D01*
X1731Y4426D01*
X1731Y4426D01*
X1730Y4425D01*
X1730Y4425D01*
X1729Y4424D01*
X1729Y4423D01*
X1728Y4421D01*
X1728Y4420D01*
X1728Y4418D01*
Y4418D01*
X1728Y4418D01*
X1728Y4417D01*
X1728Y4416D01*
X1729Y4414D01*
X1729Y4413D01*
X1730Y4412D01*
X1731Y4411D01*
X1731Y4411D01*
X1731Y4410D01*
X1732Y4410D01*
X1733Y4409D01*
X1734Y4409D01*
X1735Y4408D01*
X1736Y4408D01*
X1738Y4408D01*
X1738D01*
X1738D01*
X1738D01*
X1739Y4408D01*
X1740Y4408D01*
X1741Y4409D01*
X1743Y4409D01*
X1744Y4410D01*
X1745Y4411D01*
X1745Y4411D01*
X1745Y4411D01*
X1746Y4412D01*
X1746Y4413D01*
X1747Y4414D01*
X1747Y4415D01*
X1748Y4417D01*
X1748Y4418D01*
Y4419D01*
X1748Y4420D01*
X1748Y4421D01*
X1747Y4422D01*
X1747Y4424D01*
X1746Y4425D01*
X1745Y4426D01*
X1745Y4426D01*
X1745Y4426D01*
X1744Y4427D01*
X1743Y4427D01*
X1742Y4428D01*
X1741Y4428D01*
X1740Y4429D01*
X1738Y4429D01*
D02*
G37*
G36*
X1709Y4431D02*
X1708D01*
X1708D01*
X1707Y4431D01*
X1707Y4431D01*
X1705Y4431D01*
X1704Y4431D01*
X1703Y4430D01*
X1702Y4430D01*
X1702Y4430D01*
X1702Y4430D01*
X1701Y4429D01*
X1700Y4429D01*
X1699Y4428D01*
X1699Y4427D01*
X1698Y4426D01*
X1697Y4425D01*
X1697Y4425D01*
X1697Y4425D01*
X1697Y4424D01*
X1696Y4423D01*
X1696Y4422D01*
X1696Y4421D01*
X1696Y4420D01*
X1696Y4418D01*
Y4418D01*
X1696Y4417D01*
X1696Y4416D01*
X1696Y4415D01*
X1696Y4414D01*
X1697Y4412D01*
X1698Y4410D01*
X1699Y4409D01*
X1699Y4409D01*
X1700Y4408D01*
X1701Y4408D01*
X1702Y4407D01*
X1703Y4406D01*
X1704Y4406D01*
X1706Y4405D01*
X1708Y4405D01*
X1708D01*
X1709D01*
X1709D01*
X1709Y4405D01*
X1710Y4405D01*
X1712Y4406D01*
X1713Y4406D01*
X1715Y4407D01*
X1716Y4408D01*
X1718Y4409D01*
X1718Y4409D01*
X1718Y4410D01*
X1719Y4411D01*
X1720Y4412D01*
X1720Y4413D01*
X1721Y4415D01*
X1721Y4417D01*
X1721Y4419D01*
Y4419D01*
X1721Y4420D01*
X1721Y4421D01*
X1721Y4422D01*
X1720Y4423D01*
X1720Y4425D01*
X1719Y4426D01*
X1718Y4428D01*
X1718Y4428D01*
X1717Y4428D01*
X1716Y4429D01*
X1715Y4430D01*
X1714Y4430D01*
X1712Y4431D01*
X1710Y4431D01*
X1709Y4431D01*
D02*
G37*
G36*
X1747Y4353D02*
X1724D01*
Y4336D01*
X1724Y4335D01*
Y4334D01*
X1724Y4334D01*
X1724Y4332D01*
X1724Y4330D01*
X1725Y4328D01*
X1726Y4326D01*
X1726Y4325D01*
X1727Y4325D01*
X1727Y4325D01*
X1727Y4324D01*
X1728Y4324D01*
X1729Y4323D01*
X1730Y4322D01*
X1732Y4322D01*
X1733Y4321D01*
X1735Y4321D01*
X1735D01*
X1735D01*
X1736D01*
X1737Y4321D01*
X1738Y4322D01*
X1739Y4322D01*
X1740Y4322D01*
X1741Y4323D01*
X1742Y4323D01*
X1742Y4323D01*
X1743Y4324D01*
X1743Y4324D01*
X1744Y4325D01*
X1744Y4326D01*
X1745Y4326D01*
X1745Y4328D01*
X1746Y4329D01*
Y4329D01*
X1746Y4329D01*
X1746Y4330D01*
X1746Y4330D01*
X1746Y4332D01*
X1746Y4333D01*
X1747Y4335D01*
Y4353D01*
D02*
G37*
G36*
X1643Y4339D02*
X1642D01*
X1642D01*
X1641D01*
X1640Y4339D01*
X1639D01*
X1637Y4339D01*
X1636Y4339D01*
X1634Y4339D01*
X1631Y4338D01*
X1629Y4338D01*
X1627Y4338D01*
X1626Y4337D01*
X1624Y4337D01*
X1623Y4336D01*
X1622Y4335D01*
X1622D01*
X1621Y4335D01*
X1621Y4335D01*
X1620Y4334D01*
X1619Y4333D01*
X1618Y4332D01*
X1617Y4330D01*
X1617Y4328D01*
X1617Y4327D01*
X1616Y4326D01*
Y4326D01*
X1617Y4325D01*
X1617Y4324D01*
X1617Y4323D01*
X1618Y4322D01*
X1619Y4320D01*
X1619Y4319D01*
X1620Y4319D01*
X1621Y4318D01*
X1622Y4317D01*
X1622D01*
X1622Y4317D01*
X1622Y4317D01*
X1623Y4317D01*
X1623Y4316D01*
X1624Y4316D01*
X1625Y4316D01*
X1626Y4315D01*
X1628Y4315D01*
X1629Y4315D01*
X1631Y4314D01*
X1633Y4314D01*
X1635Y4314D01*
X1637Y4314D01*
X1640Y4313D01*
X1643D01*
X1643D01*
X1643D01*
X1643D01*
X1644D01*
X1645Y4314D01*
X1646D01*
X1648Y4314D01*
X1649Y4314D01*
X1651Y4314D01*
X1655Y4314D01*
X1657Y4315D01*
X1658Y4315D01*
X1660Y4315D01*
X1661Y4316D01*
X1663Y4316D01*
X1664Y4317D01*
X1664D01*
X1664Y4317D01*
X1664Y4318D01*
X1664Y4318D01*
X1665Y4319D01*
X1666Y4320D01*
X1667Y4321D01*
X1668Y4323D01*
X1668Y4323D01*
X1669Y4324D01*
X1669Y4325D01*
X1669Y4326D01*
Y4327D01*
X1669Y4327D01*
X1669Y4328D01*
X1668Y4330D01*
X1668Y4331D01*
X1667Y4332D01*
X1666Y4333D01*
X1666Y4334D01*
X1665Y4335D01*
X1664Y4335D01*
X1664D01*
X1664Y4335D01*
X1664Y4336D01*
X1663Y4336D01*
X1662Y4336D01*
X1662Y4336D01*
X1661Y4337D01*
X1659Y4337D01*
X1658Y4337D01*
X1656Y4338D01*
X1655Y4338D01*
X1653Y4339D01*
X1651Y4339D01*
X1648Y4339D01*
X1646Y4339D01*
X1643Y4339D01*
D02*
G37*
G36*
X1817Y4294D02*
X1817D01*
X1817D01*
X1816Y4294D01*
X1816Y4294D01*
X1814Y4294D01*
X1813Y4294D01*
X1812Y4293D01*
X1811Y4293D01*
X1810Y4292D01*
X1810Y4292D01*
X1809Y4291D01*
X1809Y4290D01*
X1808Y4290D01*
X1808Y4288D01*
X1807Y4287D01*
X1807Y4286D01*
X1807Y4284D01*
Y4284D01*
X1807Y4283D01*
X1807Y4282D01*
X1807Y4281D01*
X1808Y4280D01*
X1808Y4279D01*
X1809Y4278D01*
X1810Y4277D01*
X1810Y4276D01*
X1810Y4276D01*
X1811Y4276D01*
X1812Y4275D01*
X1813Y4275D01*
X1814Y4274D01*
X1815Y4274D01*
X1817Y4274D01*
X1817D01*
X1817D01*
X1817D01*
X1818Y4274D01*
X1819Y4274D01*
X1820Y4274D01*
X1822Y4275D01*
X1823Y4276D01*
X1824Y4277D01*
X1824Y4277D01*
X1824Y4277D01*
X1825Y4278D01*
X1826Y4279D01*
X1826Y4280D01*
X1827Y4281D01*
X1827Y4282D01*
X1827Y4284D01*
Y4285D01*
X1827Y4286D01*
X1827Y4287D01*
X1826Y4288D01*
X1826Y4289D01*
X1825Y4290D01*
X1824Y4292D01*
X1824Y4292D01*
X1824Y4292D01*
X1823Y4293D01*
X1822Y4293D01*
X1821Y4294D01*
X1820Y4294D01*
X1819Y4294D01*
X1817Y4294D01*
D02*
G37*
G36*
X1788Y4297D02*
X1787D01*
X1787D01*
X1786Y4297D01*
X1786Y4297D01*
X1785Y4297D01*
X1783Y4296D01*
X1782Y4296D01*
X1781Y4296D01*
X1781Y4295D01*
X1781Y4295D01*
X1780Y4295D01*
X1779Y4294D01*
X1779Y4294D01*
X1778Y4293D01*
X1777Y4292D01*
X1776Y4291D01*
X1776Y4291D01*
X1776Y4290D01*
X1776Y4290D01*
X1775Y4289D01*
X1775Y4288D01*
X1775Y4287D01*
X1775Y4285D01*
X1775Y4284D01*
Y4283D01*
X1775Y4283D01*
X1775Y4282D01*
X1775Y4281D01*
X1775Y4279D01*
X1776Y4278D01*
X1777Y4276D01*
X1778Y4275D01*
X1778Y4275D01*
X1779Y4274D01*
X1780Y4273D01*
X1781Y4273D01*
X1782Y4272D01*
X1784Y4272D01*
X1785Y4271D01*
X1787Y4271D01*
X1787D01*
X1788D01*
X1788D01*
X1788Y4271D01*
X1789Y4271D01*
X1791Y4271D01*
X1792Y4272D01*
X1794Y4273D01*
X1795Y4273D01*
X1797Y4275D01*
X1797Y4275D01*
X1797Y4275D01*
X1798Y4276D01*
X1799Y4277D01*
X1799Y4279D01*
X1800Y4280D01*
X1800Y4282D01*
X1800Y4284D01*
Y4285D01*
X1800Y4285D01*
X1800Y4286D01*
X1800Y4288D01*
X1800Y4289D01*
X1799Y4291D01*
X1798Y4292D01*
X1797Y4293D01*
X1797Y4294D01*
X1796Y4294D01*
X1795Y4295D01*
X1794Y4295D01*
X1793Y4296D01*
X1791Y4297D01*
X1790Y4297D01*
X1788Y4297D01*
D02*
G37*
G36*
X1747Y4293D02*
X1726D01*
Y4274D01*
X1726Y4273D01*
X1726Y4272D01*
X1726Y4270D01*
X1726Y4269D01*
X1727Y4267D01*
X1727Y4266D01*
X1727Y4266D01*
X1727Y4265D01*
X1728Y4265D01*
X1728Y4264D01*
X1728Y4263D01*
X1729Y4262D01*
X1730Y4262D01*
X1731Y4261D01*
X1731Y4261D01*
X1731Y4261D01*
X1732Y4260D01*
X1733Y4260D01*
X1733Y4260D01*
X1734Y4260D01*
X1735Y4259D01*
X1737Y4259D01*
X1737D01*
X1737D01*
X1737Y4259D01*
X1738Y4259D01*
X1739Y4260D01*
X1740Y4260D01*
X1742Y4261D01*
X1743Y4261D01*
X1744Y4263D01*
X1744Y4263D01*
X1745Y4263D01*
X1745Y4264D01*
X1746Y4265D01*
X1746Y4267D01*
X1747Y4268D01*
X1747Y4271D01*
X1747Y4273D01*
Y4293D01*
D02*
G37*
G36*
X1721Y4231D02*
X1721D01*
X1721D01*
X1720D01*
X1719Y4231D01*
X1718Y4231D01*
X1717Y4231D01*
X1716Y4231D01*
X1715Y4230D01*
X1712Y4230D01*
X1710Y4229D01*
X1709Y4229D01*
X1707Y4228D01*
X1706Y4227D01*
X1704Y4226D01*
X1703Y4225D01*
X1703Y4225D01*
X1703Y4225D01*
X1702Y4224D01*
X1702Y4224D01*
X1701Y4223D01*
X1701Y4222D01*
X1700Y4222D01*
X1700Y4221D01*
X1699Y4220D01*
X1698Y4218D01*
X1698Y4217D01*
X1697Y4216D01*
X1697Y4214D01*
X1697Y4213D01*
X1696Y4211D01*
X1696Y4209D01*
Y4209D01*
X1696Y4208D01*
Y4208D01*
X1696Y4207D01*
X1697Y4206D01*
X1697Y4205D01*
X1697Y4204D01*
X1697Y4202D01*
X1698Y4201D01*
X1698Y4200D01*
X1699Y4199D01*
X1700Y4197D01*
X1701Y4196D01*
X1702Y4195D01*
X1703Y4193D01*
X1703Y4193D01*
X1703Y4193D01*
X1704Y4193D01*
X1704Y4192D01*
X1705Y4192D01*
X1706Y4192D01*
X1707Y4191D01*
X1708Y4190D01*
X1709Y4190D01*
X1711Y4189D01*
X1712Y4189D01*
X1714Y4188D01*
X1716Y4188D01*
X1718Y4188D01*
X1720Y4187D01*
X1722Y4187D01*
X1722D01*
X1722D01*
X1723D01*
X1723D01*
X1724Y4187D01*
X1725D01*
X1726Y4187D01*
X1727Y4188D01*
X1729Y4188D01*
X1731Y4188D01*
X1733Y4189D01*
X1736Y4190D01*
X1736D01*
X1736Y4190D01*
X1736Y4190D01*
X1737Y4190D01*
X1738Y4191D01*
X1739Y4192D01*
X1740Y4193D01*
X1742Y4194D01*
X1743Y4196D01*
X1745Y4198D01*
Y4198D01*
X1745Y4198D01*
X1745Y4198D01*
X1745Y4199D01*
X1745Y4199D01*
X1746Y4200D01*
X1746Y4201D01*
X1747Y4203D01*
X1747Y4205D01*
X1748Y4207D01*
X1748Y4209D01*
Y4210D01*
X1748Y4211D01*
X1748Y4212D01*
X1748Y4212D01*
X1747Y4213D01*
X1747Y4214D01*
X1746Y4217D01*
X1746Y4218D01*
X1745Y4219D01*
X1745Y4221D01*
X1744Y4222D01*
X1743Y4223D01*
X1742Y4225D01*
X1742Y4225D01*
X1741Y4225D01*
X1741Y4225D01*
X1741Y4226D01*
X1740Y4226D01*
X1739Y4227D01*
X1738Y4227D01*
X1737Y4228D01*
X1736Y4228D01*
X1734Y4229D01*
X1732Y4230D01*
X1730Y4230D01*
X1728Y4231D01*
X1726Y4231D01*
X1724Y4231D01*
X1721Y4231D01*
D02*
G37*
G36*
X1796Y4211D02*
Y4189D01*
X1813Y4196D01*
X1813D01*
X1813Y4196D01*
X1814Y4196D01*
X1814Y4196D01*
X1815Y4197D01*
X1816Y4197D01*
X1817Y4197D01*
X1818Y4198D01*
X1820Y4198D01*
X1822Y4199D01*
X1824Y4200D01*
X1827Y4200D01*
X1826D01*
X1826Y4201D01*
X1826D01*
X1826Y4201D01*
X1825Y4201D01*
X1824Y4201D01*
X1823Y4201D01*
X1821Y4202D01*
X1819Y4202D01*
X1817Y4203D01*
X1814Y4204D01*
X1796Y4211D01*
D02*
G37*
G36*
X1747Y4090D02*
X1726D01*
Y4070D01*
X1726Y4069D01*
X1726Y4068D01*
X1726Y4067D01*
X1726Y4065D01*
X1727Y4064D01*
X1727Y4062D01*
X1727Y4062D01*
X1727Y4062D01*
X1728Y4061D01*
X1728Y4060D01*
X1728Y4060D01*
X1729Y4059D01*
X1730Y4058D01*
X1731Y4057D01*
X1731Y4057D01*
X1731Y4057D01*
X1732Y4057D01*
X1733Y4056D01*
X1733Y4056D01*
X1734Y4056D01*
X1735Y4056D01*
X1737Y4056D01*
X1737D01*
X1737D01*
X1737Y4056D01*
X1738Y4056D01*
X1739Y4056D01*
X1740Y4056D01*
X1742Y4057D01*
X1743Y4058D01*
X1744Y4059D01*
X1744Y4059D01*
X1745Y4060D01*
X1745Y4060D01*
X1746Y4061D01*
X1746Y4063D01*
X1747Y4065D01*
X1747Y4067D01*
X1747Y4069D01*
Y4090D01*
D02*
G37*
G36*
X1717Y4022D02*
Y4001D01*
X1734Y4007D01*
X1734D01*
X1734Y4007D01*
X1735Y4007D01*
X1735Y4008D01*
X1736Y4008D01*
X1737Y4008D01*
X1738Y4008D01*
X1739Y4009D01*
X1741Y4010D01*
X1743Y4010D01*
X1745Y4011D01*
X1747Y4012D01*
X1747D01*
X1747Y4012D01*
X1747D01*
X1746Y4012D01*
X1746Y4012D01*
X1745Y4012D01*
X1744Y4013D01*
X1742Y4013D01*
X1740Y4014D01*
X1738Y4014D01*
X1735Y4015D01*
X1717Y4022D01*
D02*
G37*
G36*
X1747Y3633D02*
X1727D01*
Y3617D01*
X1727Y3616D01*
X1728Y3615D01*
X1728Y3613D01*
X1728Y3612D01*
X1728Y3611D01*
X1728Y3611D01*
X1728Y3610D01*
X1728Y3610D01*
X1729Y3609D01*
X1729Y3608D01*
X1730Y3607D01*
X1730Y3607D01*
X1731Y3606D01*
X1731Y3606D01*
X1732Y3606D01*
X1732Y3605D01*
X1733Y3605D01*
X1734Y3605D01*
X1734Y3605D01*
X1736Y3604D01*
X1737Y3604D01*
X1737D01*
X1737D01*
X1738Y3604D01*
X1739Y3605D01*
X1740Y3605D01*
X1740Y3605D01*
X1741Y3605D01*
X1742Y3606D01*
X1742Y3606D01*
X1743Y3606D01*
X1743Y3607D01*
X1744Y3607D01*
X1744Y3608D01*
X1745Y3608D01*
X1745Y3609D01*
X1746Y3610D01*
Y3610D01*
X1746Y3611D01*
X1746Y3612D01*
X1746Y3613D01*
X1746Y3614D01*
X1746Y3616D01*
X1747Y3618D01*
Y3633D01*
D02*
G37*
G36*
X1720D02*
X1698D01*
Y3615D01*
X1698Y3613D01*
X1698Y3612D01*
X1698Y3611D01*
Y3611D01*
X1698Y3611D01*
X1698Y3610D01*
X1698Y3609D01*
X1699Y3608D01*
X1700Y3606D01*
X1700Y3606D01*
X1700Y3606D01*
X1700Y3605D01*
X1701Y3605D01*
X1701Y3605D01*
X1702Y3604D01*
X1702Y3603D01*
X1703Y3603D01*
X1703Y3603D01*
X1704Y3603D01*
X1704Y3602D01*
X1705Y3602D01*
X1706Y3602D01*
X1707Y3602D01*
X1708Y3602D01*
X1709Y3602D01*
X1709D01*
X1709D01*
X1710Y3602D01*
X1711Y3602D01*
X1712Y3602D01*
X1713Y3602D01*
X1714Y3603D01*
X1715Y3604D01*
X1715Y3604D01*
X1715Y3604D01*
X1716Y3604D01*
X1716Y3605D01*
X1717Y3606D01*
X1718Y3606D01*
X1718Y3607D01*
X1719Y3609D01*
X1719Y3609D01*
X1719Y3609D01*
X1719Y3610D01*
X1719Y3611D01*
X1719Y3612D01*
X1720Y3614D01*
X1720Y3616D01*
Y3633D01*
D02*
G37*
G36*
X1721Y3575D02*
X1721D01*
X1721D01*
X1720D01*
X1719Y3575D01*
X1718Y3575D01*
X1717Y3575D01*
X1716Y3575D01*
X1715Y3574D01*
X1712Y3574D01*
X1710Y3573D01*
X1709Y3573D01*
X1707Y3572D01*
X1706Y3571D01*
X1704Y3570D01*
X1703Y3569D01*
X1703Y3569D01*
X1703Y3569D01*
X1702Y3568D01*
X1702Y3568D01*
X1701Y3567D01*
X1701Y3566D01*
X1700Y3566D01*
X1700Y3565D01*
X1699Y3564D01*
X1698Y3562D01*
X1698Y3561D01*
X1697Y3560D01*
X1697Y3558D01*
X1697Y3557D01*
X1696Y3555D01*
X1696Y3553D01*
Y3553D01*
X1696Y3552D01*
Y3552D01*
X1696Y3551D01*
X1697Y3550D01*
X1697Y3549D01*
X1697Y3548D01*
X1697Y3546D01*
X1698Y3545D01*
X1698Y3544D01*
X1699Y3543D01*
X1700Y3541D01*
X1701Y3540D01*
X1702Y3539D01*
X1703Y3537D01*
X1703Y3537D01*
X1703Y3537D01*
X1704Y3537D01*
X1704Y3536D01*
X1705Y3536D01*
X1706Y3536D01*
X1707Y3535D01*
X1708Y3534D01*
X1709Y3534D01*
X1711Y3533D01*
X1712Y3533D01*
X1714Y3532D01*
X1716Y3532D01*
X1718Y3532D01*
X1720Y3531D01*
X1722Y3531D01*
X1722D01*
X1722D01*
X1723D01*
X1723D01*
X1724Y3531D01*
X1725D01*
X1726Y3531D01*
X1727Y3532D01*
X1729Y3532D01*
X1731Y3532D01*
X1733Y3533D01*
X1736Y3534D01*
X1736D01*
X1736Y3534D01*
X1736Y3534D01*
X1737Y3534D01*
X1738Y3535D01*
X1739Y3536D01*
X1740Y3537D01*
X1742Y3538D01*
X1743Y3540D01*
X1745Y3542D01*
Y3542D01*
X1745Y3542D01*
X1745Y3542D01*
X1745Y3543D01*
X1745Y3543D01*
X1746Y3544D01*
X1746Y3545D01*
X1747Y3547D01*
X1747Y3549D01*
X1748Y3551D01*
X1748Y3553D01*
Y3554D01*
X1748Y3555D01*
X1748Y3556D01*
X1748Y3556D01*
X1747Y3557D01*
X1747Y3558D01*
X1746Y3561D01*
X1746Y3562D01*
X1745Y3563D01*
X1745Y3565D01*
X1744Y3566D01*
X1743Y3567D01*
X1742Y3569D01*
X1742Y3569D01*
X1741Y3569D01*
X1741Y3569D01*
X1741Y3570D01*
X1740Y3570D01*
X1739Y3571D01*
X1738Y3571D01*
X1737Y3572D01*
X1736Y3572D01*
X1734Y3573D01*
X1732Y3574D01*
X1730Y3574D01*
X1728Y3575D01*
X1726Y3575D01*
X1724Y3575D01*
X1721Y3575D01*
D02*
G37*
G36*
X1717Y3500D02*
Y3479D01*
X1734Y3485D01*
X1734D01*
X1734Y3485D01*
X1735Y3486D01*
X1735Y3486D01*
X1736Y3486D01*
X1737Y3486D01*
X1738Y3487D01*
X1739Y3487D01*
X1741Y3488D01*
X1743Y3488D01*
X1745Y3489D01*
X1747Y3490D01*
X1747D01*
X1747Y3490D01*
X1747D01*
X1746Y3490D01*
X1746Y3490D01*
X1745Y3490D01*
X1744Y3491D01*
X1742Y3491D01*
X1740Y3492D01*
X1738Y3493D01*
X1735Y3493D01*
X1717Y3500D01*
D02*
G37*
G36*
X1747Y3443D02*
X1726D01*
Y3424D01*
X1726Y3423D01*
X1726Y3422D01*
X1726Y3420D01*
X1726Y3419D01*
X1727Y3417D01*
X1727Y3416D01*
X1727Y3416D01*
X1727Y3416D01*
X1728Y3415D01*
X1728Y3414D01*
X1728Y3414D01*
X1729Y3413D01*
X1730Y3412D01*
X1731Y3411D01*
X1731Y3411D01*
X1731Y3411D01*
X1732Y3411D01*
X1733Y3410D01*
X1733Y3410D01*
X1734Y3410D01*
X1735Y3410D01*
X1737Y3409D01*
X1737D01*
X1737D01*
X1737Y3410D01*
X1738Y3410D01*
X1739Y3410D01*
X1740Y3410D01*
X1742Y3411D01*
X1743Y3412D01*
X1744Y3413D01*
X1744Y3413D01*
X1745Y3413D01*
X1745Y3414D01*
X1746Y3415D01*
X1746Y3417D01*
X1747Y3419D01*
X1747Y3421D01*
X1747Y3423D01*
Y3443D01*
D02*
G37*
G36*
X1747Y3379D02*
X1698D01*
Y3364D01*
X1698Y3363D01*
X1698Y3362D01*
X1698Y3360D01*
X1698Y3358D01*
X1698Y3357D01*
X1699Y3355D01*
X1699Y3355D01*
X1699Y3355D01*
X1699Y3354D01*
X1700Y3353D01*
X1700Y3352D01*
X1701Y3351D01*
X1701Y3351D01*
X1702Y3350D01*
X1702Y3350D01*
X1703Y3349D01*
X1703Y3349D01*
X1704Y3348D01*
X1705Y3347D01*
X1707Y3346D01*
X1708Y3346D01*
X1710Y3345D01*
X1710D01*
X1710Y3345D01*
X1711Y3345D01*
X1711Y3345D01*
X1712Y3345D01*
X1712Y3344D01*
X1713Y3344D01*
X1714Y3344D01*
X1715Y3344D01*
X1718Y3343D01*
X1720Y3343D01*
X1723Y3343D01*
X1723D01*
X1723D01*
X1724D01*
X1724Y3343D01*
X1725D01*
X1726Y3343D01*
X1727Y3343D01*
X1728Y3344D01*
X1731Y3344D01*
X1733Y3345D01*
X1736Y3345D01*
X1737Y3346D01*
X1738Y3347D01*
X1738D01*
X1738Y3347D01*
X1739Y3347D01*
X1739Y3347D01*
X1740Y3348D01*
X1741Y3349D01*
X1742Y3350D01*
X1743Y3351D01*
X1744Y3353D01*
X1745Y3355D01*
X1745Y3355D01*
X1745Y3355D01*
X1746Y3356D01*
X1746Y3357D01*
X1746Y3359D01*
X1746Y3361D01*
X1746Y3362D01*
Y3363D01*
X1747Y3364D01*
Y3379D01*
D02*
G37*
%LPD*%
D10*
X1495Y1764D02*
G03*
X1495Y1764I-5J0D01*
G01*
X1238Y1960D02*
G03*
X1238Y1960I-5J0D01*
G01*
Y2860D02*
G03*
X1238Y2860I-5J0D01*
G01*
X1495Y2210D02*
G03*
X1495Y2210I-5J0D01*
G01*
X1495Y2664D02*
G03*
X1495Y2664I-5J0D01*
G01*
X1238Y2410D02*
G03*
X1238Y2410I-5J0D01*
G01*
D11*
X1561Y1847D02*
G03*
X1561Y1847I-12J0D01*
G01*
X1207Y1879D02*
G03*
X1207Y1879I-12J0D01*
G01*
Y2779D02*
G03*
X1207Y2779I-12J0D01*
G01*
X1561Y2293D02*
G03*
X1561Y2293I-12J0D01*
G01*
X1561Y2747D02*
G03*
X1561Y2747I-12J0D01*
G01*
X1207Y2329D02*
G03*
X1207Y2329I-12J0D01*
G01*
D12*
X2169Y1710D02*
Y3010D01*
X1811Y1710D02*
Y3010D01*
Y1710D02*
X2169D01*
X1811Y3010D02*
X2169D01*
X1865Y1075D02*
Y1203D01*
X1372Y1075D02*
X1865D01*
X1372D02*
Y1203D01*
Y1361D02*
Y1626D01*
X1865Y1361D02*
Y1626D01*
X1855D02*
X1865D01*
X1372D02*
X1855D01*
X1161Y3069D02*
X1511D01*
Y4619D01*
X1161D02*
X1511D01*
X1001Y3069D02*
X1161D01*
X1001Y4619D02*
X1161D01*
X1001Y3069D02*
Y4619D01*
X1531Y1165D02*
X1491D01*
Y1135D01*
X1511D01*
X1491D01*
Y1105D01*
X1551D02*
Y1165D01*
X1581D01*
X1591Y1155D01*
Y1135D01*
X1581Y1125D01*
X1551D01*
X1571D02*
X1591Y1105D01*
X1641Y1165D02*
X1621D01*
X1611Y1155D01*
Y1115D01*
X1621Y1105D01*
X1641D01*
X1650Y1115D01*
Y1155D01*
X1641Y1165D01*
X1670Y1105D02*
Y1165D01*
X1710Y1105D01*
Y1165D01*
X1730D02*
X1770D01*
X1750D01*
Y1105D01*
X1111Y3945D02*
Y3984D01*
X1081D01*
Y3964D01*
Y3984D01*
X1051D01*
Y3925D02*
X1111D01*
Y3895D01*
X1101Y3885D01*
X1081D01*
X1071Y3895D01*
Y3925D01*
Y3905D02*
X1051Y3885D01*
X1111Y3835D02*
Y3855D01*
X1101Y3865D01*
X1061D01*
X1051Y3855D01*
Y3835D01*
X1061Y3825D01*
X1101D01*
X1111Y3835D01*
X1051Y3805D02*
X1111D01*
X1051Y3765D01*
X1111D01*
Y3745D02*
Y3705D01*
Y3725D01*
X1051D01*
D13*
X1510Y1807D02*
X1710D01*
X1510Y1953D02*
X1710D01*
X1510Y1807D02*
Y1953D01*
X1710Y1807D02*
Y1953D01*
X1065Y1782D02*
Y1918D01*
X1235Y1782D02*
Y1918D01*
X1065Y1782D02*
X1235D01*
X1065Y1918D02*
X1235D01*
X1065Y2682D02*
Y2818D01*
X1235Y2682D02*
Y2818D01*
X1065Y2682D02*
X1235D01*
X1065Y2818D02*
X1235D01*
X1510Y2253D02*
X1711D01*
X1510Y2399D02*
X1711D01*
X1510Y2253D02*
Y2399D01*
X1711Y2253D02*
Y2399D01*
X1710Y2707D02*
Y2853D01*
X1510Y2707D02*
Y2853D01*
X1710D01*
X1510Y2707D02*
X1710D01*
X1065Y2368D02*
X1235D01*
X1065Y2232D02*
X1235D01*
Y2368D01*
X1065Y2232D02*
Y2368D01*
D14*
X2109Y1913D02*
Y1933D01*
X2129Y1913D01*
X2134D01*
X2139Y1918D01*
Y1928D01*
X2134Y1933D01*
Y1903D02*
X2139Y1898D01*
Y1888D01*
X2134Y1883D01*
X2114D01*
X2109Y1888D01*
Y1898D01*
X2114Y1903D01*
X2134D01*
X1840Y1930D02*
Y1920D01*
Y1925D01*
X1870D01*
X1865Y1930D01*
Y1905D02*
X1870Y1900D01*
Y1890D01*
X1865Y1885D01*
X1845D01*
X1840Y1890D01*
Y1900D01*
X1845Y1905D01*
X1865D01*
X1840Y2810D02*
Y2800D01*
Y2805D01*
X1870D01*
X1865Y2810D01*
X1485Y2990D02*
Y2965D01*
X1490Y2960D01*
X1500D01*
X1505Y2965D01*
Y2990D01*
X1515Y2985D02*
X1520Y2990D01*
X1530D01*
X1535Y2985D01*
Y2980D01*
X1530Y2975D01*
X1525D01*
X1530D01*
X1535Y2970D01*
Y2965D01*
X1530Y2960D01*
X1520D01*
X1515Y2965D01*
X1486Y2536D02*
Y2511D01*
X1491Y2506D01*
X1501D01*
X1506Y2511D01*
Y2536D01*
X1536Y2506D02*
X1516D01*
X1536Y2526D01*
Y2531D01*
X1531Y2536D01*
X1521D01*
X1516Y2531D01*
X1485Y2090D02*
Y2065D01*
X1490Y2060D01*
X1500D01*
X1505Y2065D01*
Y2090D01*
X1515Y2060D02*
X1525D01*
X1520D01*
Y2090D01*
X1515Y2085D01*
X1831Y3070D02*
X1821D01*
X1826D01*
Y3045D01*
X1821Y3040D01*
X1816D01*
X1811Y3045D01*
X1841Y3065D02*
X1846Y3070D01*
X1856D01*
X1861Y3065D01*
Y3060D01*
X1856Y3055D01*
X1851D01*
X1856D01*
X1861Y3050D01*
Y3045D01*
X1856Y3040D01*
X1846D01*
X1841Y3045D01*
X1370Y1686D02*
X1360D01*
X1365D01*
Y1661D01*
X1360Y1656D01*
X1355D01*
X1350Y1661D01*
X1380Y1656D02*
X1390D01*
X1385D01*
Y1686D01*
X1380Y1681D01*
X1394Y2886D02*
X1399Y2891D01*
Y2901D01*
X1394Y2906D01*
X1374D01*
X1369Y2901D01*
Y2891D01*
X1374Y2886D01*
X1399Y2856D02*
X1394Y2866D01*
X1384Y2876D01*
X1374D01*
X1369Y2871D01*
Y2861D01*
X1374Y2856D01*
X1379D01*
X1384Y2861D01*
Y2876D01*
X1459Y2886D02*
X1464Y2891D01*
Y2901D01*
X1459Y2906D01*
X1439D01*
X1434Y2901D01*
Y2891D01*
X1439Y2886D01*
X1464Y2856D02*
Y2876D01*
X1449D01*
X1454Y2866D01*
Y2861D01*
X1449Y2856D01*
X1439D01*
X1434Y2861D01*
Y2871D01*
X1439Y2876D01*
X1389Y2436D02*
X1394Y2441D01*
Y2451D01*
X1389Y2456D01*
X1369D01*
X1364Y2451D01*
Y2441D01*
X1369Y2436D01*
X1364Y2411D02*
X1394D01*
X1379Y2426D01*
Y2406D01*
X1459Y2436D02*
X1464Y2441D01*
Y2451D01*
X1459Y2456D01*
X1439D01*
X1434Y2451D01*
Y2441D01*
X1439Y2436D01*
X1459Y2426D02*
X1464Y2421D01*
Y2411D01*
X1459Y2406D01*
X1454D01*
X1449Y2411D01*
Y2416D01*
Y2411D01*
X1444Y2406D01*
X1439D01*
X1434Y2411D01*
Y2421D01*
X1439Y2426D01*
X1389Y1986D02*
X1394Y1991D01*
Y2001D01*
X1389Y2006D01*
X1369D01*
X1364Y2001D01*
Y1991D01*
X1369Y1986D01*
X1364Y1956D02*
Y1976D01*
X1384Y1956D01*
X1389D01*
X1394Y1961D01*
Y1971D01*
X1389Y1976D01*
X1464Y1981D02*
X1469Y1986D01*
Y1996D01*
X1464Y2001D01*
X1444D01*
X1439Y1996D01*
Y1986D01*
X1444Y1981D01*
X1439Y1971D02*
Y1961D01*
Y1966D01*
X1469D01*
X1464Y1971D01*
X1456Y4679D02*
X1446D01*
X1451D01*
Y4654D01*
X1446Y4649D01*
X1441D01*
X1436Y4654D01*
X1486Y4649D02*
X1466D01*
X1486Y4669D01*
Y4674D01*
X1481Y4679D01*
X1471D01*
X1466Y4674D01*
X1295Y2001D02*
X1325D01*
Y1986D01*
X1320Y1981D01*
X1310D01*
X1305Y1986D01*
Y2001D01*
Y1991D02*
X1295Y1981D01*
Y1971D02*
Y1961D01*
Y1966D01*
X1325D01*
X1320Y1971D01*
X1238Y2045D02*
Y2075D01*
X1253D01*
X1258Y2070D01*
Y2060D01*
X1253Y2055D01*
X1238D01*
X1248D02*
X1258Y2045D01*
X1288D02*
X1268D01*
X1288Y2065D01*
Y2070D01*
X1283Y2075D01*
X1273D01*
X1268Y2070D01*
X1297Y2461D02*
X1327D01*
Y2446D01*
X1322Y2441D01*
X1312D01*
X1307Y2446D01*
Y2461D01*
Y2451D02*
X1297Y2441D01*
X1322Y2431D02*
X1327Y2426D01*
Y2416D01*
X1322Y2411D01*
X1317D01*
X1312Y2416D01*
Y2421D01*
Y2416D01*
X1307Y2411D01*
X1302D01*
X1297Y2416D01*
Y2426D01*
X1302Y2431D01*
X1241Y2495D02*
Y2525D01*
X1256D01*
X1261Y2520D01*
Y2510D01*
X1256Y2505D01*
X1241D01*
X1251D02*
X1261Y2495D01*
X1286D02*
Y2525D01*
X1271Y2510D01*
X1291D01*
X1295Y2911D02*
X1325D01*
Y2896D01*
X1320Y2891D01*
X1310D01*
X1305Y2896D01*
Y2911D01*
Y2901D02*
X1295Y2891D01*
X1325Y2861D02*
Y2881D01*
X1310D01*
X1315Y2871D01*
Y2866D01*
X1310Y2861D01*
X1300D01*
X1295Y2866D01*
Y2876D01*
X1300Y2881D01*
X1238Y2945D02*
Y2975D01*
X1253D01*
X1258Y2970D01*
Y2960D01*
X1253Y2955D01*
X1238D01*
X1248D02*
X1258Y2945D01*
X1288Y2975D02*
X1278Y2970D01*
X1268Y2960D01*
Y2950D01*
X1273Y2945D01*
X1283D01*
X1288Y2950D01*
Y2955D01*
X1283Y2960D01*
X1268D01*
X1260Y1760D02*
Y1735D01*
X1265Y1730D01*
X1275D01*
X1280Y1735D01*
Y1760D01*
X1305Y1730D02*
Y1760D01*
X1290Y1745D01*
X1310D01*
X1260Y2210D02*
Y2185D01*
X1265Y2180D01*
X1275D01*
X1280Y2185D01*
Y2210D01*
X1310D02*
X1290D01*
Y2195D01*
X1300Y2200D01*
X1305D01*
X1310Y2195D01*
Y2185D01*
X1305Y2180D01*
X1295D01*
X1290Y2185D01*
X1260Y2660D02*
Y2635D01*
X1265Y2630D01*
X1275D01*
X1280Y2635D01*
Y2660D01*
X1310D02*
X1300Y2655D01*
X1290Y2645D01*
Y2635D01*
X1295Y2630D01*
X1305D01*
X1310Y2635D01*
Y2640D01*
X1305Y2645D01*
X1290D01*
M02*
