G04*
G04 #@! TF.GenerationSoftware,Altium Limited,Altium Designer,22.6.1 (34)*
G04*
G04 Layer_Color=32768*
%FSLAX23Y23*%
%MOIN*%
G70*
G04*
G04 #@! TF.SameCoordinates,B6A25038-3202-4191-8880-7B975E66899D*
G04*
G04*
G04 #@! TF.FilePolarity,Positive*
G04*
G01*
G75*
%ADD43C,0.004*%
%ADD44C,0.002*%
D43*
X1610Y1860D02*
Y1900D01*
X1590Y1880D02*
X1630D01*
X1130Y1850D02*
X1170D01*
X1150Y1830D02*
Y1870D01*
X1130Y2750D02*
X1170D01*
X1150Y2730D02*
Y2770D01*
X1610Y2306D02*
Y2346D01*
X1591Y2326D02*
X1630D01*
X1590Y2780D02*
X1630D01*
X1610Y2760D02*
Y2800D01*
X1150Y2280D02*
Y2320D01*
X1130Y2300D02*
X1170D01*
D44*
X1500Y1726D02*
X1720D01*
X1500Y2034D02*
X1720D01*
X1500Y1726D02*
Y2034D01*
X1720Y1726D02*
Y2034D01*
X1056Y1702D02*
Y1998D01*
X1244Y1702D02*
Y1998D01*
X1056Y1702D02*
X1244D01*
X1056Y1998D02*
X1244D01*
X1056Y2602D02*
Y2898D01*
X1244Y2602D02*
Y2898D01*
X1056Y2602D02*
X1244D01*
X1056Y2898D02*
X1244D01*
X1500Y2173D02*
X1721D01*
X1500Y2480D02*
X1721D01*
X1500Y2173D02*
Y2480D01*
X1721Y2173D02*
Y2480D01*
X1720Y2626D02*
Y2934D01*
X1500Y2626D02*
Y2934D01*
X1720D01*
X1500Y2626D02*
X1720D01*
X1056Y2448D02*
X1244D01*
X1056Y2152D02*
X1244D01*
Y2448D01*
X1056Y2152D02*
Y2448D01*
M02*
