G04*
G04 #@! TF.GenerationSoftware,Altium Limited,Altium Designer,22.6.1 (34)*
G04*
G04 Layer_Physical_Order=1*
G04 Layer_Color=255*
%FSLAX23Y23*%
%MOIN*%
G70*
G04*
G04 #@! TF.SameCoordinates,B6A25038-3202-4191-8880-7B975E66899D*
G04*
G04*
G04 #@! TF.FilePolarity,Positive*
G04*
G01*
G75*
%ADD12C,0.010*%
%ADD15O,0.018X0.055*%
%ADD16R,0.039X0.043*%
%ADD17R,0.043X0.039*%
%ADD18O,0.024X0.051*%
%ADD28C,0.071*%
%ADD29C,0.063*%
%ADD30C,0.180*%
%ADD31C,0.024*%
D12*
X1572Y2064D02*
X1573Y2065D01*
X1572Y1997D02*
Y2064D01*
X1572Y1996D02*
X1572Y1997D01*
X1637Y2052D02*
X1638D01*
X1647Y2043D01*
X1620Y2065D02*
X1624D01*
X1585Y2100D02*
X1620Y2065D01*
X1624D02*
X1637Y2052D01*
X1647Y1998D02*
Y2043D01*
Y1998D02*
X1648Y1996D01*
X1400Y2100D02*
X1585D01*
X1277Y1977D02*
X1400Y2100D01*
X1500Y2150D02*
X1560D01*
X1603Y2107D02*
X1937D01*
X1560Y2150D02*
X1603Y2107D01*
X1596Y2140D02*
X1610Y2125D01*
X1790D01*
X1825Y2160D01*
X1720Y1480D02*
Y1485D01*
X1709Y1804D02*
X1746Y1767D01*
Y1511D02*
Y1767D01*
X1720Y1485D02*
X1746Y1511D01*
X1720Y1480D02*
X1820D01*
X1585Y2298D02*
X1768D01*
X1790Y2440D02*
X1815Y2415D01*
Y2345D02*
Y2415D01*
X1768Y2298D02*
X1815Y2345D01*
X1546Y1681D02*
Y1764D01*
Y1681D02*
X1573Y1654D01*
Y1650D02*
Y1654D01*
X1990Y1650D02*
Y1960D01*
X1820Y1480D02*
X1990Y1650D01*
Y1960D02*
X2040Y2010D01*
X1126Y1700D02*
X1240D01*
X1320Y1780D02*
Y1781D01*
X1240Y1700D02*
X1320Y1780D01*
X1369Y1830D02*
X1380Y1841D01*
X1320Y1781D02*
X1369Y1830D01*
X1380D01*
X1320Y2230D02*
Y2231D01*
X1319Y2231D02*
X1380Y2291D01*
X1239Y2150D02*
X1319Y2231D01*
X1369Y2280D02*
X1380D01*
X1320Y2231D02*
X1369Y2280D01*
X1239Y2600D02*
X1319Y2681D01*
X1320Y2681D02*
X1379Y2740D01*
X1319Y2681D02*
X1380Y2741D01*
X1379Y2740D02*
X1380D01*
X1320Y2680D02*
Y2681D01*
X1670Y2985D02*
X1673Y2982D01*
Y2898D02*
Y2982D01*
Y2898D02*
X1674Y2896D01*
X1620Y2985D02*
X1648Y2957D01*
Y2896D02*
Y2957D01*
X1450Y1910D02*
Y1960D01*
X1380Y2030D02*
X1450Y1960D01*
X1277Y1878D02*
Y1977D01*
X1937Y2107D02*
X1940Y2110D01*
X1450Y2360D02*
Y2420D01*
X1380Y2490D02*
X1450Y2420D01*
X1279Y2328D02*
Y2439D01*
X1365Y2525D02*
X1675D01*
X1279Y2439D02*
X1365Y2525D01*
X1380Y1830D02*
X1393Y1843D01*
X1380D02*
X1393D01*
X1433D01*
X1450D01*
X1383Y2743D02*
X1450D01*
X1380Y2740D02*
X1383Y2743D01*
X1443Y2293D02*
X1450D01*
X1380D02*
X1393D01*
X1380Y2280D02*
X1393Y2293D01*
X1443D01*
X1700Y2040D02*
X1725Y2065D01*
X1700Y1996D02*
Y2040D01*
X1787Y1957D02*
X1790Y1960D01*
X1777Y1956D02*
X1779Y1957D01*
X1787D01*
X1563Y1956D02*
X1777D01*
X1820Y1940D02*
Y1977D01*
X1720Y1840D02*
X1820Y1940D01*
X1790Y2007D02*
X1820Y1977D01*
X1624Y1840D02*
X1720D01*
X1790Y2007D02*
Y2060D01*
X1624Y1840D02*
X1624Y1840D01*
X1573Y1840D02*
X1624D01*
X1522Y2235D02*
X1585Y2298D01*
X1750Y2210D02*
X1940D01*
X1548Y1971D02*
X1563Y1956D01*
X1546Y1996D02*
X1548Y1995D01*
Y1971D02*
Y1995D01*
X1522Y1789D02*
X1573Y1840D01*
X1593Y2825D02*
X1765D01*
X1548Y2871D02*
Y2895D01*
Y2871D02*
X1593Y2825D01*
X1546Y2896D02*
X1548Y2895D01*
X1570Y2985D02*
X1571Y2984D01*
Y2897D02*
Y2984D01*
Y2897D02*
X1572Y2896D01*
X1940Y1645D02*
Y1910D01*
X1674Y1996D02*
X1674Y1997D01*
Y2064D01*
X1675Y2065D01*
X1596Y2662D02*
X1597Y2664D01*
X1596Y2625D02*
Y2662D01*
X1571Y2600D02*
X1596Y2625D01*
X1546Y2579D02*
Y2664D01*
Y2579D02*
X1555Y2570D01*
X1864D01*
X1520Y2570D02*
Y2664D01*
X1540Y2550D02*
X1800D01*
X1520Y2570D02*
X1540Y2550D01*
X1573Y1702D02*
X1575Y1700D01*
X1573Y1702D02*
Y1762D01*
X1572Y1764D02*
X1573Y1762D01*
X1700Y2600D02*
Y2664D01*
Y2600D02*
X1700Y2600D01*
X1700Y2664D02*
X1700Y2664D01*
X1700Y2150D02*
Y2210D01*
X1380Y2810D02*
X1450D01*
Y2812D02*
Y2935D01*
X1380Y2360D02*
X1450D01*
X1380Y1910D02*
X1450D01*
X1522Y1765D02*
Y1789D01*
X1520Y1764D02*
X1522Y1765D01*
X1752Y1822D02*
X1940Y2010D01*
X1632Y1822D02*
X1752D01*
X1599Y1789D02*
X1632Y1822D01*
X1599Y1765D02*
Y1789D01*
X1597Y1764D02*
X1599Y1765D01*
X1548Y2417D02*
X1610Y2355D01*
X1548Y2417D02*
Y2441D01*
X1546Y2442D02*
X1548Y2441D01*
X1610Y2355D02*
X1790D01*
X1574Y2417D02*
Y2441D01*
Y2417D02*
X1590Y2400D01*
X1790D01*
X1572Y2442D02*
X1574Y2441D01*
X1548Y2235D02*
X1592Y2280D01*
X1910Y2360D02*
X2058D01*
X1830Y2280D02*
X1910Y2360D01*
X1592Y2280D02*
X1830D01*
X1548Y2211D02*
Y2235D01*
X2058Y2360D02*
X2088Y2390D01*
X1546Y2210D02*
X1548Y2211D01*
X1522D02*
Y2235D01*
X1521Y2210D02*
X1522Y2211D01*
X2040Y2510D02*
X2088Y2462D01*
Y2390D02*
Y2462D01*
X2160Y2300D02*
Y2590D01*
X2040Y2710D02*
X2160Y2590D01*
X1600Y2262D02*
X2122D01*
X2160Y2300D01*
X1574Y2235D02*
X1600Y2262D01*
X1574Y2211D02*
Y2235D01*
X1572Y2210D02*
X1574Y2211D01*
X1647Y2444D02*
X1649Y2442D01*
X1647Y2444D02*
Y2468D01*
X1615Y2500D02*
X1647Y2468D01*
X1615Y2500D02*
X1615D01*
X1675Y2468D02*
Y2525D01*
X1825Y2160D02*
X1990D01*
X2040Y2110D01*
X1596Y2140D02*
Y2184D01*
X1622Y2151D02*
Y2209D01*
X1623Y2210D01*
X1621Y2150D02*
X1622Y2151D01*
X1800Y2550D02*
X1940Y2410D01*
X1864Y2570D02*
X1924Y2510D01*
X1620Y2600D02*
X1621Y2601D01*
Y2662D02*
X1623Y2664D01*
X1621Y2601D02*
Y2662D01*
X1450Y3010D02*
X1680D01*
X1698Y2898D02*
Y2992D01*
X1680Y3010D02*
X1698Y2992D01*
X1277Y2837D02*
X1450Y3010D01*
X1700Y2897D02*
X1737D01*
X1700Y2896D02*
X1700Y2897D01*
X1700Y2442D02*
X1702Y2440D01*
X1740D01*
X1596Y2209D02*
X1598Y2210D01*
X1596Y2184D02*
X1596Y2184D01*
Y2209D01*
X1674Y2210D02*
X1700D01*
X1924Y2510D02*
X1940D01*
X1573Y2665D02*
Y2689D01*
X1594Y2710D01*
X1940D01*
X1572Y2664D02*
X1573Y2665D01*
X1698Y2898D02*
X1700Y2896D01*
X1277Y2778D02*
X1310Y2745D01*
X1277Y2778D02*
Y2837D01*
X1310Y2743D02*
Y2745D01*
X1673Y2444D02*
X1674Y2442D01*
X1673Y2444D02*
Y2468D01*
X1279Y2328D02*
X1312Y2295D01*
Y2293D02*
Y2295D01*
X1309Y1846D02*
X1310Y1845D01*
X1277Y1878D02*
X1309Y1846D01*
X1298Y1835D02*
X1309Y1846D01*
X1310Y1843D02*
Y1845D01*
X1380Y2741D02*
Y2743D01*
X1126Y2600D02*
X1239D01*
X1100Y2626D02*
Y2640D01*
Y2626D02*
X1126Y2600D01*
X1380Y2291D02*
Y2293D01*
X1126Y2150D02*
X1239D01*
X1100Y2176D02*
Y2190D01*
Y2176D02*
X1126Y2150D01*
X1380Y1841D02*
Y1843D01*
X1100Y1726D02*
X1126Y1700D01*
X1100Y1726D02*
Y1740D01*
X1310Y1910D02*
X1380D01*
X1310Y2810D02*
X1380D01*
X1103Y2075D02*
Y2077D01*
X1060Y2120D02*
Y2573D01*
X1118Y2060D02*
X1120D01*
X1103Y2075D02*
X1118Y2060D01*
X1060Y2120D02*
X1103Y2077D01*
X1060Y2573D02*
X1106Y2527D01*
X1121Y2510D02*
X1123D01*
X1106Y2525D02*
X1121Y2510D01*
X1106Y2525D02*
Y2527D01*
X1103Y2945D02*
X1118Y2960D01*
X1103Y2943D02*
Y2945D01*
X1060Y2900D02*
X1103Y2943D01*
X1060Y2573D02*
Y2900D01*
X1118Y2960D02*
X1120D01*
X1137Y2975D02*
Y4039D01*
X1315Y4218D02*
X1442D01*
X1137Y4039D02*
X1315Y4218D01*
X1122Y2960D02*
X1137Y2975D01*
X1120Y2960D02*
X1122D01*
X1273Y2726D02*
X1295D01*
X1310Y2741D01*
Y2743D01*
X1200Y2640D02*
Y2654D01*
X1273Y2726D01*
X1639Y1804D02*
X1709D01*
X1624Y1789D02*
X1639Y1804D01*
X1624Y1765D02*
Y1789D01*
X1623Y1764D02*
X1624Y1765D01*
X1674Y1764D02*
X1700D01*
X1450Y1912D02*
X1514Y1976D01*
X1281Y1835D02*
X1298D01*
X1200Y1754D02*
X1281Y1835D01*
X1514Y1976D02*
X1517D01*
X1520Y1980D01*
Y1996D01*
X1133Y2007D02*
X1147D01*
X1100Y1974D02*
X1133Y2007D01*
X1147D02*
X1150Y2010D01*
X1100Y1960D02*
Y1974D01*
X1200Y1960D02*
Y2047D01*
Y1740D02*
Y1754D01*
X1187Y2060D02*
X1200Y2047D01*
X1467Y2827D02*
X1516Y2876D01*
X1467Y2377D02*
X1512Y2422D01*
X1674Y2664D02*
X1700D01*
X1674Y1651D02*
Y1764D01*
X1640Y1480D02*
Y1617D01*
X1674Y1651D01*
X1133Y2907D02*
X1147D01*
X1150Y2910D01*
X1100Y2860D02*
Y2874D01*
X1133Y2907D01*
Y2457D02*
X1147D01*
X1150Y2460D01*
X1100Y2410D02*
Y2424D01*
X1133Y2457D01*
X1450Y2362D02*
X1465Y2377D01*
X1467D01*
X1521Y2426D02*
Y2442D01*
X1512Y2422D02*
X1517D01*
X1521Y2426D01*
X1450Y2812D02*
X1465Y2827D01*
X1467D01*
X1516Y2876D02*
X1517D01*
X1450Y2810D02*
Y2812D01*
X1517Y2876D02*
X1520Y2880D01*
Y2896D01*
X1312Y2360D02*
X1380D01*
X1200Y2860D02*
Y2878D01*
X1187Y2891D02*
Y2960D01*
Y2891D02*
X1200Y2878D01*
Y2200D02*
X1280Y2280D01*
X1300D01*
X1310Y2290D01*
X1200Y2190D02*
Y2200D01*
X1190Y2438D02*
X1200Y2428D01*
X1190Y2438D02*
Y2510D01*
X1200Y2410D02*
Y2428D01*
D15*
X1520Y1764D02*
D03*
X1546D02*
D03*
X1572D02*
D03*
X1597D02*
D03*
X1623D02*
D03*
X1648D02*
D03*
X1674D02*
D03*
X1700D02*
D03*
X1520Y1996D02*
D03*
X1546D02*
D03*
X1572D02*
D03*
X1597D02*
D03*
X1623D02*
D03*
X1648D02*
D03*
X1674D02*
D03*
X1700D02*
D03*
X1521Y2210D02*
D03*
X1546D02*
D03*
X1572D02*
D03*
X1598D02*
D03*
X1623D02*
D03*
X1649D02*
D03*
X1674D02*
D03*
X1700D02*
D03*
X1521Y2442D02*
D03*
X1546D02*
D03*
X1572D02*
D03*
X1598D02*
D03*
X1623D02*
D03*
X1649D02*
D03*
X1674D02*
D03*
X1700D02*
D03*
X1700Y2896D02*
D03*
X1674D02*
D03*
X1648D02*
D03*
X1623D02*
D03*
X1597D02*
D03*
X1572D02*
D03*
X1546D02*
D03*
X1520D02*
D03*
X1700Y2664D02*
D03*
X1674D02*
D03*
X1648D02*
D03*
X1623D02*
D03*
X1597D02*
D03*
X1572D02*
D03*
X1546D02*
D03*
X1520D02*
D03*
D16*
X1310Y1843D02*
D03*
Y1910D02*
D03*
X1380Y1843D02*
D03*
Y1910D02*
D03*
X1450Y1843D02*
D03*
Y1910D02*
D03*
X1380Y2360D02*
D03*
Y2293D02*
D03*
X1450Y2360D02*
D03*
Y2293D02*
D03*
Y2810D02*
D03*
Y2743D02*
D03*
X1380Y2810D02*
D03*
Y2743D02*
D03*
X1310Y2810D02*
D03*
Y2743D02*
D03*
X1312Y2360D02*
D03*
Y2293D02*
D03*
D17*
X1187Y2060D02*
D03*
X1120D02*
D03*
X1187Y2960D02*
D03*
X1120D02*
D03*
X1123Y2510D02*
D03*
X1190D02*
D03*
D18*
X1100Y1740D02*
D03*
X1200D02*
D03*
X1100Y1960D02*
D03*
X1200D02*
D03*
X1100Y2640D02*
D03*
X1200D02*
D03*
X1100Y2860D02*
D03*
X1200D02*
D03*
Y2410D02*
D03*
X1100D02*
D03*
X1200Y2190D02*
D03*
X1100D02*
D03*
D28*
X2040Y2810D02*
D03*
Y2710D02*
D03*
Y2610D02*
D03*
Y2510D02*
D03*
Y2110D02*
D03*
Y2210D02*
D03*
Y2310D02*
D03*
Y2410D02*
D03*
X1940D02*
D03*
Y2310D02*
D03*
Y2210D02*
D03*
Y2110D02*
D03*
Y2510D02*
D03*
Y2610D02*
D03*
Y2710D02*
D03*
Y2810D02*
D03*
Y1910D02*
D03*
Y2010D02*
D03*
X2040D02*
D03*
Y1910D02*
D03*
X1330Y3516D02*
D03*
Y3624D02*
D03*
Y3732D02*
D03*
Y3840D02*
D03*
Y3948D02*
D03*
Y4056D02*
D03*
Y4164D02*
D03*
X1442Y4218D02*
D03*
Y4110D02*
D03*
Y4002D02*
D03*
Y3894D02*
D03*
Y3786D02*
D03*
Y3678D02*
D03*
Y3570D02*
D03*
Y3462D02*
D03*
D29*
X1520Y1400D02*
D03*
X1600D02*
D03*
X1680D02*
D03*
X1560Y1480D02*
D03*
X1640D02*
D03*
X1720D02*
D03*
D30*
X1120Y1180D02*
D03*
X2120D02*
D03*
Y4880D02*
D03*
X1120D02*
D03*
D31*
X1573Y2065D02*
D03*
X1620D02*
D03*
X1746Y1767D02*
D03*
X1790Y2440D02*
D03*
X1573Y1650D02*
D03*
X1320Y1780D02*
D03*
Y2230D02*
D03*
Y2680D02*
D03*
X1670Y2985D02*
D03*
X1620Y2985D02*
D03*
X1380Y2030D02*
D03*
X1500Y2150D02*
D03*
X1380Y2490D02*
D03*
X1725Y2065D02*
D03*
X1790Y1960D02*
D03*
Y2060D02*
D03*
X1750Y2210D02*
D03*
X1765Y2825D02*
D03*
X1570Y2985D02*
D03*
X1940Y1645D02*
D03*
X1675Y2065D02*
D03*
X1571Y2600D02*
D03*
X1575Y1700D02*
D03*
X1700Y2600D02*
D03*
Y2150D02*
D03*
X1450Y2935D02*
D03*
X1790Y2355D02*
D03*
Y2400D02*
D03*
X1615Y2500D02*
D03*
X1621Y2150D02*
D03*
X1675Y2525D02*
D03*
X1620Y2600D02*
D03*
X1737Y2897D02*
D03*
X1740Y2440D02*
D03*
X1150Y2010D02*
D03*
Y2910D02*
D03*
Y2460D02*
D03*
M02*
