G04*
G04 #@! TF.GenerationSoftware,Altium Limited,Altium Designer,22.6.1 (34)*
G04*
G04 Layer_Color=12632256*
%FSLAX23Y23*%
%MOIN*%
G70*
G04*
G04 #@! TF.SameCoordinates,B6A25038-3202-4191-8880-7B975E66899D*
G04*
G04*
G04 #@! TF.FilePolarity,Positive*
G04*
G01*
G75*
%ADD28C,0.071*%
%ADD29C,0.063*%
%ADD30C,0.180*%
D28*
X2040Y2810D02*
D03*
Y2710D02*
D03*
Y2610D02*
D03*
Y2510D02*
D03*
Y2110D02*
D03*
Y2210D02*
D03*
Y2310D02*
D03*
Y2410D02*
D03*
X1940D02*
D03*
Y2310D02*
D03*
Y2210D02*
D03*
Y2110D02*
D03*
Y2510D02*
D03*
Y2610D02*
D03*
Y2710D02*
D03*
Y2810D02*
D03*
Y1910D02*
D03*
Y2010D02*
D03*
X2040D02*
D03*
Y1910D02*
D03*
X1330Y3516D02*
D03*
Y3624D02*
D03*
Y3732D02*
D03*
Y3840D02*
D03*
Y3948D02*
D03*
Y4056D02*
D03*
Y4164D02*
D03*
X1442Y4218D02*
D03*
Y4110D02*
D03*
Y4002D02*
D03*
Y3894D02*
D03*
Y3786D02*
D03*
Y3678D02*
D03*
Y3570D02*
D03*
Y3462D02*
D03*
D29*
X1520Y1400D02*
D03*
X1600D02*
D03*
X1680D02*
D03*
X1560Y1480D02*
D03*
X1640D02*
D03*
X1720D02*
D03*
D30*
X1120Y1180D02*
D03*
X2120D02*
D03*
Y4880D02*
D03*
X1120D02*
D03*
M02*
