G04*
G04 #@! TF.GenerationSoftware,Altium Limited,Altium Designer,22.6.1 (34)*
G04*
G04 Layer_Color=255*
%FSLAX23Y23*%
%MOIN*%
G70*
G04*
G04 #@! TF.SameCoordinates,B6A25038-3202-4191-8880-7B975E66899D*
G04*
G04*
G04 #@! TF.FilePolarity,Positive*
G04*
G01*
G75*
%ADD15O,0.018X0.055*%
%ADD16R,0.039X0.043*%
%ADD17R,0.043X0.039*%
%ADD18O,0.024X0.051*%
%ADD28C,0.071*%
%ADD29C,0.063*%
%ADD30C,0.180*%
D15*
X1520Y1764D02*
D03*
X1546D02*
D03*
X1572D02*
D03*
X1597D02*
D03*
X1623D02*
D03*
X1648D02*
D03*
X1674D02*
D03*
X1700D02*
D03*
X1520Y1996D02*
D03*
X1546D02*
D03*
X1572D02*
D03*
X1597D02*
D03*
X1623D02*
D03*
X1648D02*
D03*
X1674D02*
D03*
X1700D02*
D03*
X1521Y2210D02*
D03*
X1546D02*
D03*
X1572D02*
D03*
X1598D02*
D03*
X1623D02*
D03*
X1649D02*
D03*
X1674D02*
D03*
X1700D02*
D03*
X1521Y2442D02*
D03*
X1546D02*
D03*
X1572D02*
D03*
X1598D02*
D03*
X1623D02*
D03*
X1649D02*
D03*
X1674D02*
D03*
X1700D02*
D03*
X1700Y2896D02*
D03*
X1674D02*
D03*
X1648D02*
D03*
X1623D02*
D03*
X1597D02*
D03*
X1572D02*
D03*
X1546D02*
D03*
X1520D02*
D03*
X1700Y2664D02*
D03*
X1674D02*
D03*
X1648D02*
D03*
X1623D02*
D03*
X1597D02*
D03*
X1572D02*
D03*
X1546D02*
D03*
X1520D02*
D03*
D16*
X1310Y1843D02*
D03*
Y1910D02*
D03*
X1380Y1843D02*
D03*
Y1910D02*
D03*
X1450Y1843D02*
D03*
Y1910D02*
D03*
X1380Y2360D02*
D03*
Y2293D02*
D03*
X1450Y2360D02*
D03*
Y2293D02*
D03*
Y2810D02*
D03*
Y2743D02*
D03*
X1380Y2810D02*
D03*
Y2743D02*
D03*
X1310Y2810D02*
D03*
Y2743D02*
D03*
X1312Y2360D02*
D03*
Y2293D02*
D03*
D17*
X1187Y2060D02*
D03*
X1120D02*
D03*
X1187Y2960D02*
D03*
X1120D02*
D03*
X1123Y2510D02*
D03*
X1190D02*
D03*
D18*
X1100Y1740D02*
D03*
X1200D02*
D03*
X1100Y1960D02*
D03*
X1200D02*
D03*
X1100Y2640D02*
D03*
X1200D02*
D03*
X1100Y2860D02*
D03*
X1200D02*
D03*
Y2410D02*
D03*
X1100D02*
D03*
X1200Y2190D02*
D03*
X1100D02*
D03*
D28*
X2040Y2810D02*
D03*
Y2710D02*
D03*
Y2610D02*
D03*
Y2510D02*
D03*
Y2110D02*
D03*
Y2210D02*
D03*
Y2310D02*
D03*
Y2410D02*
D03*
X1940D02*
D03*
Y2310D02*
D03*
Y2210D02*
D03*
Y2110D02*
D03*
Y2510D02*
D03*
Y2610D02*
D03*
Y2710D02*
D03*
Y2810D02*
D03*
Y1910D02*
D03*
Y2010D02*
D03*
X2040D02*
D03*
Y1910D02*
D03*
X1330Y3516D02*
D03*
Y3624D02*
D03*
Y3732D02*
D03*
Y3840D02*
D03*
Y3948D02*
D03*
Y4056D02*
D03*
Y4164D02*
D03*
X1442Y4218D02*
D03*
Y4110D02*
D03*
Y4002D02*
D03*
Y3894D02*
D03*
Y3786D02*
D03*
Y3678D02*
D03*
Y3570D02*
D03*
Y3462D02*
D03*
D29*
X1520Y1400D02*
D03*
X1600D02*
D03*
X1680D02*
D03*
X1560Y1480D02*
D03*
X1640D02*
D03*
X1720D02*
D03*
D30*
X1120Y1180D02*
D03*
X2120D02*
D03*
Y4880D02*
D03*
X1120D02*
D03*
M02*
