G04*
G04 #@! TF.GenerationSoftware,Altium Limited,Altium Designer,22.6.1 (34)*
G04*
G04 Layer_Color=8421504*
%FSLAX23Y23*%
%MOIN*%
G70*
G04*
G04 #@! TF.SameCoordinates,B6A25038-3202-4191-8880-7B975E66899D*
G04*
G04*
G04 #@! TF.FilePolarity,Positive*
G04*
G01*
G75*
%ADD15O,0.018X0.055*%
%ADD16R,0.039X0.043*%
%ADD17R,0.043X0.039*%
%ADD18O,0.024X0.051*%
D15*
X1520Y1764D02*
D03*
X1546D02*
D03*
X1572D02*
D03*
X1597D02*
D03*
X1623D02*
D03*
X1648D02*
D03*
X1674D02*
D03*
X1700D02*
D03*
X1520Y1996D02*
D03*
X1546D02*
D03*
X1572D02*
D03*
X1597D02*
D03*
X1623D02*
D03*
X1648D02*
D03*
X1674D02*
D03*
X1700D02*
D03*
X1521Y2210D02*
D03*
X1546D02*
D03*
X1572D02*
D03*
X1598D02*
D03*
X1623D02*
D03*
X1649D02*
D03*
X1674D02*
D03*
X1700D02*
D03*
X1521Y2442D02*
D03*
X1546D02*
D03*
X1572D02*
D03*
X1598D02*
D03*
X1623D02*
D03*
X1649D02*
D03*
X1674D02*
D03*
X1700D02*
D03*
X1700Y2896D02*
D03*
X1674D02*
D03*
X1648D02*
D03*
X1623D02*
D03*
X1597D02*
D03*
X1572D02*
D03*
X1546D02*
D03*
X1520D02*
D03*
X1700Y2664D02*
D03*
X1674D02*
D03*
X1648D02*
D03*
X1623D02*
D03*
X1597D02*
D03*
X1572D02*
D03*
X1546D02*
D03*
X1520D02*
D03*
D16*
X1310Y1843D02*
D03*
Y1910D02*
D03*
X1380Y1843D02*
D03*
Y1910D02*
D03*
X1450Y1843D02*
D03*
Y1910D02*
D03*
X1380Y2360D02*
D03*
Y2293D02*
D03*
X1450Y2360D02*
D03*
Y2293D02*
D03*
Y2810D02*
D03*
Y2743D02*
D03*
X1380Y2810D02*
D03*
Y2743D02*
D03*
X1310Y2810D02*
D03*
Y2743D02*
D03*
X1312Y2360D02*
D03*
Y2293D02*
D03*
D17*
X1187Y2060D02*
D03*
X1120D02*
D03*
X1187Y2960D02*
D03*
X1120D02*
D03*
X1123Y2510D02*
D03*
X1190D02*
D03*
D18*
X1100Y1740D02*
D03*
X1200D02*
D03*
X1100Y1960D02*
D03*
X1200D02*
D03*
X1100Y2640D02*
D03*
X1200D02*
D03*
X1100Y2860D02*
D03*
X1200D02*
D03*
Y2410D02*
D03*
X1100D02*
D03*
X1200Y2190D02*
D03*
X1100D02*
D03*
M02*
