G04*
G04 #@! TF.GenerationSoftware,Altium Limited,Altium Designer,22.6.1 (34)*
G04*
G04 Layer_Physical_Order=4*
G04 Layer_Color=16711680*
%FSLAX23Y23*%
%MOIN*%
G70*
G04*
G04 #@! TF.SameCoordinates,B6A25038-3202-4191-8880-7B975E66899D*
G04*
G04*
G04 #@! TF.FilePolarity,Positive*
G04*
G01*
G75*
%ADD12C,0.010*%
%ADD28C,0.071*%
%ADD29C,0.063*%
%ADD30C,0.180*%
%ADD31C,0.024*%
D12*
X1573Y1940D02*
X1746Y1767D01*
X1573Y1940D02*
Y2065D01*
X1639Y2079D02*
X1646Y2086D01*
X1638Y2079D02*
X1639D01*
X1624Y2065D02*
X1638Y2079D01*
X1620Y2065D02*
X1624D01*
X1646Y2086D02*
Y2469D01*
X1530Y1510D02*
X1560Y1480D01*
X1530Y1510D02*
Y2510D01*
X1620Y2600D01*
X1898Y1700D02*
X2138Y1940D01*
X1575Y1700D02*
X1898D01*
X1790Y2270D02*
Y2355D01*
Y2270D02*
X1900Y2160D01*
X1872Y2358D02*
X1988D01*
X1790Y2440D02*
X1872Y2358D01*
X1900Y2160D02*
X1990D01*
X2040Y2210D01*
X1988Y2262D02*
X2057D01*
X1940Y2310D02*
X1988Y2262D01*
X2057D02*
X2100Y2218D01*
X2138Y1940D02*
Y2480D01*
X2057Y2562D02*
X2138Y2480D01*
X1988Y2562D02*
X2057D01*
X1940Y2610D02*
X1988Y2562D01*
X1880Y1650D02*
X2160Y1930D01*
X2040Y2610D02*
X2160Y2490D01*
Y1930D02*
Y2490D01*
X1573Y1650D02*
X1880D01*
X1622Y1548D02*
X1722D01*
X1548Y1622D02*
Y2077D01*
Y1622D02*
X1622Y1548D01*
X2072Y2062D02*
X2100Y2090D01*
Y2218D01*
X2069Y1959D02*
X2120Y2010D01*
X2045Y2310D02*
X2120Y2235D01*
Y2010D02*
Y2235D01*
X1792Y2062D02*
X2072D01*
X1645Y2530D02*
Y2960D01*
X1615Y2500D02*
X1645Y2530D01*
X1620Y2985D02*
X1645Y2960D01*
X1672Y2528D02*
X1675Y2525D01*
X1672Y2528D02*
Y2982D01*
X1670Y2985D02*
X1672Y2982D01*
X1470Y1387D02*
Y2540D01*
Y1387D02*
X1525Y1332D01*
X1470Y2540D02*
X1570Y2640D01*
X1500Y2150D02*
Y2529D01*
X1571Y2600D01*
X1765Y2251D02*
Y2375D01*
X1775Y2127D02*
Y2241D01*
X1765Y2117D02*
X1775Y2127D01*
X1765Y2251D02*
X1775Y2241D01*
X1765Y1935D02*
Y2117D01*
Y1935D02*
X1838Y1862D01*
X1725Y2065D02*
Y2421D01*
X1740Y2436D01*
Y2440D01*
X1791Y1959D02*
X2069D01*
X1790Y1960D02*
X1791Y1959D01*
X1790Y2060D02*
X1792Y2062D01*
X1838Y1862D02*
X1992D01*
X1765Y2375D02*
X1790Y2400D01*
X1992Y1862D02*
X2040Y1910D01*
X1747Y2213D02*
Y2223D01*
Y2213D02*
X1750Y2210D01*
X1747Y2223D02*
X1747Y2223D01*
X1747Y2223D02*
Y2412D01*
X2040Y2310D02*
X2045D01*
X1747Y2412D02*
X1765Y2430D01*
Y2825D01*
X1570Y2640D02*
Y2985D01*
X1940Y1555D02*
Y1645D01*
X1717Y1332D02*
X1940Y1555D01*
X1525Y1332D02*
X1717D01*
X1675Y2065D02*
Y2525D01*
X1548Y2077D02*
X1621Y2150D01*
X1722Y1548D02*
X1770Y1500D01*
Y1410D02*
Y1500D01*
X1988Y2358D02*
X2040Y2410D01*
X1615Y2500D02*
X1646Y2469D01*
X1739Y2441D02*
Y2895D01*
X1737Y2897D02*
X1739Y2895D01*
Y2441D02*
X1740Y2440D01*
X1710Y1350D02*
X1770Y1410D01*
X1650Y1350D02*
X1710D01*
X1600Y1400D02*
X1650Y1350D01*
X1315Y3894D02*
X1442D01*
X1070Y3648D02*
X1315Y3894D01*
X1070Y2090D02*
Y3648D01*
Y2090D02*
X1150Y2010D01*
X1315Y3786D02*
X1442D01*
X1110Y3581D02*
X1315Y3786D01*
X1110Y2500D02*
Y3581D01*
Y2500D02*
X1150Y2460D01*
X1315Y3678D02*
X1442D01*
X1150Y3513D02*
X1315Y3678D01*
X1150Y2910D02*
Y3513D01*
D28*
X2040Y2810D02*
D03*
Y2710D02*
D03*
Y2610D02*
D03*
Y2510D02*
D03*
Y2110D02*
D03*
Y2210D02*
D03*
Y2310D02*
D03*
Y2410D02*
D03*
X1940D02*
D03*
Y2310D02*
D03*
Y2210D02*
D03*
Y2110D02*
D03*
Y2510D02*
D03*
Y2610D02*
D03*
Y2710D02*
D03*
Y2810D02*
D03*
Y1910D02*
D03*
Y2010D02*
D03*
X2040D02*
D03*
Y1910D02*
D03*
X1330Y3516D02*
D03*
Y3624D02*
D03*
Y3732D02*
D03*
Y3840D02*
D03*
Y3948D02*
D03*
Y4056D02*
D03*
Y4164D02*
D03*
X1442Y4218D02*
D03*
Y4110D02*
D03*
Y4002D02*
D03*
Y3894D02*
D03*
Y3786D02*
D03*
Y3678D02*
D03*
Y3570D02*
D03*
Y3462D02*
D03*
D29*
X1520Y1400D02*
D03*
X1600D02*
D03*
X1680D02*
D03*
X1560Y1480D02*
D03*
X1640D02*
D03*
X1720D02*
D03*
D30*
X1120Y1180D02*
D03*
X2120D02*
D03*
Y4880D02*
D03*
X1120D02*
D03*
D31*
X1573Y2065D02*
D03*
X1620D02*
D03*
X1746Y1767D02*
D03*
X1790Y2440D02*
D03*
X1573Y1650D02*
D03*
X1320Y1780D02*
D03*
Y2230D02*
D03*
Y2680D02*
D03*
X1670Y2985D02*
D03*
X1620Y2985D02*
D03*
X1380Y2030D02*
D03*
X1500Y2150D02*
D03*
X1380Y2490D02*
D03*
X1725Y2065D02*
D03*
X1790Y1960D02*
D03*
Y2060D02*
D03*
X1750Y2210D02*
D03*
X1765Y2825D02*
D03*
X1570Y2985D02*
D03*
X1940Y1645D02*
D03*
X1675Y2065D02*
D03*
X1571Y2600D02*
D03*
X1575Y1700D02*
D03*
X1700Y2600D02*
D03*
Y2150D02*
D03*
X1450Y2935D02*
D03*
X1790Y2355D02*
D03*
Y2400D02*
D03*
X1615Y2500D02*
D03*
X1621Y2150D02*
D03*
X1675Y2525D02*
D03*
X1620Y2600D02*
D03*
X1737Y2897D02*
D03*
X1740Y2440D02*
D03*
X1150Y2010D02*
D03*
Y2910D02*
D03*
Y2460D02*
D03*
M02*
